<svg width="42" height="48" viewBox="0 0 42 48" fill="none" xmlns="http://www.w3.org/2000/svg">
<path fill-rule="evenodd" clip-rule="evenodd" d="M20.3278 41.0305C20.6472 41.055 20.9434 41.0745 21.2103 41.0613C21.2613 40.9082 21.3179 40.7739 21.3785 40.657C21.5486 40.3291 21.7677 40.1073 22.0171 40.0215C22.2827 39.9301 22.5541 40.01 22.6911 40.2253C22.8217 40.4304 22.7924 40.6946 22.6418 40.9205C22.3969 41.2881 22.0372 41.4647 21.6534 41.5426C21.6128 41.7194 21.5779 41.9231 21.5515 42.1565C21.5348 42.3033 21.3963 42.4125 21.2421 42.4005C21.0878 42.3885 20.9762 42.2598 20.9928 42.1131C21.0139 41.9273 21.0403 41.7559 21.0713 41.5981C20.7804 41.6017 20.4809 41.5784 20.1991 41.5565L20.1793 41.555C20.0184 41.5425 19.9024 41.4535 19.8382 41.339C19.7818 41.2385 19.7661 41.1225 19.7645 41.0202C19.7612 40.8119 19.8162 40.5483 19.9016 40.2712C20.0745 39.7101 20.3989 39.011 20.7832 38.4119C20.9757 38.1118 21.1874 37.8304 21.408 37.6016C21.625 37.3765 21.8686 37.1836 22.1283 37.0875C22.4047 36.9852 22.7011 36.9945 22.9616 37.1803C23.2017 37.3516 23.3779 37.65 23.5083 38.0506C23.6739 38.5593 23.7922 39.0688 23.8707 39.5166C24.0089 39.4962 24.1498 39.5008 24.2771 39.5163C24.5556 39.5501 24.8479 39.6448 25.0951 39.7589C25.1421 39.7806 25.1887 39.8036 25.2343 39.8277C25.2312 39.8063 25.2283 39.7848 25.2257 39.7632C25.2039 39.5852 25.1968 39.3779 25.2479 39.186C25.2607 39.1382 25.2795 39.083 25.3111 39.0322C25.341 38.9839 25.406 38.9026 25.5244 38.8729C25.6482 38.8419 25.7464 38.8875 25.7968 38.9209C25.8467 38.9539 25.8828 38.9953 25.9064 39.0258C25.9781 39.1184 26.0492 39.2664 26.1108 39.403C26.112 39.2716 26.1114 39.133 26.1108 38.9924C26.1103 38.8756 26.1098 38.7573 26.1103 38.6406C26.1116 38.3423 26.1192 38.0351 26.1644 37.8468C26.1761 37.7982 26.1946 37.7375 26.2281 37.6817C26.2588 37.6303 26.3362 37.5286 26.4832 37.508C26.625 37.4882 26.7254 37.5596 26.7699 37.5983C26.8201 37.642 26.8611 37.6973 26.895 37.7505C27.0346 37.9699 27.1224 38.2797 27.185 38.5703C27.2378 38.8157 27.2777 39.0737 27.3114 39.292C27.3158 39.3208 27.3202 39.3488 27.3244 39.3761C27.3543 39.3731 27.3851 39.3747 27.4158 39.3813C27.5662 39.414 27.6571 39.5568 27.6188 39.7003C27.5804 39.8446 27.5404 39.9684 27.4923 40.052C27.479 40.0751 27.4604 40.1036 27.4349 40.1312C27.4107 40.1574 27.3672 40.197 27.3014 40.2211C27.2262 40.2485 27.1445 40.2472 27.0721 40.2178C27.0088 40.192 26.9693 40.1516 26.9479 40.1256C26.9071 40.0758 26.885 40.0187 26.8728 39.9831C26.8584 39.9416 26.8464 39.8953 26.836 39.8486C26.815 39.7553 26.7956 39.6393 26.7762 39.5163C26.7691 39.4713 26.7619 39.4249 26.7546 39.3775C26.7301 39.219 26.7038 39.0489 26.6723 38.8797C26.6724 38.9077 26.6725 38.936 26.6727 38.9643C26.6735 39.1702 26.6744 39.3805 26.6699 39.5635C26.6664 39.7076 26.6594 39.8447 26.6452 39.9591C26.6382 40.0163 26.6288 40.0728 26.6154 40.1245C26.6031 40.1721 26.5829 40.2347 26.5448 40.292C26.5122 40.3409 26.4504 40.4116 26.3461 40.4437C26.2337 40.4781 26.1361 40.4488 26.0748 40.4154C25.9905 40.3696 25.9311 40.2934 25.8931 40.2363C25.8977 40.2578 25.9019 40.2785 25.9053 40.2976C25.9101 40.3239 25.9146 40.3532 25.9167 40.3819C25.9185 40.4051 25.921 40.4527 25.9071 40.5047C25.8936 40.5555 25.8351 40.6972 25.6589 40.7242C25.5375 40.7427 25.4497 40.6849 25.43 40.6719L25.4292 40.6713C25.3704 40.6327 25.314 40.5716 25.2661 40.5164C25.2039 40.4447 25.0528 40.3382 24.8389 40.2394C24.6309 40.1434 24.3965 40.07 24.1916 40.0451C24.0895 40.0326 24.0097 40.0339 23.9489 40.0424C23.9688 40.2086 23.982 40.3585 23.9889 40.4871C23.9963 40.6249 23.997 40.7455 23.9895 40.8388C23.9859 40.8843 23.9796 40.9333 23.9674 40.9781C23.9614 41.0003 23.9515 41.0308 23.9342 41.0626C23.9193 41.0901 23.8831 41.1483 23.8097 41.189C23.7181 41.2398 23.6169 41.2374 23.5382 41.2041C23.4748 41.1773 23.4366 41.1356 23.4188 41.1141C23.3815 41.0689 23.3568 41.0154 23.3403 40.9748C23.3041 40.886 23.2673 40.7577 23.2291 40.5923C23.1577 40.2833 23.1816 40.0017 23.346 39.7958C23.2733 39.3318 23.1519 38.7755 22.9711 38.2197C22.854 37.8601 22.7224 37.6848 22.6166 37.6093C22.5312 37.5484 22.4438 37.5379 22.3207 37.5835C22.1809 37.6352 22.0094 37.7575 21.8181 37.9559C21.6305 38.1505 21.4408 38.4005 21.2612 38.6804C20.9012 39.2414 20.5984 39.8967 20.4406 40.4086C20.3606 40.668 20.3243 40.8705 20.3263 40.9985C20.3265 41.0107 20.327 41.0213 20.3278 41.0305ZM25.4466 39.3437C25.4466 39.3437 25.4469 39.344 25.4476 39.3448C25.4469 39.3441 25.4466 39.3438 25.4466 39.3437ZM27.4117 39.8171C27.4116 39.8172 27.4114 39.8167 27.4109 39.8156C27.4114 39.8166 27.4117 39.8171 27.4117 39.8171ZM25.3563 40.433C25.3565 40.4362 25.3563 40.4357 25.3562 40.4324ZM21.8646 40.9157C21.989 40.8514 22.0898 40.763 22.1691 40.6441C22.2006 40.5967 22.2099 40.5605 22.2116 40.5389C22.2123 40.5297 22.2117 40.5228 22.2109 40.5181C22.2071 40.5189 22.2024 40.5201 22.1965 40.5221C22.1445 40.54 22.0177 40.6197 21.8814 40.8824C21.8758 40.8932 21.8702 40.9044 21.8646 40.9157ZM22.2217 40.5172C22.2217 40.5172 22.2214 40.5172 22.221 40.5171Z" fill="#23366F"/>
<path fill-rule="evenodd" clip-rule="evenodd" d="M19 12.5C19 12.2239 19.2239 12 19.5 12H27C27.2761 12 27.5 12.2239 27.5 12.5C27.5 12.7761 27.2761 13 27 13H19.5C19.2239 13 19 12.7761 19 12.5Z" fill="#23366F"/>
<path fill-rule="evenodd" clip-rule="evenodd" d="M19 17C19 16.7239 19.2239 16.5 19.5 16.5H27C27.2761 16.5 27.5 16.7239 27.5 17C27.5 17.2761 27.2761 17.5 27 17.5H19.5C19.2239 17.5 19 17.2761 19 17Z" fill="#23366F"/>
<path fill-rule="evenodd" clip-rule="evenodd" d="M10.5 23C10.5 22.7239 10.7239 22.5 11 22.5L27 22.5C27.2761 22.5 27.5 22.7239 27.5 23C27.5 23.2761 27.2761 23.5 27 23.5L11 23.5C10.7239 23.5 10.5 23.2761 10.5 23Z" fill="#23366F"/>
<path fill-rule="evenodd" clip-rule="evenodd" d="M10.5 26C10.5 25.7239 10.7239 25.5 11 25.5L27 25.5C27.2761 25.5 27.5 25.7239 27.5 26C27.5 26.2761 27.2761 26.5 27 26.5L11 26.5C10.7239 26.5 10.5 26.2761 10.5 26Z" fill="#23366F"/>
<path fill-rule="evenodd" clip-rule="evenodd" d="M20.5 32C20.5 31.7239 20.7239 31.5 21 31.5L27 31.5C27.2761 31.5 27.5 31.7239 27.5 32C27.5 32.2761 27.2761 32.5 27 32.5L21 32.5C20.7239 32.5 20.5 32.2761 20.5 32Z" fill="#23366F"/>
<path fill-rule="evenodd" clip-rule="evenodd" d="M10.5 32C10.5 31.7239 10.7239 31.5 11 31.5L17 31.5C17.2761 31.5 17.5 31.7239 17.5 32C17.5 32.2761 17.2761 32.5 17 32.5L11 32.5C10.7239 32.5 10.5 32.2761 10.5 32Z" fill="#23366F"/>
<path fill-rule="evenodd" clip-rule="evenodd" d="M10.5 39C10.5 38.7239 10.7239 38.5 11 38.5L17 38.5C17.2761 38.5 17.5 38.7239 17.5 39C17.5 39.2761 17.2761 39.5 17 39.5L11 39.5C10.7239 39.5 10.5 39.2761 10.5 39Z" fill="#23366F"/>
<path d="M9 7H14V15.8952C14 16.2693 13.5322 16.4387 13.2927 16.1513L11.5 14L9.70729 16.1513C9.46778 16.4387 9 16.2693 9 15.8952V7Z" fill="#23366F"/>
<path fill-rule="evenodd" clip-rule="evenodd" d="M28 8H9C7.34315 8 6 9.34315 6 11V42C6 43.6569 7.34315 45 9 45H28C29.6569 45 31 43.6569 31 42V11C31 9.34315 29.6569 8 28 8ZM9 7C6.79086 7 5 8.79086 5 11V42C5 44.2091 6.79086 46 9 46H28C30.2091 46 32 44.2091 32 42V11C32 8.79086 30.2091 7 28 7H9Z" fill="#23366F"/>
<path fill-rule="evenodd" clip-rule="evenodd" d="M9.5 6C9.5 3.51472 11.5147 1.5 14 1.5H33C35.4853 1.5 37.5 3.51472 37.5 6V37C37.5 39.4853 35.4853 41.5 33 41.5H31.5V40.5H33C34.933 40.5 36.5 38.933 36.5 37V6C36.5 4.067 34.933 2.5 33 2.5H14C12.067 2.5 10.5 4.067 10.5 6V7.5H9.5V6Z" fill="#23366F"/>
</svg>
