<svg width="42" height="48" viewBox="0 0 42 48" fill="none" xmlns="http://www.w3.org/2000/svg">
<path d="M16.7104 28.8828H11.423C11.1762 28.8828 11 29.0563 11 29.2297V37.1794C11 37.3817 11.2115 37.5263 11.423 37.5263H16.7104C16.9571 37.5263 17.1334 37.3528 17.1334 37.1794V29.2586C17.1686 29.0563 16.9571 28.8828 16.7104 28.8828ZM16.2874 36.8325H11.8812V29.6055H16.2874V36.8325Z" fill="#23366F"/>
<path d="M24.6781 24.9141H19.3908C19.144 24.9141 18.9678 25.0875 18.9678 25.261V37.171C18.9678 37.3734 19.1793 37.5179 19.3908 37.5179H24.6781C24.9249 37.5179 25.1011 37.3445 25.1011 37.171V25.261C25.1011 25.0586 24.8896 24.9141 24.6781 24.9141ZM24.2199 36.8241H19.8138V25.6368H24.2199V36.8241Z" fill="#23366F"/>
<path d="M32.5727 20.9023H27.2853C27.0738 20.9023 26.8623 21.0758 26.8623 21.2492V37.1775C26.8623 37.3799 27.0738 37.5244 27.2853 37.5244H32.5727C32.8194 37.5244 32.9957 37.351 32.9957 37.1775V21.2492C33.0309 21.0758 32.8194 20.9023 32.5727 20.9023ZM32.1497 36.8306H27.7435V21.625H32.1497V36.8306Z" fill="#23366F"/>
<path d="M11.8798 2C6.8228 2 2.73047 6.09234 2.73047 11.1493C2.73047 11.3539 2.90585 11.5001 3.08124 11.5001H11.4705V19.9186C11.4705 20.1232 11.6459 20.2694 11.8213 20.2694C16.9075 20.2694 20.9998 16.177 20.9998 11.1201C20.9998 6.09233 16.9075 2 11.8798 2ZM12.2305 19.5386V11.1493C12.2305 10.9447 12.0551 10.7985 11.8798 10.7985H3.46124C3.66586 6.29695 7.34896 2.73077 11.8798 2.73077C16.5275 2.73077 20.2983 6.50157 20.2983 11.1201C20.269 15.6509 16.7029 19.3632 12.2305 19.5386Z" fill="#23366F"/>
<path d="M9.68774 12.9609H2.38C2.29231 12.9609 2.17539 12.9902 2.11692 13.0779C2.02923 13.1363 2 13.2532 2 13.3409C2 17.521 5.44925 20.9702 9.65851 20.9995C9.74621 20.9995 9.8339 20.9702 9.92159 20.8825C9.98005 20.8241 10.0385 20.7071 10.0385 20.6194V13.3117C10.0385 13.1363 9.86313 12.9609 9.68774 12.9609ZM9.30774 20.2687C5.77079 20.0641 2.93539 17.1994 2.73077 13.6917H9.30774V20.2687Z" fill="#23366F"/>
<path fill-rule="evenodd" clip-rule="evenodd" d="M25 9.5C25 9.22386 25.2239 9 25.5 9H33C33.2761 9 33.5 9.22386 33.5 9.5C33.5 9.77614 33.2761 10 33 10H25.5C25.2239 10 25 9.77614 25 9.5Z" fill="#23366F"/>
<path fill-rule="evenodd" clip-rule="evenodd" d="M25 15C25 14.7239 25.2239 14.5 25.5 14.5H33C33.2761 14.5 33.5 14.7239 33.5 15C33.5 15.2761 33.2761 15.5 33 15.5H25.5C25.2239 15.5 25 15.2761 25 15Z" fill="#23366F"/>
<path fill-rule="evenodd" clip-rule="evenodd" d="M10.5 41C10.5 40.7239 10.7239 40.5 11 40.5H33C33.2761 40.5 33.5 40.7239 33.5 41C33.5 41.2761 33.2761 41.5 33 41.5H11C10.7239 41.5 10.5 41.2761 10.5 41Z" fill="#23366F"/>
<path fill-rule="evenodd" clip-rule="evenodd" d="M21.5 2C21.5 1.72386 21.7239 1.5 22 1.5H34C36.4853 1.5 38.5 3.51472 38.5 6V42C38.5 44.4853 36.4853 46.5 34 46.5H10C7.51472 46.5 5.5 44.4853 5.5 42V24C5.5 23.7239 5.72386 23.5 6 23.5C6.27614 23.5 6.5 23.7239 6.5 24V42C6.5 43.933 8.067 45.5 10 45.5H34C35.933 45.5 37.5 43.933 37.5 42V6C37.5 4.067 35.933 2.5 34 2.5H22C21.7239 2.5 21.5 2.27614 21.5 2Z" fill="#23366F"/>
</svg>
