<svg width="42" height="48" viewBox="0 0 42 48" fill="none" xmlns="http://www.w3.org/2000/svg">
<path fill-rule="evenodd" clip-rule="evenodd" d="M23 28.5C23 28.2239 23.2239 28 23.5 28H31C31.2761 28 31.5 28.2239 31.5 28.5C31.5 28.7761 31.2761 29 31 29H23.5C23.2239 29 23 28.7761 23 28.5Z" fill="#23366F"/>
<path fill-rule="evenodd" clip-rule="evenodd" d="M26.5 20C26.5 19.7239 26.7239 19.5 27 19.5L31 19.5C31.2761 19.5 31.5 19.7239 31.5 20C31.5 20.2761 31.2761 20.5 31 20.5L27 20.5C26.7239 20.5 26.5 20.2761 26.5 20Z" fill="#23366F"/>
<path fill-rule="evenodd" clip-rule="evenodd" d="M12.5 28.5C12.5 28.2239 12.7239 28 13 28H20.5C20.7761 28 21 28.2239 21 28.5C21 28.7761 20.7761 29 20.5 29H13C12.7239 29 12.5 28.7761 12.5 28.5Z" fill="#23366F"/>
<path fill-rule="evenodd" clip-rule="evenodd" d="M23 34C23 33.7239 23.2239 33.5 23.5 33.5H31C31.2761 33.5 31.5 33.7239 31.5 34C31.5 34.2761 31.2761 34.5 31 34.5H23.5C23.2239 34.5 23 34.2761 23 34Z" fill="#23366F"/>
<path fill-rule="evenodd" clip-rule="evenodd" d="M12.5 34C12.5 33.7239 12.7239 33.5 13 33.5H20.5C20.7761 33.5 21 33.7239 21 34C21 34.2761 20.7761 34.5 20.5 34.5H13C12.7239 34.5 12.5 34.2761 12.5 34Z" fill="#23366F"/>
<path fill-rule="evenodd" clip-rule="evenodd" d="M12.5 40C12.5 39.7239 12.7239 39.5 13 39.5L31 39.5C31.2761 39.5 31.5 39.7239 31.5 40C31.5 40.2761 31.2761 40.5 31 40.5L13 40.5C12.7239 40.5 12.5 40.2761 12.5 40Z" fill="#23366F"/>
<path fill-rule="evenodd" clip-rule="evenodd" d="M22.5 11C22.5 10.7239 22.7239 10.5 23 10.5H32C34.4853 10.5 36.5 12.5147 36.5 15V42C36.5 44.4853 34.4853 46.5 32 46.5H12C9.51472 46.5 7.5 44.4853 7.5 42V22C7.5 21.7239 7.72386 21.5 8 21.5C8.27614 21.5 8.5 21.7239 8.5 22V42C8.5 43.933 10.067 45.5 12 45.5H32C33.933 45.5 35.5 43.933 35.5 42V15C35.5 13.067 33.933 11.5 32 11.5H23C22.7239 11.5 22.5 11.2761 22.5 11Z" fill="#23366F"/>
<path fill-rule="evenodd" clip-rule="evenodd" d="M13.3383 13.3846C13.558 13.2173 13.8717 13.2599 14.039 13.4796L18.2793 19.0491C18.4466 19.2688 18.404 19.5825 18.1843 19.7498C17.9646 19.9171 17.6509 19.8746 17.4836 19.6549L13.2433 14.0853C13.076 13.8656 13.1185 13.5519 13.3383 13.3846Z" fill="#23366F"/>
<path fill-rule="evenodd" clip-rule="evenodd" d="M4.193 7.15115C4.02573 6.93144 4.06824 6.61772 4.28795 6.45044L9.06183 2.81589C9.28155 2.64861 9.59526 2.69112 9.76254 2.91083L12.7198 6.79516L16.6282 8.7142C16.6979 8.74842 16.7586 8.79838 16.8057 8.86014L18.0172 10.4514C18.1845 10.6711 18.142 10.9849 17.9222 11.1521L9.96577 17.2097C9.74606 17.377 9.43234 17.3345 9.26506 17.1148L8.05355 15.5235C8.00652 15.4617 7.97453 15.3899 7.96009 15.3136L7.1503 11.0355L4.193 7.15115ZM16.9187 10.6594L16.0815 9.55981L12.1731 7.64077C12.1035 7.60655 12.0427 7.55659 11.9957 7.49483L9.26977 3.91441L5.29153 6.94321L8.01745 10.5236C8.06447 10.5854 8.09647 10.6572 8.1109 10.7335L8.92069 15.0117L9.75783 16.1112L16.9187 10.6594Z" fill="#23366F"/>
<path fill-rule="evenodd" clip-rule="evenodd" d="M4.20342 7.24096C3.86886 6.80154 3.95388 6.1741 4.3933 5.83955L8.37154 2.81075C8.81097 2.4762 9.4384 2.56122 9.77295 3.00064C10.1075 3.44007 10.0225 4.0675 9.58306 4.40205L5.60482 7.43085C5.1654 7.7654 4.53797 7.68038 4.20342 7.24096Z" fill="#23366F"/>
<path fill-rule="evenodd" clip-rule="evenodd" d="M17.8244 14.9714C17.8467 14.6961 18.0879 14.4911 18.3631 14.5134C19.1525 14.5773 19.911 14.8484 20.5621 15.2994C21.2131 15.7503 21.7337 16.3651 22.0711 17.0816C22.4084 17.7981 22.5508 18.591 22.4836 19.3801C22.4165 20.1692 22.1423 20.9267 21.6887 21.5759C21.2352 22.2251 20.6183 22.7431 19.9004 23.0776C19.1826 23.4121 18.3891 23.5512 17.6003 23.4809C16.8114 23.4106 16.0551 23.1333 15.4077 22.6771C14.7604 22.221 14.2448 21.602 13.9132 20.8828C13.7976 20.632 13.9072 20.335 14.158 20.2194C14.4087 20.1037 14.7058 20.2133 14.8214 20.4641C15.0793 21.0235 15.4802 21.5049 15.9838 21.8597C16.4873 22.2145 17.0755 22.4302 17.6891 22.4849C18.3026 22.5396 18.9197 22.4314 19.4781 22.1712C20.0364 21.911 20.5162 21.5081 20.869 21.0032C21.2218 20.4982 21.435 19.9091 21.4872 19.2954C21.5394 18.6816 21.4288 18.0649 21.1663 17.5076C20.9039 16.9503 20.4991 16.4722 19.9927 16.1215C19.4863 15.7707 18.8964 15.5598 18.2824 15.5101C18.0071 15.4878 17.8021 15.2466 17.8244 14.9714Z" fill="#23366F"/>
</svg>
