<svg width="42" height="48" viewBox="0 0 42 48" fill="none" xmlns="http://www.w3.org/2000/svg">
<path fill-rule="evenodd" clip-rule="evenodd" d="M28.4258 7.92188H9C7.34315 7.92188 6 9.26502 6 10.9219V41.7751C6 43.432 7.34315 44.7751 9 44.7751H28.4258C30.0827 44.7751 31.4258 43.432 31.4258 41.7751V10.9219C31.4258 9.26502 30.0827 7.92188 28.4258 7.92188ZM9 6.92188C6.79086 6.92188 5 8.71273 5 10.9219V41.7751C5 43.9843 6.79086 45.7751 9 45.7751H28.4258C30.635 45.7751 32.4258 43.9843 32.4258 41.7751V10.9219C32.4258 8.71274 30.635 6.92188 28.4258 6.92188H9Z" fill="#23366F"/>
<path fill-rule="evenodd" clip-rule="evenodd" d="M9.07227 7.4996C9.07227 5.01454 11.0868 3 13.5719 3H32.9981C35.4834 3 37.4981 5.01472 37.4981 7.5V36.0678C37.4981 38.5531 35.4834 40.5678 32.9981 40.5678H32.4271V39.5678H32.9981C34.9311 39.5678 36.4981 38.0008 36.4981 36.0678V7.5C36.4981 5.567 34.9311 4 32.9981 4H13.5719C11.6391 4 10.0723 5.56682 10.0723 7.4996H9.07227Z" fill="#23366F"/>
<path fill-rule="evenodd" clip-rule="evenodd" d="M10.2129 12.6445C10.2129 12.3684 10.4367 12.1445 10.7129 12.1445H26.7113C26.9874 12.1445 27.2113 12.3684 27.2113 12.6445C27.2113 12.9207 26.9874 13.1445 26.7113 13.1445H10.7129C10.4367 13.1445 10.2129 12.9207 10.2129 12.6445Z" fill="#23366F"/>
<path fill-rule="evenodd" clip-rule="evenodd" d="M10.2129 17.2188C10.2129 16.9426 10.4367 16.7188 10.7129 16.7188H26.7113C26.9874 16.7188 27.2113 16.9426 27.2113 17.2188C27.2113 17.4949 26.9874 17.7188 26.7113 17.7188H10.7129C10.4367 17.7188 10.2129 17.4949 10.2129 17.2188Z" fill="#23366F"/>
<path fill-rule="evenodd" clip-rule="evenodd" d="M10.2129 38.9219C10.2129 38.6457 10.4367 38.4219 10.7129 38.4219H26.7113C26.9874 38.4219 27.2113 38.6457 27.2113 38.9219C27.2113 39.198 26.9874 39.4219 26.7113 39.4219H10.7129C10.4367 39.4219 10.2129 39.198 10.2129 38.9219Z" fill="#23366F"/>
<path fill-rule="evenodd" clip-rule="evenodd" d="M10.2129 22.9219C10.2129 22.6457 10.4367 22.4219 10.7129 22.4219H16.4266C16.7027 22.4219 16.9266 22.6457 16.9266 22.9219C16.9266 23.198 16.7027 23.4219 16.4266 23.4219H10.7129C10.4367 23.4219 10.2129 23.198 10.2129 22.9219Z" fill="#23366F"/>
<path fill-rule="evenodd" clip-rule="evenodd" d="M10.2129 28.3555C10.2129 28.0793 10.4367 27.8555 10.7129 27.8555H16.4266C16.7027 27.8555 16.9266 28.0793 16.9266 28.3555C16.9266 28.6316 16.7027 28.8555 16.4266 28.8555H10.7129C10.4367 28.8555 10.2129 28.6316 10.2129 28.3555Z" fill="#23366F"/>
<path fill-rule="evenodd" clip-rule="evenodd" d="M10.2129 33.2188C10.2129 32.9426 10.4367 32.7188 10.7129 32.7188H16.4266C16.7027 32.7188 16.9266 32.9426 16.9266 33.2188C16.9266 33.4949 16.7027 33.7188 16.4266 33.7188H10.7129C10.4367 33.7188 10.2129 33.4949 10.2129 33.2188Z" fill="#23366F"/>
<path fill-rule="evenodd" clip-rule="evenodd" d="M20.5 22.9219C20.5 22.6457 20.7239 22.4219 21 22.4219H26.7137C26.9899 22.4219 27.2137 22.6457 27.2137 22.9219C27.2137 23.198 26.9899 23.4219 26.7137 23.4219H21C20.7239 23.4219 20.5 23.198 20.5 22.9219Z" fill="#23366F"/>
<path fill-rule="evenodd" clip-rule="evenodd" d="M20.5 28.3555C20.5 28.0793 20.7239 27.8555 21 27.8555H26.7137C26.9899 27.8555 27.2137 28.0793 27.2137 28.3555C27.2137 28.6316 26.9899 28.8555 26.7137 28.8555H21C20.7239 28.8555 20.5 28.6316 20.5 28.3555Z" fill="#23366F"/>
<path fill-rule="evenodd" clip-rule="evenodd" d="M20.5 33.2188C20.5 32.9426 20.7239 32.7188 21 32.7188H26.7137C26.9899 32.7188 27.2137 32.9426 27.2137 33.2188C27.2137 33.4949 26.9899 33.7188 26.7137 33.7188H21C20.7239 33.7188 20.5 33.4949 20.5 33.2188Z" fill="#23366F"/>
</svg>