<svg width="42" height="48" viewBox="0 0 42 48" fill="none" xmlns="http://www.w3.org/2000/svg">
<path fill-rule="evenodd" clip-rule="evenodd" d="M6.23799 28.0992C5.75117 28.4605 5.5 28.9181 5.5 29.375V43.625C5.5 44.0819 5.75117 44.5395 6.23799 44.9008C6.72419 45.2617 7.41744 45.5 8.2 45.5H33.8C34.5826 45.5 35.2758 45.2617 35.762 44.9008C36.2488 44.5395 36.5 44.0819 36.5 43.625V29.375C36.5 28.9181 36.2488 28.4605 35.762 28.0992C35.2758 27.7383 34.5826 27.5 33.8 27.5V26.5C34.7774 26.5 35.6842 26.7961 36.358 27.2962C37.0312 27.7958 37.5 28.5257 37.5 29.375V43.625C37.5 44.4743 37.0312 45.2042 36.358 45.7038C35.6842 46.2039 34.7774 46.5 33.8 46.5H8.2C7.22256 46.5 6.31581 46.2039 5.64201 45.7038C4.96883 45.2042 4.5 44.4743 4.5 43.625V29.375C4.5 28.5257 4.96883 27.7958 5.64201 27.2962C6.31581 26.7961 7.22256 26.5 8.2 26.5V27.5C7.41744 27.5 6.72419 27.7383 6.23799 28.0992Z" fill="#23366F"/>
<path fill-rule="evenodd" clip-rule="evenodd" d="M4.5643 30.755C4.69968 30.5143 5.00454 30.4289 5.24522 30.5643L21.0001 39.4264L36.755 30.5643C36.9956 30.4289 37.3005 30.5143 37.4359 30.755C37.5713 30.9956 37.4859 31.3005 37.2452 31.4359L21.2452 40.4359C21.093 40.5215 20.9072 40.5215 20.755 40.4359L4.75496 31.4359C4.51428 31.3005 4.42892 30.9956 4.5643 30.755Z" fill="#23366F"/>
<path fill-rule="evenodd" clip-rule="evenodd" d="M31.6464 4.64645C31.8417 4.45118 32.1583 4.45118 32.3536 4.64645L36.3536 8.64645C36.5488 8.84171 36.5488 9.15829 36.3536 9.35355C36.1583 9.54882 35.8417 9.54882 35.6464 9.35355L31.6464 5.35355C31.4512 5.15829 31.4512 4.84171 31.6464 4.64645Z" fill="#23366F"/>
<path fill-rule="evenodd" clip-rule="evenodd" d="M34.6465 1.64645C34.8417 1.45118 35.1583 1.45118 35.3536 1.64645L39.3536 5.64645C39.5488 5.84171 39.5488 6.15829 39.3536 6.35355L27.8536 17.8536C27.792 17.9151 27.7155 17.9595 27.6316 17.9824L22.1316 19.4824C21.9585 19.5296 21.7733 19.4804 21.6465 19.3536C21.5196 19.2267 21.4704 19.0415 21.5176 18.8684L23.0176 13.3684C23.0405 13.2845 23.0849 13.208 23.1465 13.1464L34.6465 1.64645ZM23.9475 13.7597L22.7126 18.2874L27.2403 17.0526L38.2929 6L35 2.70711L23.9475 13.7597Z" fill="#23366F"/>
<path fill-rule="evenodd" clip-rule="evenodd" d="M11.5 25C11.5 24.7239 11.7239 24.5 12 24.5H30C30.2761 24.5 30.5 24.7239 30.5 25C30.5 25.2761 30.2761 25.5 30 25.5H12C11.7239 25.5 11.5 25.2761 11.5 25Z" fill="#23366F"/>
<path fill-rule="evenodd" clip-rule="evenodd" d="M11.5 18C11.5 17.7239 11.7239 17.5 12 17.5H18C18.2761 17.5 18.5 17.7239 18.5 18C18.5 18.2761 18.2761 18.5 18 18.5H12C11.7239 18.5 11.5 18.2761 11.5 18Z" fill="#23366F"/>
<path fill-rule="evenodd" clip-rule="evenodd" d="M11.5 30C11.5 29.7239 11.7239 29.5 12 29.5H18C18.2761 29.5 18.5 29.7239 18.5 30C18.5 30.2761 18.2761 30.5 18 30.5H12C11.7239 30.5 11.5 30.2761 11.5 30Z" fill="#23366F"/>
<path fill-rule="evenodd" clip-rule="evenodd" d="M17.5 35C17.5 34.7239 17.7239 34.5 18 34.5L24 34.5C24.2761 34.5 24.5 34.7239 24.5 35C24.5 35.2761 24.2761 35.5 24 35.5L18 35.5C17.7239 35.5 17.5 35.2761 17.5 35Z" fill="#23366F"/>
<path fill-rule="evenodd" clip-rule="evenodd" d="M22.5 30C22.5 29.7239 22.7239 29.5 23 29.5H30C30.2761 29.5 30.5 29.7239 30.5 30C30.5 30.2761 30.2761 30.5 30 30.5H23C22.7239 30.5 22.5 30.2761 22.5 30Z" fill="#23366F"/>
<path fill-rule="evenodd" clip-rule="evenodd" d="M20.5 9C20.5 8.72386 20.2761 8.5 20 8.5H12C9.51472 8.5 7.5 10.5147 7.5 13V32.5C7.5 32.7761 7.72386 33 8 33C8.27614 33 8.5 32.7761 8.5 32.5V13C8.5 11.067 10.067 9.5 12 9.5H20C20.2761 9.5 20.5 9.27614 20.5 9ZM34 16.5C33.7239 16.5 33.5 16.7239 33.5 17V33H34.5V17C34.5 16.7239 34.2761 16.5 34 16.5Z" fill="#23366F"/>
</svg>
