<svg width="170" height="115" viewBox="0 0 170 115" fill="none" xmlns="http://www.w3.org/2000/svg">
<path d="M24.052 115C29.3129 114.995 34.4255 113.574 38.6027 110.957C42.7799 108.34 45.7898 104.671 47.1691 100.517L48.359 102.899C48.5551 103.297 48.893 103.637 49.3288 103.876C49.7645 104.115 50.278 104.241 50.8024 104.238C51.3298 104.242 51.8466 104.117 52.2861 103.878C52.7255 103.639 53.0672 103.298 53.2671 102.899L57.7503 93.9095L62.2335 102.899C62.4296 103.297 62.7675 103.637 63.2033 103.876C63.639 104.115 64.1525 104.241 64.6769 104.238C65.2043 104.242 65.7212 104.117 66.1606 103.878C66.6 103.639 66.9417 103.298 67.1416 102.899L71.5823 93.9095L75.5981 101.908L75.9593 102.638L76.0867 102.899C76.2088 103.174 76.3977 103.427 76.6422 103.642C76.8866 103.856 77.1816 104.028 77.5093 104.146C77.8369 104.265 78.1906 104.328 78.5489 104.332C78.9072 104.336 79.2627 104.28 79.5941 104.169C79.9255 104.057 80.2259 103.892 80.4772 103.683C80.7285 103.474 80.9255 103.225 81.0564 102.953C81.1873 102.68 81.2493 102.388 81.2387 102.095C81.2281 101.801 81.1452 101.513 80.9949 101.247L80.8037 100.847V63.5512C80.8054 62.0639 80.4666 60.5896 79.805 59.2044L73.707 46.3029C73.5061 45.9056 73.1657 45.566 72.7289 45.3271C72.292 45.0882 71.7784 44.9606 71.253 44.9606C70.7276 44.9606 70.2139 45.0882 69.7771 45.3271C69.3403 45.566 68.9998 45.9056 68.7989 46.3029L64.2945 54.9966L59.79 46.3029C59.586 45.9109 59.2455 45.5766 58.8111 45.3416C58.3766 45.1066 57.8674 44.9813 57.3466 44.9813C56.8258 44.9813 56.3166 45.1066 55.8821 45.3416C55.4477 45.5766 55.1073 45.9109 54.9032 46.3029L49.6976 56.2833L26.1767 32.6886C24.4172 30.8175 22.3344 29.1658 19.9938 27.7854C17.5082 26.2833 14.674 25.2124 11.6648 24.6383C8.01027 23.995 3.16588 23.5429 3.01715 23.5255C2.63634 23.4819 2.24847 23.5076 1.8812 23.6008C1.51393 23.694 1.17631 23.8523 0.892413 24.0645C0.610372 24.2695 0.384913 24.5212 0.231042 24.803C0.0771708 25.0849 -0.0015825 25.3903 2.40951e-05 25.6989V95.4048C0.0169098 100.613 2.55976 105.602 7.06978 109.276C11.5798 112.951 17.688 115.01 24.052 115ZM24.052 110.654C19.7308 110.658 15.5415 109.436 12.1979 107.196C8.8543 104.956 6.56334 101.836 5.71544 98.369C4.86753 94.9016 5.51514 91.3009 7.5479 88.1804C9.58067 85.06 12.8728 82.6129 16.8633 81.2562C20.8538 79.8995 25.2957 79.7171 29.4321 80.7402C33.5685 81.7632 37.1433 83.9284 39.5476 86.8667C41.9518 89.805 43.0365 93.3346 42.6169 96.854C42.1974 100.373 40.2995 103.665 37.2466 106.168C33.7489 109.035 29.0029 110.649 24.052 110.654ZM57.3466 52.6493L61.851 61.343C62.0528 61.7364 62.3927 62.0719 62.8277 62.3072C63.2627 62.5424 63.7731 62.6667 64.2945 62.6644C64.8146 62.6622 65.3227 62.5361 65.7566 62.3014C66.1905 62.0667 66.5315 61.7337 66.7379 61.343L71.1361 52.8754L74.8969 60.804C75.3204 61.6905 75.5367 62.6342 75.5343 63.586V90.206L74.0895 87.3371C73.8886 86.9398 73.5482 86.6002 73.1113 86.3613C72.6745 86.1223 72.1609 85.9948 71.6354 85.9948C71.11 85.9948 70.5964 86.1223 70.1595 86.3613C69.7227 86.6002 69.3823 86.9398 69.1814 87.3371L64.6982 96.3264L60.215 87.3371C60.0174 86.9344 59.6771 86.5894 59.2379 86.3464C58.7986 86.1033 58.2805 85.9735 57.7503 85.9735C57.2201 85.9735 56.702 86.1033 56.2627 86.3464C55.8235 86.5894 55.4832 86.9344 55.2856 87.3371L50.8024 96.309L46.3405 87.3371C46.1289 86.9599 45.7897 86.6401 45.3631 86.4156C43.5463 83.5016 40.8662 81.0065 37.5676 79.1585C34.269 77.3104 30.4571 76.1681 26.4802 75.8361C22.5032 75.5041 18.488 75.9929 14.8013 77.2578C11.1146 78.5227 7.87403 80.5234 5.3756 83.0772V62.6644H50.335C50.4625 62.6644 50.5687 62.6644 50.6749 62.6644H50.8237H51.1849H51.4186C51.646 62.5749 51.8599 62.4641 52.056 62.3341C52.4217 62.1198 52.7143 61.8325 52.9059 61.4995L57.3466 52.6493ZM16.9767 31.3324C18.923 32.4642 20.6494 33.83 22.0973 35.3837L44.8532 58.3176H5.3756V28.1679C6.9904 28.3592 8.9664 28.6026 10.5387 28.8982C12.8309 29.3459 14.9861 30.1744 16.8704 31.3324H16.9767Z" fill="#ECEEEF"/>
<path d="M24.095 101.942C28.5776 101.942 32.2115 98.9684 32.2115 95.3002C32.2115 91.6319 28.5776 88.6582 24.095 88.6582C19.6124 88.6582 15.9785 91.6319 15.9785 95.3002C15.9785 98.9684 19.6124 101.942 24.095 101.942Z" fill="#ECEEEF"/>
<path d="M145.97 101.942C150.453 101.942 154.087 98.9684 154.087 95.3002C154.087 91.6319 150.453 88.6582 145.97 88.6582C141.487 88.6582 137.854 91.6319 137.854 95.3002C137.854 98.9684 141.487 101.942 145.97 101.942Z" fill="#ECEEEF"/>
<path d="M170 34.3577V34.0969V25.6814C169.994 25.1064 169.713 24.5562 169.216 24.1496C168.719 23.743 168.047 23.5125 167.344 23.508H155.955C152.457 23.4997 148.968 23.7911 145.544 24.3774C142.601 24.9118 139.843 25.9818 137.474 27.5079C135.105 29.034 133.187 30.977 131.861 33.1927V33.3318L125.125 46.5636L119.856 55.1182L115.16 46.0246C114.956 45.6326 114.616 45.2982 114.181 45.0633C113.747 44.8283 113.238 44.703 112.717 44.703C112.196 44.703 111.687 44.8283 111.252 45.0633C110.818 45.2982 110.478 45.6326 110.273 46.0246L105.769 54.7183L101.328 46.0246C101.124 45.6257 100.777 45.2863 100.334 45.0506C99.8907 44.815 99.371 44.6939 98.8424 44.7032C98.3126 44.7111 97.7976 44.8475 97.3627 45.0952C96.9277 45.3428 96.5923 45.6905 96.399 46.0942L90.2797 59.0477C89.5976 60.4359 89.2373 61.9159 89.2174 63.412V101.49C89.2174 101.595 89.2174 101.682 89.2174 101.786C89.1103 102.313 89.2459 102.853 89.5977 103.303C89.9496 103.752 90.4928 104.079 91.1222 104.219C91.7515 104.36 92.4223 104.305 93.0046 104.064C93.5869 103.823 94.0393 103.414 94.2742 102.916L98.7362 93.9268L103.219 102.916C103.425 103.312 103.768 103.65 104.206 103.887C104.644 104.125 105.158 104.252 105.684 104.252C106.21 104.252 106.724 104.125 107.162 103.887C107.6 103.65 107.944 103.312 108.149 102.916L112.611 93.9268L117.115 102.916C117.316 103.313 117.656 103.653 118.093 103.892C118.53 104.131 119.044 104.258 119.569 104.258C120.095 104.258 120.608 104.131 121.045 103.892C121.482 103.653 121.822 103.313 122.023 102.916L122.979 101.003C124.638 105.51 128.221 109.378 133.073 111.904C137.926 114.43 143.726 115.445 149.417 114.765C155.108 114.084 160.31 111.753 164.077 108.196C167.843 104.639 169.922 100.094 169.936 95.3873V34.3577H170ZM145.948 110.653C142.897 110.648 139.895 110.03 137.204 108.854C134.513 107.678 132.215 105.98 130.512 103.909C128.81 101.837 127.753 99.4559 127.437 96.973C127.12 94.49 127.552 91.9814 128.695 89.6669L128.886 89.2844C130.231 86.7602 132.386 84.5808 135.122 82.9771C137.857 81.3734 141.072 80.4051 144.425 80.1747C147.779 79.9444 151.146 80.4606 154.17 81.6688C157.194 82.8769 159.762 84.7318 161.603 87.0372C163.444 89.3425 164.488 92.0124 164.625 94.7639C164.763 97.5154 163.988 100.246 162.384 102.667C160.779 105.087 158.404 107.108 155.511 108.514C152.617 109.92 149.313 110.659 145.948 110.653ZM149.199 39.0697C149.717 38.3022 150.478 37.6621 151.4 37.2158C152.323 36.7694 153.375 36.5331 154.447 36.5311H164.709V58.1958H139.212L149.199 39.0697ZM119.622 96.4479L115.139 87.337C114.934 86.9422 114.59 86.6061 114.151 86.3709C113.713 86.1357 113.199 86.0121 112.674 86.0155C112.148 86.0161 111.634 86.1455 111.199 86.3872C110.763 86.629 110.426 86.9719 110.231 87.3717L105.748 96.361L101.328 87.337C101.119 86.9338 100.765 86.5919 100.314 86.3561C99.8628 86.1203 99.335 86.0016 98.7999 86.0155C98.2737 86.0161 97.7597 86.1455 97.3242 86.3872C96.8887 86.629 96.5517 86.9719 96.3565 87.3717L94.5292 91.0231V63.412C94.5289 62.4603 94.745 61.5169 95.1666 60.63L98.9274 52.684L103.326 61.169C103.532 61.5597 103.873 61.8927 104.307 62.1274C104.741 62.3621 105.249 62.4882 105.769 62.4904C106.293 62.4913 106.805 62.3644 107.24 62.1259C107.675 61.8875 108.014 61.5483 108.212 61.1516L112.717 52.4579L117.2 61.1516C117.397 61.535 117.724 61.8645 118.142 62.1015C118.559 62.3386 119.051 62.4735 119.559 62.4904C120.066 62.5002 120.566 62.3929 121.002 62.1807C121.438 61.9685 121.792 61.66 122.023 61.2907L129.927 48.4588V48.3197L136.556 35.1054C137.545 33.4776 138.967 32.0518 140.717 30.9325C142.467 29.8132 144.501 29.029 146.67 28.6373C149.726 28.1285 152.837 27.8722 155.955 27.8722H164.688V32.1147H154.447C152.432 32.1126 150.453 32.5496 148.712 33.3808C146.972 34.2119 145.534 35.4073 144.545 36.8441L144.418 37.0701L132.668 59.6041C132.49 59.9344 132.417 60.2959 132.454 60.6555C132.491 61.0151 132.638 61.3614 132.881 61.6625C133.124 61.9635 133.456 62.2099 133.846 62.3788C134.235 62.5478 134.671 62.634 135.112 62.6295H164.688V83.0771C162.124 80.4866 158.795 78.4741 155.016 77.23C151.237 75.9858 147.132 75.5513 143.091 75.9673C139.049 76.3833 135.204 77.6363 131.919 79.6075C128.634 81.5788 126.018 84.2033 124.318 87.2327V87.337L124.19 87.5978L123.999 87.9629L119.622 96.4479Z" fill="#ECEEEF"/>
<path d="M86.6684 8.798C87.6458 8.24161 89.1969 7.65044 90.7479 6.76368C91.5767 6.29197 92.2962 5.70319 92.8727 5.02495C93.5582 4.17925 93.9274 3.18826 93.935 2.17342C93.935 1.59699 93.6552 1.04418 93.1571 0.63658C92.659 0.228985 91.9835 0 91.2791 0C90.5747 0 89.8992 0.228985 89.4011 0.63658C88.903 1.04418 88.6232 1.59699 88.6232 2.17342C88.6456 2.3019 88.631 2.43287 88.5807 2.55594C88.3058 2.90529 87.9346 3.19708 87.4971 3.40792C86.5197 3.96432 84.9686 4.55549 83.4176 5.44224C82.5888 5.91395 81.8693 6.50273 81.2929 7.18098C80.6019 8.02365 80.239 9.01777 80.2517 10.0325C80.228 10.8234 80.4472 11.6066 80.8892 12.3102C81.5452 13.2941 82.4956 14.1257 83.6513 14.7271C85.1811 15.5791 86.7109 16.1529 87.6458 16.7266C87.9778 16.907 88.272 17.1301 88.517 17.3874C88.6292 17.5201 88.6886 17.678 88.6869 17.8394C88.7168 17.9541 88.7168 18.0725 88.6869 18.1872C88.4247 18.5449 88.0506 18.839 87.6033 19.0392C86.6259 19.6129 85.0749 20.1867 83.5451 21.0735C82.7133 21.5422 81.9932 22.1315 81.4203 22.8122C80.7294 23.6549 80.3664 24.649 80.3792 25.6637C80.3555 26.4547 80.5747 27.2378 81.0166 27.9415C81.6756 28.9635 82.6498 29.8266 83.8425 30.4453C85.3723 31.2972 86.9022 31.871 87.837 32.4274C88.1712 32.6125 88.4655 32.8417 88.7082 33.1055C88.8215 33.2313 88.8812 33.384 88.8782 33.5402C88.908 33.6548 88.908 33.7733 88.8782 33.888C88.6159 34.2457 88.2418 34.5398 87.7945 34.7399C86.8172 35.3137 85.2661 35.8875 83.7363 36.7743C82.9089 37.2474 82.1897 37.8359 81.6116 38.513C80.9206 39.3557 80.5577 40.3498 80.5704 41.3645C80.5704 41.9409 80.8503 42.4938 81.3483 42.9014C81.8464 43.309 82.522 43.5379 83.2264 43.5379C83.9308 43.5379 84.6063 43.309 85.1044 42.9014C85.6025 42.4938 85.8823 41.9409 85.8823 41.3645C85.8439 41.2566 85.8439 41.142 85.8823 41.0342C86.1445 40.6764 86.5186 40.3823 86.9659 40.1822C87.9433 39.6084 89.4943 39.0346 91.0241 38.1479C91.8559 37.6791 92.576 37.0898 93.1489 36.4091C93.8384 35.5585 94.2078 34.561 94.2112 33.5402C94.2154 32.7545 93.9895 31.9795 93.5526 31.2799C92.8936 30.2579 91.9194 29.3947 90.7267 28.7761C89.1969 27.9241 87.6671 27.3503 86.7322 26.7939C86.404 26.6028 86.1107 26.3745 85.861 26.1158C85.7438 25.9857 85.6907 25.8244 85.7123 25.6637C85.6762 25.5556 85.6762 25.4415 85.7123 25.3334C85.9813 24.9801 86.3538 24.6873 86.7959 24.4814C87.7733 23.9076 89.3244 23.3338 90.8754 22.4471C91.6943 21.9657 92.412 21.3785 93.0001 20.7083C93.6897 19.8577 94.059 18.8602 94.0625 17.8394C94.0667 17.0482 93.841 16.2675 93.4038 15.5617C92.7385 14.5434 91.7656 13.6814 90.5779 13.0579C89.0481 12.2059 87.5183 11.6321 86.5834 11.0757C86.2493 10.8906 85.9549 10.6615 85.7123 10.3976C85.5951 10.2676 85.542 10.1062 85.5636 9.94557C85.5246 9.83185 85.5246 9.71154 85.5636 9.59782C85.8579 9.26975 86.2346 8.99703 86.6684 8.798Z" fill="#ECEEEF"/>
</svg>
