<svg width="14" height="6" viewBox="0 0 14 6" fill="none" xmlns="http://www.w3.org/2000/svg">
<path d="M0.939065 0.272709C1.00763 0.272865 1.07417 0.2959 1.12816 0.338164L6.99967 5.03635L12.8785 0.338163C12.9103 0.313331 12.9467 0.295013 12.9856 0.284254C13.0245 0.273495 13.0652 0.270507 13.1053 0.275459C13.1453 0.280412 13.184 0.293209 13.2192 0.313118C13.2543 0.333027 13.2851 0.359661 13.31 0.391496C13.3348 0.423332 13.3531 0.459746 13.3639 0.498661C13.3746 0.537576 13.3776 0.578229 13.3727 0.618299C13.3677 0.658369 13.3549 0.697071 13.335 0.732195C13.3151 0.76732 13.2885 0.798179 13.2566 0.823011L7.19604 5.6715C7.14216 5.71397 7.07555 5.73706 7.00694 5.73706C6.93834 5.73706 6.87173 5.71397 6.81785 5.6715L0.757247 0.823012C0.70785 0.7839 0.671872 0.730364 0.65432 0.669851C0.636768 0.609338 0.638515 0.54486 0.659318 0.485386C0.68012 0.425913 0.718944 0.374401 0.770386 0.338021C0.821829 0.301642 0.883332 0.282202 0.946338 0.282406L0.939065 0.272709Z" fill="#23366F"/>
</svg>
