<svg width="14" height="6" viewBox="0 0 14 6" fill="none" xmlns="http://www.w3.org/2000/svg">
<path d="M0.939065 5.72729C1.00763 5.72714 1.07417 5.7041 1.12816 5.66184L6.99967 0.963655L12.8785 5.66184C12.9103 5.68667 12.9467 5.70499 12.9856 5.71575C13.0245 5.7265 13.0652 5.72949 13.1053 5.72454C13.1453 5.71959 13.184 5.70679 13.2192 5.68688C13.2543 5.66697 13.2851 5.64034 13.31 5.6085C13.3348 5.57667 13.3531 5.54025 13.3639 5.50134C13.3746 5.46242 13.3776 5.42177 13.3727 5.3817C13.3677 5.34163 13.3549 5.30293 13.335 5.2678C13.3151 5.23268 13.2885 5.20182 13.2566 5.17699L7.19604 0.328504C7.14216 0.286034 7.07555 0.262939 7.00694 0.262939C6.93834 0.262939 6.87173 0.286034 6.81785 0.328504L0.757247 5.17699C0.70785 5.2161 0.671872 5.26964 0.65432 5.33015C0.636768 5.39066 0.638515 5.45514 0.659318 5.51461C0.68012 5.57409 0.718944 5.6256 0.770386 5.66198C0.821829 5.69836 0.883332 5.7178 0.946338 5.71759L0.939065 5.72729Z" fill="#0476BD"/>
</svg>
