<svg width="11" height="38" viewBox="0 0 11 38" fill="none" xmlns="http://www.w3.org/2000/svg">
<path d="M10.1123 37.6912C10.0229 37.6937 9.93437 37.6652 9.85347 37.6079C9.77256 37.5507 9.70148 37.4661 9.64572 37.3609L0.313694 19.7932C0.231952 19.637 0.1875 19.4439 0.1875 19.2451C0.1875 19.0462 0.231952 18.8531 0.313694 18.697L9.64572 1.12922C9.74224 0.942848 9.88397 0.821858 10.0397 0.792866C10.1955 0.763874 10.3525 0.829253 10.4763 0.974622C10.6 1.11999 10.6804 1.33344 10.6996 1.56802C10.7189 1.80259 10.6754 2.03908 10.5789 2.22545L1.52686 19.2451L10.5696 36.2647C10.6652 36.4479 10.7091 36.6804 10.6916 36.9119C10.6741 37.1435 10.5967 37.3553 10.4763 37.5015C10.3724 37.624 10.2443 37.6907 10.1123 37.6912Z" fill="#23366F"/>
</svg>
