<svg width="36" height="36" viewBox="0 0 36 36" fill="none" xmlns="http://www.w3.org/2000/svg">
<g clip-path="url(#clip0)" filter="url(#filter0_d)">
<circle cx="18" cy="16" r="16" fill="white"/>
<path d="M17.9853 0C14.8237 0 11.7331 0.937522 9.10435 2.69401C6.47558 4.4505 4.42671 6.94706 3.21682 9.86799C2.00693 12.7889 1.69036 16.003 2.30716 19.1039C2.92396 22.2047 4.44641 25.053 6.682 27.2886C8.91758 29.5242 11.7659 31.0467 14.8667 31.6635C17.9676 32.2802 21.1817 31.9637 24.1026 30.7538C27.0236 29.5439 29.5201 27.495 31.2766 24.8663C33.0331 22.2375 33.9706 19.1469 33.9706 15.9853C33.9706 11.7457 32.2865 7.67981 29.2886 4.68199C26.2908 1.68416 22.2249 0 17.9853 0ZM16.4867 25.9137C16.4867 26.0462 16.4341 26.1732 16.3404 26.2669C16.2467 26.3606 16.1196 26.4132 15.9872 26.4132C15.8547 26.4132 15.7276 26.3606 15.6339 26.2669C15.5402 26.1732 15.4876 26.0462 15.4876 25.9137V19.1824L8.35017 26.3278C8.25517 26.4212 8.12771 26.4742 7.9945 26.4757C7.89617 26.474 7.80049 26.4435 7.71927 26.3881C7.63804 26.3327 7.57483 26.2546 7.53743 26.1637C7.50003 26.0727 7.49008 25.9728 7.50881 25.8763C7.52754 25.7798 7.57412 25.6908 7.64282 25.6204L14.7803 18.471H8.04895C7.91646 18.471 7.7894 18.4184 7.69572 18.3247C7.60204 18.231 7.54941 18.104 7.54941 17.9715C7.54941 17.839 7.60204 17.7119 7.69572 17.6182C7.7894 17.5246 7.91646 17.4719 8.04895 17.4719H15.9792C16.0452 17.4717 16.1105 17.4853 16.171 17.5119C16.2312 17.5364 16.2859 17.5727 16.3319 17.6187C16.3779 17.6647 16.4142 17.7194 16.4387 17.7797C16.4657 17.84 16.4793 17.9054 16.4787 17.9715L16.4867 25.9137ZM27.9137 14.4707H20.0115H19.9835C19.852 14.4697 19.7261 14.4173 19.6328 14.3247C19.5394 14.2321 19.486 14.1066 19.4839 13.9752V6.04494C19.4839 5.91246 19.5366 5.7854 19.6303 5.69171C19.7239 5.59803 19.851 5.5454 19.9835 5.5454C20.116 5.5454 20.243 5.59803 20.3367 5.69171C20.4304 5.7854 20.483 5.91246 20.483 6.04494V12.7763L27.6245 5.62283C27.7177 5.52956 27.8442 5.47716 27.9761 5.47716C28.108 5.47716 28.2345 5.52956 28.3278 5.62283C28.4211 5.7161 28.4735 5.8426 28.4735 5.97451C28.4735 6.10641 28.4211 6.23291 28.3278 6.32618L21.1944 13.4716H27.9257C28.0582 13.4716 28.1852 13.5242 28.2789 13.6179C28.3726 13.7116 28.4252 13.8387 28.4252 13.9712C28.4252 14.1036 28.3726 14.2307 28.2789 14.3244C28.1852 14.4181 28.0582 14.4707 27.9257 14.4707H27.9137Z" fill="#5495CF"/>
</g>
<defs>
<filter id="filter0_d" x="0" y="0" width="36" height="36" filterUnits="userSpaceOnUse" color-interpolation-filters="sRGB">
<feFlood flood-opacity="0" result="BackgroundImageFix"/>
<feColorMatrix in="SourceAlpha" type="matrix" values="0 0 0 0 0 0 0 0 0 0 0 0 0 0 0 0 0 0 127 0"/>
<feOffset dy="2"/>
<feGaussianBlur stdDeviation="1"/>
<feColorMatrix type="matrix" values="0 0 0 0 0 0 0 0 0 0 0 0 0 0 0 0 0 0 0.25 0"/>
<feBlend mode="normal" in2="BackgroundImageFix" result="effect1_dropShadow"/>
<feBlend mode="normal" in="SourceGraphic" in2="effect1_dropShadow" result="shape"/>
</filter>
<clipPath id="clip0">
<rect width="32" height="32" fill="white" transform="translate(2)"/>
</clipPath>
</defs>
</svg>
