<svg width="12" height="38" viewBox="0 0 12 38" fill="none" xmlns="http://www.w3.org/2000/svg">
<path d="M1.09276 37.6912C1.18214 37.6937 1.2707 37.6652 1.35161 37.6079C1.43251 37.5507 1.50359 37.4661 1.55936 37.3609L10.8914 19.7932C10.9731 19.637 11.0176 19.4439 11.0176 19.2451C11.0176 19.0462 10.9731 18.8531 10.8914 18.697L1.55936 1.12922C1.46284 0.942848 1.32111 0.821858 1.16535 0.792866C1.00959 0.763874 0.852563 0.829253 0.728812 0.974622C0.605062 1.11999 0.524723 1.33344 0.505472 1.56802C0.486221 1.80259 0.529634 2.03908 0.62616 2.22545L9.67822 19.2451L0.635491 36.2647C0.53986 36.4479 0.496025 36.6804 0.513494 36.9119C0.530964 37.1435 0.608329 37.3553 0.728812 37.5015C0.832718 37.624 0.960801 37.6907 1.09276 37.6912Z" fill="#23366F"/>
</svg>
