<svg width="42" height="42" viewBox="0 0 42 42" fill="none" xmlns="http://www.w3.org/2000/svg">
<path fill-rule="evenodd" clip-rule="evenodd" d="M1 34.9187C1 34.5526 1.28885 34.2559 1.64516 34.2559H40.3548C40.7112 34.2559 41 34.5526 41 34.9187C41 35.2847 40.7112 35.5815 40.3548 35.5815H1.64516C1.28885 35.5815 1 35.2847 1 34.9187Z" fill="#23366F"/>
<path fill-rule="evenodd" clip-rule="evenodd" d="M6.16016 39.3366C6.16016 38.9706 6.449 38.6738 6.80532 38.6738L35.1924 38.6738C35.5487 38.6738 35.8376 38.9706 35.8376 39.3366C35.8376 39.7027 35.5487 39.9995 35.1924 39.9995L6.80532 39.9995C6.449 39.9995 6.16016 39.7027 6.16016 39.3366Z" fill="#23366F"/>
<path fill-rule="evenodd" clip-rule="evenodd" d="M5.51235 17.4609C5.86866 17.4609 6.15751 17.7577 6.15751 18.1238V31.38C6.15751 31.7461 5.86866 32.0428 5.51235 32.0428C5.15604 32.0428 4.86719 31.7461 4.86719 31.38V18.1238C4.86719 17.7577 5.15604 17.4609 5.51235 17.4609Z" fill="#23366F"/>
<path fill-rule="evenodd" clip-rule="evenodd" d="M36.485 17.4609C36.8413 17.4609 37.1302 17.7577 37.1302 18.1238V31.38C37.1302 31.7461 36.8413 32.0428 36.485 32.0428C36.1287 32.0428 35.8398 31.7461 35.8398 31.38V18.1238C35.8398 17.7577 36.1287 17.4609 36.485 17.4609Z" fill="#23366F"/>
<path d="M9.34766 28.7328C9.07151 28.7328 8.84766 28.5089 8.84766 28.2328V19.9004C8.84766 19.6242 9.07151 19.4004 9.34766 19.4004H14.5186C14.7859 19.4004 15.0025 19.617 15.0025 19.8842C15.0025 20.1515 14.7859 20.3681 14.5186 20.3681H9.89282V23.4833H14.0029C14.2628 23.4833 14.4735 23.694 14.4735 23.9539C14.4735 24.2138 14.2628 24.4245 14.0029 24.4245H9.89282V27.7651H14.5186C14.7859 27.7651 15.0025 27.9817 15.0025 28.2489C15.0025 28.5162 14.7859 28.7328 14.5186 28.7328H9.34766Z" fill="#23366F"/>
<path d="M19.0513 28.7328C18.7752 28.7328 18.5513 28.5089 18.5513 28.2328V19.9004C18.5513 19.6242 18.7752 19.4004 19.0513 19.4004H24.132C24.3992 19.4004 24.6159 19.617 24.6159 19.8842C24.6159 20.1515 24.3992 20.3681 24.132 20.3681H19.5965V23.6689H23.6096C23.8732 23.6689 24.0868 23.8826 24.0868 24.1461C24.0868 24.4097 23.8732 24.6234 23.6096 24.6234H19.5965V28.2328C19.5965 28.5089 19.3726 28.7328 19.0965 28.7328H19.0513Z" fill="#23366F"/>
<path d="M30.4787 28.7328C30.2026 28.7328 29.9787 28.5089 29.9787 28.2328V20.3681H27.4303C27.1631 20.3681 26.9465 20.1515 26.9465 19.8842C26.9465 19.617 27.1631 19.4004 27.4303 19.4004H33.5723C33.8395 19.4004 34.0561 19.617 34.0561 19.8842C34.0561 20.1515 33.8395 20.3681 33.5723 20.3681H31.0239V28.2328C31.0239 28.5089 30.8 28.7328 30.5239 28.7328H30.4787Z" fill="#23366F"/>
<path fill-rule="evenodd" clip-rule="evenodd" d="M8.74805 28.2332V19.9008C8.74805 19.5694 9.01668 19.3008 9.34805 19.3008H14.519C14.8415 19.3008 15.1029 19.5622 15.1029 19.8846C15.1029 20.2071 14.8415 20.4685 14.519 20.4685H9.99321V23.3837H14.0033C14.3184 23.3837 14.5739 23.6392 14.5739 23.9543C14.5739 24.2694 14.3184 24.5249 14.0033 24.5249H9.99321V27.6655H14.519C14.8415 27.6655 15.1029 27.9269 15.1029 28.2493C15.1029 28.5718 14.8415 28.8332 14.519 28.8332H9.34805C9.01668 28.8332 8.74805 28.5646 8.74805 28.2332ZM14.519 27.7655C14.7863 27.7655 15.0029 27.9821 15.0029 28.2493C15.0029 28.5166 14.7863 28.7332 14.519 28.7332H9.34805C9.0719 28.7332 8.84805 28.5093 8.84805 28.2332V19.9008C8.84805 19.6246 9.0719 19.4008 9.34805 19.4008H14.519C14.7863 19.4008 15.0029 19.6174 15.0029 19.8846C15.0029 20.1519 14.7863 20.3685 14.519 20.3685H9.89321V23.4837H14.0033C14.2632 23.4837 14.4739 23.6944 14.4739 23.9543C14.4739 24.2142 14.2632 24.4249 14.0033 24.4249H9.89321V27.7655H14.519ZM18.4517 28.2332V19.9008C18.4517 19.5694 18.7204 19.3008 19.0517 19.3008H24.1324C24.4548 19.3008 24.7162 19.5622 24.7162 19.8846C24.7162 20.2071 24.4548 20.4685 24.1324 20.4685H19.6969V23.5693H23.61C23.9288 23.5693 24.1872 23.8277 24.1872 24.1465C24.1872 24.4653 23.9288 24.7237 23.61 24.7237H19.6969V28.2332C19.6969 28.5646 19.4283 28.8332 19.0969 28.8332H19.0517C18.7204 28.8332 18.4517 28.5646 18.4517 28.2332ZM19.5969 28.2332C19.5969 28.5093 19.373 28.7332 19.0969 28.7332H19.0517C18.7756 28.7332 18.5517 28.5093 18.5517 28.2332V19.9008C18.5517 19.6246 18.7756 19.4008 19.0517 19.4008H24.1324C24.3996 19.4008 24.6162 19.6174 24.6162 19.8846C24.6162 20.1519 24.3996 20.3685 24.1324 20.3685H19.5969V23.6693H23.61C23.8736 23.6693 24.0872 23.883 24.0872 24.1465C24.0872 24.4101 23.8736 24.6237 23.61 24.6237H19.5969V28.2332ZM27.4307 20.3685C27.1635 20.3685 26.9468 20.1519 26.9468 19.8846C26.9468 19.6174 27.1635 19.4008 27.4307 19.4008H33.5727C33.8399 19.4008 34.0565 19.6174 34.0565 19.8846C34.0565 20.1519 33.8399 20.3685 33.5727 20.3685H31.0243V28.2332C31.0243 28.5093 30.8004 28.7332 30.5243 28.7332H30.4791C30.203 28.7332 29.9791 28.5093 29.9791 28.2332V20.3685H27.4307ZM29.8791 20.4685H27.4307C27.1082 20.4685 26.8468 20.2071 26.8468 19.8846C26.8468 19.5622 27.1082 19.3008 27.4307 19.3008H33.5727C33.8951 19.3008 34.1565 19.5622 34.1565 19.8846C34.1565 20.2071 33.8951 20.4685 33.5727 20.4685H31.1243V28.2332C31.1243 28.5646 30.8556 28.8332 30.5243 28.8332H30.4791C30.1477 28.8332 29.8791 28.5646 29.8791 28.2332V20.4685Z" fill="#23366F"/>
<path fill-rule="evenodd" clip-rule="evenodd" d="M20.2849 2.10075C20.4941 1.96642 20.7596 1.96642 20.9688 2.10075L38.1731 13.1476C38.4172 13.3043 38.5307 13.6082 38.4513 13.8924C38.372 14.1767 38.119 14.3725 37.8312 14.3725H3.42256C3.13475 14.3725 2.88174 14.1767 2.8024 13.8924C2.72305 13.6082 2.83656 13.3043 3.08062 13.1476L20.2849 2.10075ZM5.6721 13.0469H35.5816L20.6269 3.44443L5.6721 13.0469Z" fill="#23366F"/>
<path fill-rule="evenodd" clip-rule="evenodd" d="M23.224 8.64978C23.224 10.1628 22.0301 11.3894 20.5573 11.3894C19.0845 11.3894 17.8906 10.1628 17.8906 8.64978C17.8906 7.13673 19.0845 5.91016 20.5573 5.91016C22.0301 5.91016 23.224 7.13673 23.224 8.64978ZM20.5573 10.4762C21.5391 10.4762 22.3351 9.65849 22.3351 8.64978C22.3351 7.64108 21.5391 6.82337 20.5573 6.82337C19.5755 6.82337 18.7795 7.64108 18.7795 8.64978C18.7795 9.65849 19.5755 10.4762 20.5573 10.4762Z" fill="#23366F"/>
</svg>
