<svg width="32" height="32" viewBox="0 0 32 32" fill="none" xmlns="http://www.w3.org/2000/svg">
<path d="M23.2723 18.4238H18.4238V27.1511H23.2723V18.4238Z" fill="#ECEEEF"/>
<path d="M27.1516 14.3046V27.1517H24.2425V17.9395C24.2425 17.8759 24.23 17.8128 24.2056 17.754C24.1813 17.6952 24.1456 17.6417 24.1005 17.5967C24.0555 17.5517 24.0021 17.5159 23.9432 17.4916C23.8844 17.4672 23.8214 17.4547 23.7577 17.4547H17.9395C17.8758 17.4547 17.8128 17.4672 17.754 17.4916C17.6951 17.5159 17.6417 17.5517 17.5967 17.5967C17.5516 17.6417 17.5159 17.6952 17.4916 17.754C17.4672 17.8128 17.4547 17.8759 17.4547 17.9395V27.1517H4.8486V14.0469C4.59936 14.1518 4.33123 14.2044 4.06082 14.2014C3.99823 14.2014 3.93838 14.1972 3.87891 14.1925V27.6365C3.8789 27.7002 3.89144 27.7632 3.9158 27.8221C3.94017 27.8809 3.97588 27.9343 4.0209 27.9794C4.06593 28.0244 4.11938 28.0601 4.17821 28.0845C4.23703 28.1088 4.30008 28.1214 4.36375 28.1213H27.6365C27.7002 28.1214 27.7632 28.1088 27.822 28.0845C27.8809 28.0601 27.9343 28.0244 27.9793 27.9794C28.0244 27.9343 28.0601 27.8809 28.0844 27.8221C28.1088 27.7632 28.1213 27.7002 28.1213 27.6365V14.0584C27.8322 14.2408 27.4928 14.327 27.1516 14.3046ZM23.2728 27.1517H18.4244V18.4244H23.2728V27.1517Z" fill="#5495CF"/>
<path d="M30.0569 12.1383C30.0601 12.0806 30.0529 12.0229 30.0357 11.9678L28.0963 6.14982C28.0641 6.05329 28.0024 5.96933 27.9199 5.90984C27.8373 5.85035 27.7382 5.81834 27.6364 5.81836H4.3637C4.26196 5.81834 4.1628 5.85035 4.08026 5.90983C3.99773 5.96932 3.93601 6.05328 3.90385 6.1498L1.96445 11.9678C1.9472 12.0229 1.94 12.0806 1.94319 12.1382H1.93946C1.93881 12.6474 2.09871 13.1439 2.39643 13.5569C2.69414 13.97 3.11451 14.2787 3.59776 14.4392C4.081 14.5996 4.60253 14.6036 5.08818 14.4506C5.57384 14.2976 5.99889 13.9954 6.3029 13.5869C6.52761 13.8896 6.82007 14.1355 7.15686 14.3049C7.49365 14.4743 7.86543 14.5625 8.24243 14.5625C8.61943 14.5624 8.99118 14.4741 9.32793 14.3046C9.66468 14.1351 9.95706 13.8891 10.1817 13.5864C10.4063 13.8892 10.6987 14.1352 11.0355 14.3047C11.3723 14.4742 11.7441 14.5625 12.1211 14.5625C12.4981 14.5625 12.8699 14.4743 13.2067 14.3048C13.5435 14.1354 13.836 13.8894 14.0607 13.5866C14.2853 13.8894 14.5778 14.1353 14.9145 14.3048C15.2513 14.4742 15.6231 14.5625 16.0001 14.5625C16.3771 14.5625 16.7488 14.4742 17.0856 14.3048C17.4224 14.1353 17.7148 13.8894 17.9395 13.5866C18.1641 13.8894 18.4565 14.1353 18.7933 14.3048C19.1301 14.4742 19.5019 14.5625 19.8789 14.5625C20.2559 14.5625 20.6276 14.4742 20.9644 14.3048C21.3012 14.1353 21.5936 13.8894 21.8182 13.5866C22.0429 13.8894 22.3353 14.1353 22.6721 14.3048C23.0089 14.4742 23.3806 14.5625 23.7576 14.5625C24.1346 14.5625 24.5064 14.4742 24.8432 14.3048C25.1799 14.1353 25.4724 13.8894 25.697 13.5866C26.001 13.9952 26.426 14.2975 26.9117 14.4505C27.3974 14.6036 27.9189 14.5996 28.4022 14.4392C28.8855 14.2788 29.3059 13.9701 29.6036 13.557C29.9014 13.1439 30.0613 12.6475 30.0607 12.1383H30.0569ZM27.6364 13.5928C27.3336 13.5918 27.0387 13.4961 26.793 13.3192C26.5473 13.1422 26.363 12.8929 26.266 12.606H29.0069C28.9099 12.8929 28.7256 13.1422 28.4799 13.3192C28.2341 13.4961 27.9392 13.5918 27.6364 13.5928ZM23.7576 13.5928C23.4548 13.5918 23.1599 13.4961 22.9142 13.3192C22.6685 13.1422 22.4842 12.8929 22.3872 12.606H25.1281C25.0311 12.8929 24.8468 13.1422 24.6011 13.3192C24.3554 13.4961 24.0604 13.5918 23.7576 13.5928ZM18.5084 12.606H21.2493C21.1532 12.8935 20.9692 13.1434 20.7232 13.3204C20.4773 13.4975 20.1819 13.5928 19.8789 13.5928C19.5758 13.5928 19.2804 13.4975 19.0345 13.3204C18.7886 13.1434 18.6045 12.8935 18.5084 12.606ZM16.0001 13.5928C15.6973 13.5918 15.4024 13.4961 15.1566 13.3192C14.9109 13.1422 14.7266 12.8929 14.6296 12.606H17.3705C17.2735 12.8929 17.0892 13.1422 16.8435 13.3192C16.5978 13.4961 16.3029 13.5918 16.0001 13.5928ZM10.7508 12.606H13.4917C13.3956 12.8935 13.2116 13.1434 12.9656 13.3204C12.7197 13.4975 12.4243 13.5928 12.1213 13.5928C11.8182 13.5928 11.5228 13.4975 11.2769 13.3204C11.031 13.1434 10.8469 12.8935 10.7508 12.606ZM6.87164 12.606H9.61256C9.51644 12.8935 9.3324 13.1434 9.08647 13.3204C8.84053 13.4975 8.54515 13.5928 8.2421 13.5928C7.93905 13.5928 7.64367 13.4975 7.39774 13.3204C7.1518 13.1434 6.96776 12.8935 6.87164 12.606ZM4.3637 13.5928C4.06089 13.5918 3.76599 13.4961 3.52025 13.3192C3.27452 13.1422 3.09025 12.8929 2.99324 12.606H5.73415C5.63714 12.8929 5.45288 13.1422 5.20714 13.3192C4.96141 13.4961 4.6665 13.5918 4.3637 13.5928ZM4.71332 6.78808H27.2868L28.9031 11.6364H3.09703L4.71332 6.78808Z" fill="#5495CF"/>
</svg>
