<svg width="152" height="97" viewBox="0 0 152 97" fill="none" xmlns="http://www.w3.org/2000/svg">
<path d="M34.1865 12.5527H17.9746V24.5729H34.1865V12.5527Z" fill="#ECEEEF"/>
<path d="M60.8877 12.5527H44.6758V24.5729H60.8877V12.5527Z" fill="#ECEEEF"/>
<path d="M33.8818 32.5752H17.6699V44.5953H33.8818V32.5752Z" fill="#ECEEEF"/>
<path d="M60.8877 32.5752H44.6758V44.5953H60.8877V32.5752Z" fill="#ECEEEF"/>
<path d="M34.4912 51.4365H18.2793V63.4566H34.4912V51.4365Z" fill="#ECEEEF"/>
<path d="M61.1924 51.4365H44.9805V63.4566H61.1924V51.4365Z" fill="#ECEEEF"/>
<path d="M34.1865 71.4434H17.9746V83.4635H34.1865V71.4434Z" fill="#ECEEEF"/>
<path d="M61.1924 71.4434H44.9805V83.4635H61.1924V71.4434Z" fill="#ECEEEF"/>
<path d="M150.673 38.7387C150.429 38.6187 150.155 38.5364 149.867 38.4967L78.8616 26.9928V2.0168C78.8583 1.7411 78.7795 1.46876 78.6299 1.21635C78.4802 0.963945 78.2629 0.736744 77.9911 0.548568C77.4836 0.196454 76.8147 0.000380403 76.1197 0H2.72011C2.0009 0.00506394 1.31316 0.219459 0.805154 0.596973C0.550105 0.781909 0.347491 1.00278 0.209222 1.24661C0.0709529 1.49044 -0.000180945 1.7523 3.45654e-07 2.0168V94.9832C0.00568962 95.5168 0.294098 96.0273 0.80299 96.4046C1.31188 96.7819 2.00045 96.9958 2.72011 97H149.28C149.637 97.0001 149.99 96.9474 150.319 96.8449C150.648 96.7424 150.945 96.5921 151.195 96.403C151.704 96.0264 151.993 95.5165 152 94.9832V40.4812C151.994 40.1315 151.869 39.7885 151.637 39.4839C151.405 39.1793 151.074 38.923 150.673 38.7387ZM5.44023 4.00133H73.4213V92.9664H5.44023V4.00133ZM146.56 92.9664H78.8616V31.1555L146.56 42.0946V92.9664Z" fill="#ECEEEF"/>
<path d="M107.761 51.4365H91.5488V63.4566H107.761V51.4365Z" fill="#ECEEEF"/>
<path d="M134.438 51.4365H118.227V63.4566H134.438V51.4365Z" fill="#ECEEEF"/>
<path d="M107.456 71.4434H91.2441V83.4635H107.456V71.4434Z" fill="#ECEEEF"/>
<path d="M134.438 71.4434H118.227V83.4635H134.438V71.4434Z" fill="#ECEEEF"/>
</svg>
