<svg width="28" height="38" viewBox="0 0 28 38" fill="none" xmlns="http://www.w3.org/2000/svg">
<path d="M21.5481 37.8256C25.1055 37.8256 28 35.2002 28 32.0169V5.80216C28 2.60572 25.1055 0 21.5481 0H6.45195C2.89451 0 0 2.62541 0 5.80216V32.0169C0 35.2199 2.89451 37.8256 6.45195 37.8256H21.5481ZM21.5481 36.0994H14.8729V24.6985H26.2804V32.0169C26.2804 34.2682 24.1538 36.0994 21.5481 36.0994ZM1.7459 11.5715H13.1533V22.9723H1.7459V11.5715ZM14.8729 11.5715H26.2804V22.9723H14.8729V11.5715ZM6.4782 1.72621H21.5743C24.1997 1.72621 26.3066 3.55743 26.3066 5.80216V9.84529H1.7459V5.80216C1.7459 3.55743 3.87248 1.72621 6.4782 1.72621ZM1.7459 32.0169V24.6985H13.1533V36.0994H6.4782C3.87248 36.0994 1.7459 34.2682 1.7459 32.0169Z" fill="#23366F"/>
<path d="M23.0361 27.9014H18.1134C17.8958 27.9014 17.6871 27.9878 17.5333 28.1417C17.3794 28.2955 17.293 28.5042 17.293 28.7218C17.293 28.9394 17.3794 29.1481 17.5333 29.3019C17.6871 29.4558 17.8958 29.5422 18.1134 29.5422H23.0361C23.2536 29.5422 23.4623 29.4558 23.6162 29.3019C23.7701 29.1481 23.8565 28.9394 23.8565 28.7218C23.8565 28.5042 23.7701 28.2955 23.6162 28.1417C23.4623 27.9878 23.2536 27.9014 23.0361 27.9014Z" fill="#23366F"/>
<path d="M23.0361 16.4688H18.1134C17.8958 16.4688 17.6871 16.5552 17.5333 16.7091C17.3794 16.8629 17.293 17.0716 17.293 17.2892C17.293 17.5068 17.3794 17.7155 17.5333 17.8693C17.6871 18.0232 17.8958 18.1096 18.1134 18.1096H23.0361C23.2536 18.1096 23.4623 18.0232 23.6162 17.8693C23.7701 17.7155 23.8565 17.5068 23.8565 17.2892C23.8565 17.0716 23.7701 16.8629 23.6162 16.7091C23.4623 16.5552 23.2536 16.4688 23.0361 16.4688Z" fill="#23366F"/>
<path d="M23.0361 31.2559H18.1134C17.8958 31.2559 17.6871 31.3423 17.5333 31.4962C17.3794 31.65 17.293 31.8587 17.293 32.0763C17.293 32.2939 17.3794 32.5026 17.5333 32.6564C17.6871 32.8103 17.8958 32.8967 18.1134 32.8967H23.0361C23.2536 32.8967 23.4623 32.8103 23.6162 32.6564C23.7701 32.5026 23.8565 32.2939 23.8565 32.0763C23.8565 31.8587 23.7701 31.65 23.6162 31.4962C23.4623 31.3423 23.2536 31.2559 23.0361 31.2559Z" fill="#23366F"/>
<path d="M9.90964 16.4685H8.26876V14.7882C8.26876 14.5706 8.18232 14.3619 8.02846 14.2081C7.8746 14.0542 7.66592 13.9678 7.44832 13.9678C7.23073 13.9678 7.02205 14.0542 6.86818 14.2081C6.71432 14.3619 6.62788 14.5706 6.62788 14.7882V16.4685H5.00013C4.78253 16.4685 4.57385 16.5549 4.41999 16.7088C4.26613 16.8626 4.17969 17.0713 4.17969 17.2889C4.17969 17.5065 4.26613 17.7152 4.41999 17.8691C4.57385 18.0229 4.78253 18.1094 5.00013 18.1094H6.62788V19.7502C6.62788 19.9678 6.71432 20.1765 6.86818 20.3304C7.02205 20.4842 7.23073 20.5707 7.44832 20.5707C7.66592 20.5707 7.8746 20.4842 8.02846 20.3304C8.18232 20.1765 8.26876 19.9678 8.26876 19.7502V18.1094H9.90964C10.1272 18.1094 10.3359 18.0229 10.4898 17.8691C10.6436 17.7152 10.7301 17.5065 10.7301 17.2889C10.7301 17.0713 10.6436 16.8626 10.4898 16.7088C10.3359 16.5549 10.1272 16.4685 9.90964 16.4685Z" fill="#23366F"/>
<path d="M7.44334 31.6495L8.59852 32.7981C8.68408 32.8813 8.78728 32.9441 8.90045 32.9819C9.0426 33.1006 9.22072 33.1677 9.40584 33.1722C9.51355 33.1731 9.6203 33.1519 9.71959 33.1102C9.81889 33.0684 9.90865 33.0069 9.98343 32.9294C10.0596 32.8537 10.1201 32.7638 10.1614 32.6646C10.2027 32.5655 10.2239 32.4592 10.2239 32.3518C10.2239 32.2444 10.2027 32.1381 10.1614 32.039C10.1201 31.9399 10.0596 31.8499 9.98343 31.7742L8.67072 30.4615L9.81278 29.3195C9.88505 29.2455 9.94292 29.1587 9.98343 29.0635C10.1375 28.9094 10.224 28.7005 10.224 28.4826C10.224 28.2647 10.1375 28.0558 9.98343 27.9017C9.82937 27.7477 9.62042 27.6611 9.40255 27.6611C9.18469 27.6611 8.97574 27.7477 8.82168 27.9017L7.44991 29.2801L6.07813 27.9017C5.92407 27.7477 5.71513 27.6611 5.49726 27.6611C5.27939 27.6611 5.07044 27.7477 4.91639 27.9017C4.76233 28.0558 4.67578 28.2647 4.67578 28.4826C4.67578 28.7005 4.76233 28.9094 4.91639 29.0635L4.95577 29.1029C4.99746 29.2048 5.05752 29.2983 5.13298 29.3785L6.24222 30.4812L4.92951 31.7939C4.85331 31.8696 4.79283 31.9595 4.75156 32.0587C4.71028 32.1578 4.68904 32.2641 4.68904 32.3715C4.68904 32.4789 4.71028 32.5852 4.75156 32.6843C4.79283 32.7835 4.85331 32.8734 4.92951 32.9491C5.00429 33.0266 5.09405 33.0881 5.19335 33.1299C5.29264 33.1716 5.39939 33.1927 5.5071 33.1919C5.67279 33.1878 5.8332 33.1328 5.96655 33.0344C6.08453 32.9954 6.19222 32.9304 6.2816 32.8441L7.44334 31.6495Z" fill="#23366F"/>
</svg>
