<svg width="40" height="19" viewBox="0 0 36 19" fill="none" xmlns="http://www.w3.org/2000/svg">
<g opacity="1">
<path d="M34.8317 6.13011C33.6795 4.96516 31.7578 4.36313 29.1299 4.32975C28.2624 3.53417 24.0666 0 17.9972 0C12.708 0 4.97048 4.21164 4.64368 4.39087C4.55797 4.43792 4.48663 4.50697 4.43715 4.59077C4.38767 4.67456 4.36187 4.77002 4.36246 4.8671L4.3635 5.58624C3.27073 6.11196 2.55608 6.50077 2.4617 6.5525C2.37645 6.59933 2.3054 6.66792 2.25595 6.75114C2.2065 6.83437 2.18044 6.92921 2.18048 7.02579L2.18104 7.74883C1.08936 8.27406 0.37551 8.66246 0.281215 8.71418C0.195963 8.761 0.12492 8.82959 0.0754669 8.91282C0.0260141 8.99605 -4.40287e-05 9.09088 5.58431e-08 9.18746L0.00276626 13.489C0.00276626 15.5669 1.98214 16.2124 2.70309 16.2124H3.82839L3.83319 16.2115C3.94784 16.9862 4.33991 17.6942 4.9378 18.2061C5.53568 18.7181 6.29948 18.9999 7.08968 19C7.87988 19.0001 8.64376 18.7186 9.2418 18.2068C9.83983 17.695 10.2321 16.9871 10.347 16.2124H22.3765C22.4914 16.9871 22.8837 17.695 23.4817 18.2068C24.0797 18.7185 24.8436 19.0001 25.6338 19C26.424 18.9999 27.1878 18.7181 27.7857 18.2062C28.3836 17.6942 28.7757 16.9862 28.8903 16.2115L28.8949 16.2124H31.0871C31.1587 16.2124 31.2297 16.1985 31.2958 16.1713C31.362 16.1441 31.4221 16.1043 31.4728 16.0542C31.5234 16.004 31.5636 15.9444 31.591 15.8788C31.6184 15.8133 31.6325 15.743 31.6325 15.672V14.0508H33.2676C33.3392 14.0508 33.4101 14.0368 33.4763 14.0096C33.5425 13.9825 33.6026 13.9427 33.6533 13.8925C33.7039 13.8423 33.7441 13.7827 33.7715 13.7172C33.7989 13.6516 33.813 13.5813 33.813 13.5104V11.8891H35.4496C35.5212 11.8891 35.5921 11.8751 35.6583 11.848C35.7245 11.8208 35.7846 11.781 35.8352 11.7308C35.8859 11.6807 35.9261 11.6211 35.9535 11.5555C35.9809 11.4899 35.995 11.4197 35.995 11.3487V9.18936L35.9956 9.14419C36.0216 8.58944 35.9317 8.03535 35.7314 7.51668C35.5311 6.99801 35.2248 6.52595 34.8317 6.13011ZM7.09004 17.9192C6.65383 17.9191 6.22742 17.791 5.86474 17.5508C5.50205 17.3106 5.21938 16.9693 5.05247 16.57C4.88555 16.1706 4.8419 15.7312 4.92702 15.3073C5.01214 14.8834 5.22221 14.494 5.53067 14.1884C5.83914 13.8827 6.23213 13.6746 6.65997 13.5903C7.0878 13.506 7.53126 13.5493 7.93425 13.7147C8.33725 13.8802 8.68169 14.1603 8.92402 14.5197C9.16635 14.8791 9.29568 15.3016 9.29566 15.7339C9.295 16.3133 9.0624 16.8688 8.6489 17.2784C8.2354 17.6881 7.67479 17.9186 7.09004 17.9192ZM13.124 15.1316H10.3279C10.1866 14.3826 9.78531 13.7062 9.19354 13.2196C8.60176 12.733 7.85682 12.4669 7.08783 12.4675C6.31884 12.468 5.57429 12.7352 4.98323 13.2226C4.39217 13.7101 3.99186 14.3871 3.85169 15.1363C3.84352 15.1359 3.83665 15.1316 3.82836 15.1316H2.7035C2.68752 15.1314 1.09354 14.9623 1.09354 13.489L1.0925 11.8821H2.18112C2.32577 11.8821 2.46449 11.8252 2.56677 11.7239C2.66905 11.6225 2.72651 11.4851 2.72651 11.3417C2.72651 11.1984 2.66905 11.0609 2.56677 10.9596C2.46449 10.8583 2.32577 10.8013 2.18112 10.8013H1.09181L1.09098 9.51002C1.43302 9.33056 2.07001 9.00433 2.89984 8.61195C2.93269 8.60027 2.96427 8.58535 2.99411 8.56742C3.8511 8.16417 4.90371 7.69558 6.04999 7.2443C6.05328 7.29193 6.06317 7.33888 6.07936 7.38384C6.12069 7.47946 7.12944 9.72746 10.3624 9.72746H13.124L13.124 15.1316ZM13.124 8.64663H10.3624C7.8734 8.64663 7.11156 7.02349 7.08194 6.95826C7.06533 6.92848 7.04579 6.90041 7.0236 6.87445C8.97708 6.10591 11.0313 5.61761 13.124 5.4243V8.64663ZM25.6332 17.9192C25.197 17.9191 24.7706 17.791 24.4079 17.5508C24.0452 17.3106 23.7626 16.9693 23.5956 16.57C23.4287 16.1706 23.3851 15.7312 23.4702 15.3073C23.5553 14.8834 23.7654 14.494 24.0739 14.1884C24.3823 13.8827 24.7753 13.6746 25.2031 13.5903C25.631 13.506 26.0744 13.5493 26.4774 13.7147C26.8804 13.8802 27.2249 14.1603 27.4672 14.5197C27.7095 14.8791 27.8389 15.3016 27.8388 15.7339C27.8382 16.3133 27.6056 16.8688 27.1921 17.2784C26.7786 17.6881 26.218 17.9186 25.6332 17.9192ZM30.5425 13.5063L30.5417 13.5104L30.5425 13.5144L30.5417 15.1316H28.8949C28.8867 15.1316 28.8799 15.1359 28.8718 15.1362C28.7316 14.387 28.3313 13.71 27.7402 13.2226C27.1492 12.7351 26.4046 12.468 25.6356 12.4674C24.8666 12.4669 24.1217 12.733 23.5299 13.2196C22.9381 13.7062 22.5368 14.3826 22.3956 15.1316H14.2148V9.72745H24.5424C26.9852 9.72745 28.7172 10.2263 29.6904 11.21C29.9802 11.5044 30.2055 11.855 30.3521 12.2397C30.4987 12.6244 30.5636 13.035 30.5426 13.4458L30.5425 13.5063ZM14.2148 8.64663V5.42066C17.4119 5.60791 20.4812 6.73057 23.0342 8.64663H14.2148ZM32.723 11.3447L32.7222 11.3487L32.723 11.3527L32.7222 12.9699H31.616C31.5513 12.0218 31.1442 11.1285 30.4693 10.4534C29.317 9.28847 27.3953 8.68644 24.7674 8.65306C23.8999 7.85748 19.7041 4.32331 13.6347 4.32331C10.9346 4.32331 7.59817 5.42087 4.9336 6.51925C7.5693 5.26252 12.3454 3.24249 15.8152 3.24249C22.0397 3.24249 26.289 7.35998 26.3371 7.40729L26.3376 7.40772L26.3377 7.40788L26.3419 7.41062C26.4358 7.50438 26.563 7.55813 26.6963 7.56045C26.7056 7.56093 26.7135 7.56578 26.7229 7.56578C29.1657 7.56578 30.8977 8.06461 31.8707 9.04833C32.1605 9.34277 32.3858 9.69336 32.5325 10.0781C32.6792 10.4629 32.744 10.8735 32.723 11.2843L32.723 11.3447ZM34.9042 10.8083H33.7965C33.7317 9.86019 33.3247 8.96689 32.6498 8.29177C31.4973 7.12684 29.5756 6.52479 26.9479 6.49141C26.0804 5.69583 21.8846 2.16166 15.8152 2.16166C13.1208 2.16166 9.79279 3.25452 7.1311 4.35052C9.77075 3.09334 14.5364 1.08083 17.9972 1.08083C24.2217 1.08083 28.471 5.19832 28.5191 5.24563L28.5195 5.24606L28.5197 5.24622L28.5241 5.24907C28.6183 5.34305 28.7458 5.39686 28.8794 5.39903C28.8883 5.39946 28.8959 5.40412 28.9049 5.40412C31.3477 5.40412 33.0797 5.90295 34.0529 6.88667C34.3427 7.18109 34.5679 7.53165 34.7146 7.91638C34.8612 8.30111 34.926 8.71172 34.905 9.12245L34.9042 10.8083Z" fill="#19BAB6"/>
</g>
</svg>
