<svg width="20" height="16" viewBox="0 0 20 16" fill="none" xmlns="http://www.w3.org/2000/svg">
<path d="M2.59467 12.7413C2.65431 12.7797 2.72303 12.7995 2.79292 12.7986C2.88078 12.7986 2.96621 12.7682 3.03599 12.7119C3.10578 12.6556 3.15602 12.5767 3.17895 12.4873C3.20189 12.398 3.19623 12.3031 3.16287 12.2175C3.1295 12.1318 3.07028 12.0601 2.99436 12.0135C2.15432 11.5033 1.4976 10.7151 1.12613 9.77141C0.754656 8.82766 0.689212 7.78111 0.939951 6.79416C1.19069 5.80722 1.74359 4.93509 2.51283 4.31312C3.28208 3.69116 4.22465 3.35415 5.19426 3.3544H13.8276L12.1169 5.16709C12.0798 5.20593 12.0503 5.25212 12.0302 5.303C12.0101 5.35389 11.9998 5.40847 11.9998 5.46359C11.9998 5.51871 12.0101 5.57329 12.0302 5.62418C12.0503 5.67506 12.0798 5.72125 12.1169 5.76009C12.1535 5.79962 12.1973 5.83103 12.2456 5.85248C12.294 5.87392 12.3459 5.88497 12.3983 5.88497C12.4507 5.88497 12.5026 5.87392 12.551 5.85248C12.5993 5.83103 12.643 5.79962 12.6797 5.76009L15.081 3.23311C15.1366 3.17347 15.1745 3.09797 15.1898 3.01594C15.2051 2.9339 15.1973 2.84893 15.1674 2.77151C15.1485 2.72036 15.119 2.6743 15.081 2.63674L12.6797 0.106393C12.6033 0.0348863 12.5039 -0.00311216 12.4018 0.000199632C12.2997 0.00351142 12.2027 0.047882 12.1307 0.124201C12.0587 0.20052 12.0171 0.302997 12.0146 0.41059C12.012 0.518183 12.0486 0.622728 12.1169 0.70276L13.834 2.51882H5.20066C4.05559 2.51922 2.94265 2.91768 2.03438 3.65243C1.12611 4.38718 0.47326 5.41716 0.177064 6.58267C-0.119132 7.74818 -0.042129 8.9841 0.396132 10.0988C0.834394 11.2135 1.60943 12.1447 2.60106 12.748L2.59467 12.7413Z" fill="#989898"/>
<path d="M16.8555 3.40131C16.8286 3.44871 16.8111 3.50129 16.8038 3.55594C16.7965 3.6106 16.7997 3.66624 16.8131 3.71959C16.8265 3.77295 16.8499 3.82294 16.8819 3.86665C16.9138 3.91035 16.9538 3.94688 16.9994 3.97409C17.8362 4.4858 18.4898 5.27374 18.8592 6.2161C19.2285 7.15847 19.2929 8.20278 19.0425 9.18759C18.7921 10.1724 18.2408 11.0429 17.4739 11.6645C16.7069 12.2861 15.767 12.6242 14.7995 12.6265H6.16613L7.8864 10.8138C7.95426 10.7333 7.99032 10.6286 7.98718 10.521C7.98403 10.4134 7.94193 10.3112 7.8695 10.2353C7.79707 10.1594 7.69982 10.1156 7.59771 10.1129C7.4956 10.1102 7.39639 10.1488 7.32044 10.2208L4.91909 12.7478C4.90767 12.7622 4.89801 12.778 4.89031 12.7949C4.86652 12.8205 4.84706 12.8501 4.83276 12.8825C4.81265 12.9351 4.80181 12.991 4.80078 13.0476C4.80153 13.1032 4.81238 13.1581 4.83276 13.2094C4.8478 13.2424 4.86718 13.273 4.89031 13.3003C4.89879 13.3157 4.90841 13.3304 4.91909 13.3441L7.32044 15.8745C7.39488 15.9536 7.49606 15.9985 7.60182 15.9991C7.7084 15.9979 7.81039 15.9532 7.8864 15.8745C7.96004 15.7946 8.00123 15.6877 8.00123 15.5763C8.00123 15.4649 7.96004 15.358 7.8864 15.2781L6.16613 13.4688H14.7995C15.9445 13.4684 17.0575 13.0699 17.9657 12.3352C18.874 11.6004 19.5269 10.5705 19.823 9.40494C20.1192 8.23943 20.0422 7.00351 19.604 5.88881C19.1657 4.7741 18.3907 3.8429 17.399 3.23958C17.3535 3.21172 17.3031 3.19378 17.2508 3.18684C17.1985 3.17991 17.1455 3.1841 17.0948 3.19919C17.0441 3.21427 16.9968 3.23994 16.9557 3.27466C16.9145 3.30938 16.8805 3.35245 16.8555 3.40131V3.40131Z" fill="#989898"/>
</svg>
