<!-- <svg width="24" height="24" viewBox="0 0 24 24" fill="none" xmlns="http://www.w3.org/2000/svg">
<g filter="url(#filter0_d_8369_54572)">
<path fill-rule="evenodd" clip-rule="evenodd" d="M21.8476 4.15696C22.0508 4.36623 22.0508 4.70554 21.8476 4.91481L7.34944 19.843C7.24476 19.9508 7.10046 20.0076 6.95265 19.9992C6.80484 19.9907 6.66751 19.9179 6.57503 19.7989L2.11407 14.0573C1.93451 13.8261 1.9709 13.4889 2.19534 13.304C2.41979 13.1191 2.74731 13.1566 2.92686 13.3877L7.02458 18.6618L21.1115 4.15696C21.3148 3.94768 21.6443 3.94768 21.8476 4.15696Z" fill="#23366F"/>
</g>
<defs>
<filter id="filter0_d_8369_54572" x="0" y="2.5" width="24" height="20" filterUnits="userSpaceOnUse" color-interpolation-filters="sRGB">
<feFlood flood-opacity="0" result="BackgroundImageFix"/>
<feColorMatrix in="SourceAlpha" type="matrix" values="0 0 0 0 0 0 0 0 0 0 0 0 0 0 0 0 0 0 127 0" result="hardAlpha"/>
<feOffset dy="0.5"/>
<feGaussianBlur stdDeviation="1"/>
<feColorMatrix type="matrix" values="0 0 0 0 0 0 0 0 0 0 0 0 0 0 0 0 0 0 0.2 0"/>
<feBlend mode="normal" in2="BackgroundImageFix" result="effect1_dropShadow_8369_54572"/>
<feBlend mode="normal" in="SourceGraphic" in2="effect1_dropShadow_8369_54572" result="shape"/>
</filter>
</defs>
</svg> -->
<svg width="24" height="24" viewBox="0 0 24 24" fill="none" xmlns="http://www.w3.org/2000/svg">
<path fill-rule="evenodd" clip-rule="evenodd" d="M22.6757 4.26285C23.0828 4.63604 23.1104 5.26861 22.7372 5.67573L8.98716 20.6757C8.79775 20.8824 8.53031 21 8.25001 21C7.9697 21 7.70226 20.8824 7.51285 20.6757L1.26285 13.8575C0.889659 13.4504 0.917162 12.8179 1.32428 12.4447C1.7314 12.0715 2.36397 12.099 2.73716 12.5061L8.25001 18.5201L21.2629 4.32428C21.636 3.91716 22.2686 3.88966 22.6757 4.26285Z" fill="#23366F"/>
</svg>
