<svg width="32" height="30" viewBox="0 0 32 30" fill="none" xmlns="http://www.w3.org/2000/svg">
<path d="M17.9336 25C17.9795 24.9982 18.0247 24.9892 18.0677 24.9732C18.1048 24.9537 18.1397 24.9301 18.1716 24.9029H18.2017L25.8961 17.2008C25.9309 17.1653 25.9582 17.1232 25.9765 17.077L26 17.0167V16.9565V16.8962V7.79498C26 7.42794 25.9276 7.06449 25.787 6.72539C25.6464 6.38628 25.4403 6.07817 25.1804 5.81863C24.9206 5.55909 24.6121 5.35322 24.2726 5.21276C23.9331 5.07229 23.5692 5 23.2017 5H8.76474C8.03149 5 7.32827 5.29094 6.80977 5.80883C6.29128 6.32671 6 7.02911 6 7.76151V22.1916C6 22.9365 6.29623 23.6508 6.82352 24.1774C7.35081 24.7041 8.06596 25 8.81166 25H17.9336ZM18.3559 23.5707V18.4393C18.3559 18.1437 18.4735 17.8602 18.6828 17.6512C18.892 17.4421 19.1759 17.3247 19.4719 17.3247H24.5891L18.3559 23.5707ZM6.8378 22.1916V7.76151C6.83736 7.50863 6.8869 7.25815 6.98358 7.02444C7.08026 6.79073 7.22218 6.57838 7.40121 6.39956C7.58023 6.22075 7.79283 6.079 8.02681 5.98243C8.2608 5.88586 8.51157 5.83638 8.76474 5.83682H23.2252C23.7449 5.83771 24.243 6.04429 24.6105 6.41133C24.9779 6.77836 25.1848 7.27591 25.1857 7.79498V16.4979H19.4651C18.947 16.4979 18.45 16.7035 18.0836 17.0695C17.7172 17.4354 17.5114 17.9318 17.5114 18.4494V24.1732H8.79826C8.27476 24.1732 7.7727 23.9655 7.40253 23.5958C7.03236 23.226 6.8244 22.7246 6.8244 22.2017L6.8378 22.1916Z" fill="#D3DAD9"/>
<path d="M11.3997 15.3498V19.1288C10.9795 19.0351 10.6039 18.8008 10.3352 18.4648C10.0664 18.1288 9.92058 17.7112 9.92179 17.2811C9.92179 17.1702 9.87765 17.0637 9.79909 16.9853C9.72053 16.9068 9.61398 16.8627 9.50289 16.8627C9.39179 16.8627 9.28524 16.9068 9.20668 16.9853C9.12812 17.0637 9.08398 17.1702 9.08398 17.2811C9.08496 17.9326 9.31877 18.5624 9.7433 19.057C10.1678 19.5516 10.7552 19.8786 11.3997 19.979V21.6527C11.3997 21.7637 11.4438 21.8701 11.5224 21.9485C11.6009 22.027 11.7075 22.0711 11.8186 22.0711C11.9297 22.0711 12.0362 22.027 12.1148 21.9485C12.1933 21.8701 12.2375 21.7637 12.2375 21.6527V19.979C12.8853 19.8821 13.4768 19.5562 13.9043 19.0604C14.3319 18.5647 14.567 17.9321 14.567 17.2778C14.567 16.6235 14.3319 15.9909 13.9043 15.4952C13.4768 14.9994 12.8853 14.6734 12.2375 14.5765V10.8075C12.5868 10.8843 12.9067 11.0597 13.1591 11.3129C13.3355 11.4885 13.4755 11.6972 13.571 11.9269C13.6665 12.1567 13.7155 12.4031 13.7154 12.6519C13.7154 12.7628 13.7595 12.8692 13.838 12.9477C13.9166 13.0262 14.0232 13.0703 14.1343 13.0703C14.2454 13.0703 14.3519 13.0262 14.4305 12.9477C14.509 12.8692 14.5532 12.7628 14.5532 12.6519C14.5527 12.0006 14.3191 11.3709 13.8944 10.8767C13.4696 10.3825 12.8819 10.0564 12.2375 9.95729V8.30708C12.2375 8.19611 12.1933 8.08969 12.1148 8.01122C12.0362 7.93275 11.9297 7.88867 11.8186 7.88867C11.7075 7.88867 11.6009 7.93275 11.5224 8.01122C11.4438 8.08969 11.3997 8.19611 11.3997 8.30708V9.95729C10.755 10.0565 10.1671 10.3829 9.74239 10.8774C9.3177 11.3719 9.08424 12.002 9.08424 12.6535C9.08424 13.3051 9.3177 13.9351 9.74239 14.4296C10.1671 14.9242 10.755 15.2506 11.3997 15.3498ZM13.7154 17.2811C13.7155 17.5299 13.6665 17.7763 13.571 18.0061C13.4755 18.2358 13.3355 18.4445 13.1591 18.6201C12.9071 18.8745 12.5872 19.0511 12.2375 19.1288V15.4468C12.6568 15.5423 13.0313 15.777 13.2998 16.1127C13.5682 16.4483 13.7147 16.8649 13.7154 17.2945V17.2811ZM10.4781 11.3129C10.7314 11.0609 11.0509 10.8857 11.3997 10.8075V14.4895C11.0684 14.4148 10.7632 14.2527 10.5161 14.02C10.2689 13.7873 10.0889 13.4926 9.99469 13.1667C9.90053 12.8407 9.89571 12.4955 9.98074 12.1671C10.0658 11.8386 10.2375 11.539 10.4781 11.2996V11.3129Z" fill="#D3DAD9"/>
<path d="M17.5146 10.3656H22.4342C22.5453 10.3656 22.6518 10.3215 22.7304 10.2431C22.8089 10.1646 22.8531 10.0582 22.8531 9.94722C22.8531 9.83625 22.8089 9.72982 22.7304 9.65136C22.6518 9.57289 22.5453 9.52881 22.4342 9.52881H17.5146C17.4035 9.52881 17.297 9.57289 17.2184 9.65136C17.1398 9.72982 17.0957 9.83625 17.0957 9.94722C17.0957 10.0582 17.1398 10.1646 17.2184 10.2431C17.297 10.3215 17.4035 10.3656 17.5146 10.3656Z" fill="#D3DAD9"/>
<path d="M17.5146 13.7231H22.4342C22.5453 13.7231 22.6518 13.679 22.7304 13.6005C22.8089 13.522 22.8531 13.4156 22.8531 13.3046C22.8531 13.1937 22.8089 13.0872 22.7304 13.0088C22.6518 12.9303 22.5453 12.8862 22.4342 12.8862H17.5146C17.4035 12.8862 17.297 12.9303 17.2184 13.0088C17.1398 13.0872 17.0957 13.1937 17.0957 13.3046C17.0957 13.4156 17.1398 13.522 17.2184 13.6005C17.297 13.679 17.4035 13.7231 17.5146 13.7231Z" fill="#D3DAD9"/>
<rect x="0.125" y="0.125" width="31.75" height="29.75" rx="7.875" stroke="#E6E6E6" stroke-width="0.25"/>
</svg>
