<svg width="25" height="24" viewBox="0 0 25 24" fill="none" xmlns="http://www.w3.org/2000/svg">
<path d="M20.4883 3.28941C18.3634 1.16817 15.5383 0 12.5332 0C9.52814 0 6.70298 1.16817 4.57809 3.28941C2.45334 5.41045 1.2832 8.23055 1.2832 11.2301C1.2832 14.2297 2.45334 17.0498 4.57809 19.1708C6.32433 20.914 8.54348 22.0136 10.9468 22.3501L10.2875 23.0083L11.2822 24L13.4674 21.8185L11.5499 19.3384L10.4364 20.1952L11.0123 20.9401C6.30398 20.2081 2.68945 16.1326 2.68945 11.2301C2.68945 5.81138 7.10536 1.40292 12.5332 1.40292C17.961 1.40292 22.377 5.81138 22.377 11.2301C22.377 15.1682 20.0339 18.7155 16.4076 20.2671L16.9619 21.5564C21.1057 19.7833 23.7832 15.73 23.7832 11.2301C23.7832 8.23055 22.6131 5.41045 20.4883 3.28941Z" fill="white"/>
<path d="M6.50391 15.0004V8.61035H9.28491C9.57291 8.61035 9.83691 8.67035 10.0769 8.79035C10.3229 8.91035 10.5329 9.06935 10.7069 9.26735C10.8809 9.45935 11.0159 9.68135 11.1119 9.93335C11.2139 10.1794 11.2649 10.4314 11.2649 10.6894C11.2649 10.9054 11.2349 11.1124 11.1749 11.3104C11.1149 11.5084 11.0309 11.6914 10.9229 11.8594C10.8149 12.0274 10.6829 12.1744 10.5269 12.3004C10.3709 12.4204 10.1999 12.5104 10.0139 12.5704L11.5169 15.0004H10.3739L8.98791 12.7774H7.51191V15.0004H6.50391ZM7.51191 11.8864H9.27591C9.41991 11.8864 9.54891 11.8564 9.66291 11.7964C9.78291 11.7304 9.88491 11.6434 9.96891 11.5354C10.0529 11.4214 10.1189 11.2924 10.1669 11.1484C10.2149 11.0044 10.2389 10.8514 10.2389 10.6894C10.2389 10.5274 10.2089 10.3744 10.1489 10.2304C10.0949 10.0864 10.0199 9.96035 9.92391 9.85235C9.83391 9.74435 9.72591 9.66035 9.59991 9.60035C9.47991 9.53435 9.35391 9.50135 9.22191 9.50135H7.51191V11.8864Z" fill="white"/>
<path d="M17.8271 15.0004V10.4014L15.9281 13.8844H15.3701L13.4621 10.4014V15.0004H12.4541V8.61035H13.5341L15.6491 12.5164L17.7641 8.61035H18.8441V15.0004H17.8271Z" fill="white"/>
</svg>
