<svg width="30" height="32" viewBox="0 0 30 32" fill="none" xmlns="http://www.w3.org/2000/svg">
<path d="M25.5991 4.38594C22.7836 1.5773 18.969 0 14.9921 0C11.0152 0 7.20066 1.5773 4.38511 4.38594C2.41768 6.35363 1.03743 8.83059 0.399205 11.539C-0.239018 14.2473 -0.109965 17.08 0.771886 19.7191C1.65374 22.3582 3.2535 24.6994 5.39171 26.48C7.52992 28.2607 10.122 29.4103 12.8771 29.7999L11.9981 30.6779L13.3241 31.9999L16.2381 29.0909L13.6811 25.7849L12.1921 26.9269L12.9601 27.9199C9.83682 27.4301 6.99557 25.8286 4.95929 23.4102C2.92302 20.9919 1.82877 17.9194 1.87795 14.7583C1.92713 11.5972 3.11643 8.56027 5.22694 6.20642C7.33746 3.85257 10.2272 2.34025 13.3642 1.94779C16.5012 1.55534 19.6744 2.30917 22.2998 4.07054C24.9251 5.83191 26.8259 8.48228 27.6523 11.5338C28.4787 14.5854 28.1751 17.8327 26.7974 20.6782C25.4196 23.5237 23.0605 25.7758 20.1541 27.0199L20.8931 28.7389C23.1457 27.7782 25.128 26.2793 26.6662 24.3738C28.2044 22.4683 29.2514 20.2144 29.7154 17.8099C30.1794 15.4054 30.0462 12.9237 29.3275 10.5827C28.6087 8.2417 27.3264 6.11284 25.5931 4.38294L25.5991 4.38594Z" fill="#23366F"/>
<path d="M6.95215 19.9999V11.4799H10.6601C11.0261 11.4758 11.3879 11.558 11.7161 11.7199C12.0359 11.8736 12.3215 12.0899 12.5561 12.3559C12.7903 12.6154 12.9735 12.9167 13.0961 13.2439C13.229 13.5634 13.297 13.906 13.2961 14.2519C13.2973 14.5323 13.2568 14.8114 13.1761 15.0799C13.0987 15.3384 12.9857 15.5848 12.8401 15.8119C12.6969 16.0351 12.5186 16.2336 12.3121 16.3999C12.1067 16.5586 11.8753 16.6804 11.6281 16.7599L13.6281 19.9999H12.1121L10.2641 17.0359H8.29215V19.9999H6.95215ZM8.29215 15.8479H10.6441C10.8234 15.8509 11.0006 15.8097 11.1601 15.7279C11.3186 15.6412 11.4575 15.5228 11.5681 15.3799C11.6827 15.2229 11.7718 15.0488 11.8321 14.8639C11.8984 14.6667 11.9321 14.46 11.9321 14.2519C11.9333 14.042 11.8925 13.8339 11.8121 13.6399C11.7438 13.4562 11.6421 13.2867 11.5121 13.1399C11.3944 12.9977 11.247 12.883 11.0801 12.8039C10.9274 12.7182 10.7553 12.6727 10.5801 12.6719H8.29215V15.8479Z" fill="#23366F"/>
<path d="M22.0502 19.9999V13.8679L19.5182 18.5119H18.7742L16.2302 13.8679V19.9999H14.8862V11.4799H16.3262L19.1462 16.6879L21.9662 11.4799H23.4062V19.9999H22.0502Z" fill="#23366F"/>
</svg>
