<svg width="14" height="17" viewBox="0 0 14 17" fill="none" xmlns="http://www.w3.org/2000/svg">
<path d="M1.34925 2.50426C1.15165 2.31137 0.835086 2.3152 0.642198 2.51281C0.449311 2.71042 0.453138 3.02697 0.650746 3.21986L1.34925 2.50426ZM12.6507 14.9332C12.8484 15.1261 13.1649 15.1222 13.3578 14.9246C13.5507 14.727 13.5469 14.4105 13.3493 14.2176L12.6507 14.9332ZM0.650746 3.21986L12.6507 14.9332L13.3493 14.2176L1.34925 2.50426L0.650746 3.21986Z" fill="#989898"/>
<path d="M0.650517 14.2216C0.451869 14.4155 0.447301 14.7311 0.640315 14.9265C0.833329 15.122 1.15083 15.1232 1.34948 14.9293L0.650517 14.2216ZM13.3488 3.21639C13.5475 3.02248 13.552 2.70686 13.359 2.51143C13.166 2.316 12.8485 2.31476 12.6498 2.50867L13.3488 3.21639ZM1.34948 14.9293L13.3488 3.21639L12.6498 2.50867L0.650517 14.2216L1.34948 14.9293Z" fill="#989898"/>
</svg>
