<svg width="25" height="24" viewBox="0 0 25 24" fill="none" xmlns="http://www.w3.org/2000/svg">
<g clip-path="url(#clip0)">
<path d="M22.2464 3.1807H20.2223V1.15664C20.2223 0.520452 19.7018 0 19.0659 0H4.3187C3.68256 0 3.16211 0.520452 3.16211 1.15664V19.6626C3.16211 20.2988 3.68256 20.8193 4.31875 20.8193H6.34285V22.8434C6.34285 23.4795 6.86307 24 7.49949 24H17.3305C17.9664 24 18.8662 23.6432 19.3292 23.2074L22.5602 20.1661C23.0237 19.7304 23.4025 18.853 23.4025 18.2169L23.4031 4.33743C23.403 3.7012 22.8825 3.1807 22.2464 3.1807ZM6.34276 4.33738V19.9518H4.3187C4.162 19.9518 4.02958 19.8194 4.02958 19.6627V1.15664C4.02958 0.999936 4.162 0.867514 4.3187 0.867514H19.066C19.2224 0.867514 19.3551 0.999936 19.3551 1.15664V3.18074H7.4994C6.86298 3.18074 6.34276 3.7012 6.34276 4.33738ZM21.9657 19.5345L18.7346 22.5756C18.6684 22.6378 18.5822 22.6988 18.4871 22.7569V20.0964C18.4871 19.8977 18.5672 19.719 18.6993 19.586C18.8326 19.4538 19.0113 19.3735 19.21 19.3735H22.103C22.0581 19.4344 22.0122 19.4905 21.9657 19.5345ZM22.535 18.2168C22.535 18.3027 22.5193 18.4022 22.4956 18.5059H19.2099C18.3324 18.5077 17.6213 19.2187 17.6196 20.0963V23.0974C17.5163 23.1183 17.4169 23.1324 17.3304 23.1324H7.4994V23.1324C7.34237 23.1324 7.21027 23 7.21027 22.8433V4.33734C7.21027 4.18063 7.34241 4.04821 7.4994 4.04821H22.2463C22.403 4.04821 22.5355 4.18063 22.5355 4.33734L22.535 18.2168Z" fill="#23366F"/>
<path d="M19.0673 7.22888H10.6818C10.4421 7.22888 10.248 7.4229 10.248 7.66261C10.248 7.90233 10.4421 8.09635 10.6818 8.09635H19.0673C19.3067 8.09635 19.501 7.90233 19.501 7.66261C19.501 7.4229 19.3067 7.22888 19.0673 7.22888Z" fill="#23366F"/>
<path d="M19.0673 13.012H10.6818C10.4421 13.012 10.248 13.206 10.248 13.4458C10.248 13.6855 10.4421 13.8795 10.6818 13.8795H19.0673C19.3067 13.8795 19.501 13.6855 19.501 13.4458C19.501 13.206 19.3067 13.012 19.0673 13.012Z" fill="#23366F"/>
<path d="M15.3082 15.9036H10.6818C10.4421 15.9036 10.248 16.0976 10.248 16.3373C10.248 16.577 10.4421 16.771 10.6818 16.771H15.3082C15.5477 16.771 15.7417 16.577 15.7417 16.3373C15.7417 16.0976 15.5477 15.9036 15.3082 15.9036Z" fill="#23366F"/>
<path d="M19.0673 10.1204H10.6818C10.4421 10.1204 10.248 10.3144 10.248 10.5542C10.248 10.7939 10.4421 10.9879 10.6818 10.9879H19.0673C19.3067 10.9879 19.501 10.7939 19.501 10.5542C19.501 10.3144 19.3067 10.1204 19.0673 10.1204Z" fill="#23366F"/>
</g>
<defs>
<clipPath id="clip0">
<rect width="24" height="24" fill="white" transform="translate(0.533203)"/>
</clipPath>
</defs>
</svg>
