<svg width="18" height="18" viewBox="0 0 18 18" fill="none" xmlns="http://www.w3.org/2000/svg">
<path d="M2.56751 18H10.7265C10.7826 18.0006 10.8382 17.9901 10.8901 17.9689C10.942 17.9477 10.9891 17.9163 11.0286 17.8765L17.8936 11.0194C17.9284 10.9824 17.9563 10.9394 17.976 10.8926C17.9855 10.8726 17.9935 10.852 18 10.8308C18 10.8103 18 10.7863 18 10.7657C18 10.7451 18 10.7246 18 10.704V2.55428C17.9991 1.88067 17.7322 1.23459 17.2573 0.756351C16.7824 0.27811 16.1377 0.00632022 15.4634 0H2.52632C1.85658 0.000907086 1.21453 0.267059 0.740946 0.740096C0.267367 1.21313 0.00091042 1.85445 2.29465e-06 2.52342V15.4285C-0.000448768 15.7658 0.065604 16.0998 0.194389 16.4115C0.323174 16.7233 0.51217 17.0066 0.750585 17.2454C0.989 17.4842 1.27217 17.6737 1.58391 17.8032C1.89566 17.9327 2.22989 17.9995 2.56751 18ZM11.1487 16.536V12.0788C11.1487 11.955 11.1732 11.8324 11.2206 11.718C11.268 11.6036 11.3376 11.4997 11.4252 11.4121C11.5129 11.3246 11.6169 11.2551 11.7314 11.2078C11.846 11.1604 11.9687 11.136 12.0927 11.136H16.5549L11.1487 16.536ZM0.851261 2.52342C0.852167 2.08178 1.02821 1.65848 1.34086 1.34619C1.65351 1.03389 2.0773 0.858047 2.51945 0.857141H15.4634C15.9156 0.857119 16.3496 1.03538 16.6709 1.35317C16.9923 1.67096 17.1751 2.1026 17.1796 2.55428V10.2857H12.0995C11.6237 10.2866 11.1674 10.4751 10.8299 10.8103C10.4924 11.1454 10.3011 11.6001 10.2975 12.0754V17.1428H2.56751C2.11233 17.1428 1.6758 16.9622 1.35394 16.6407C1.03208 16.3192 0.851261 15.8832 0.851261 15.4285V2.52342Z" fill="#23366F"/>
<path d="M3.8607 4.27511H14.1582C14.272 4.27511 14.3811 4.22996 14.4616 4.14959C14.542 4.06921 14.5872 3.9602 14.5872 3.84654C14.5872 3.73288 14.542 3.62387 14.4616 3.54349C14.3811 3.46312 14.272 3.41797 14.1582 3.41797H3.8607C3.74691 3.41797 3.63777 3.46312 3.55731 3.54349C3.47684 3.62387 3.43164 3.73288 3.43164 3.84654C3.43164 3.9602 3.47684 4.06921 3.55731 4.14959C3.63777 4.22996 3.74691 4.27511 3.8607 4.27511Z" fill="#23366F"/>
<path d="M3.8607 7.70089H14.1582C14.272 7.70089 14.3811 7.65574 14.4616 7.57537C14.542 7.49499 14.5872 7.38598 14.5872 7.27232C14.5872 7.15866 14.542 7.04965 14.4616 6.96928C14.3811 6.8889 14.272 6.84375 14.1582 6.84375H3.8607C3.74691 6.84375 3.63777 6.8889 3.55731 6.96928C3.47684 7.04965 3.43164 7.15866 3.43164 7.27232C3.43164 7.38598 3.47684 7.49499 3.55731 7.57537C3.63777 7.65574 3.74691 7.70089 3.8607 7.70089Z" fill="#23366F"/>
<path d="M3.8607 11.1325H7.2932C7.40699 11.1325 7.51612 11.0874 7.59659 11.007C7.67705 10.9266 7.72226 10.8176 7.72226 10.704C7.72226 10.5903 7.67705 10.4813 7.59659 10.4009C7.51612 10.3205 7.40699 10.2754 7.2932 10.2754H3.8607C3.74691 10.2754 3.63777 10.3205 3.55731 10.4009C3.47684 10.4813 3.43164 10.5903 3.43164 10.704C3.43164 10.8176 3.47684 10.9266 3.55731 11.007C3.63777 11.0874 3.74691 11.1325 3.8607 11.1325Z" fill="#23366F"/>
</svg>
