<svg width="27" height="32" viewBox="0 0 27 32" fill="none" xmlns="http://www.w3.org/2000/svg">
<path d="M25.446 4.241H22.746V1.541C22.7444 1.13279 22.5816 0.741746 22.2929 0.453094C22.0043 0.164442 21.6132 0.00158019 21.205 0L1.542 0C1.13344 0.00131837 0.741994 0.164202 0.453098 0.453098C0.164202 0.741994 0.00131837 1.13344 0 1.542V26.217C0.00131837 26.6256 0.164202 27.017 0.453098 27.3059C0.741994 27.5948 1.13344 27.7577 1.542 27.759H4.242V30.459C4.24358 30.8672 4.40644 31.2583 4.69509 31.5469C4.98375 31.8356 5.37479 31.9984 5.783 32H18.894C19.8738 31.9476 20.8097 31.5765 21.559 30.943L25.867 26.888C26.5383 26.1822 26.9364 25.2605 26.99 24.288V5.783C26.9887 5.3741 26.8255 4.98235 26.5362 4.69339C26.2469 4.40444 25.8549 4.24179 25.446 4.241ZM4.241 5.783V26.6H1.541C1.43929 26.5987 1.34212 26.5577 1.2702 26.4858C1.19827 26.4139 1.1573 26.3167 1.156 26.215V1.542C1.1573 1.44029 1.19827 1.34312 1.2702 1.2712C1.34212 1.19927 1.43929 1.1583 1.541 1.157H21.205C21.3068 1.15829 21.4041 1.19924 21.4762 1.27113C21.5482 1.34303 21.5894 1.4402 21.591 1.542V4.242H5.783C5.37461 4.24332 4.98332 4.40606 4.69445 4.69474C4.40558 4.98342 4.24258 5.37462 4.241 5.783ZM25.071 26.046L20.763 30.1C20.6613 30.1914 20.5508 30.2725 20.433 30.342V26.8C20.4341 26.5447 20.536 26.3001 20.7165 26.1195C20.8971 25.939 21.1417 25.8371 21.397 25.836H25.255C25.2001 25.9114 25.1385 25.9817 25.071 26.046V26.046ZM25.831 24.289C25.8275 24.4192 25.8097 24.5487 25.778 24.675H21.394C20.8321 24.6761 20.2934 24.8998 19.8961 25.2971C19.4988 25.6945 19.2751 26.2331 19.274 26.795V30.795C19.147 30.8223 19.0178 30.8377 18.888 30.841H5.783C5.68129 30.8397 5.58412 30.7987 5.5122 30.7268C5.44027 30.6549 5.3993 30.5577 5.398 30.456V5.783C5.39981 5.68164 5.44102 5.58497 5.51289 5.51348C5.58475 5.44199 5.68164 5.40128 5.783 5.4H25.446C25.5477 5.4013 25.6449 5.44227 25.7168 5.5142C25.7887 5.58612 25.8297 5.68329 25.831 5.785V24.289Z" fill="black"/>
<path d="M21.2049 9.638H10.0249C9.94694 9.63476 9.86909 9.64732 9.79608 9.67493C9.72306 9.70254 9.65639 9.74463 9.60006 9.79867C9.54372 9.85271 9.4989 9.91758 9.46828 9.98938C9.43766 10.0612 9.42187 10.1384 9.42188 10.2165C9.42187 10.2946 9.43766 10.3718 9.46828 10.4436C9.4989 10.5154 9.54372 10.5803 9.60006 10.6343C9.65639 10.6884 9.72306 10.7305 9.79608 10.7581C9.86909 10.7857 9.94694 10.7982 10.0249 10.795H21.2049C21.3542 10.7888 21.4953 10.7251 21.5987 10.6173C21.7021 10.5095 21.7599 10.3659 21.7599 10.2165C21.7599 10.0671 21.7021 9.92349 21.5987 9.81568C21.4953 9.70787 21.3542 9.64421 21.2049 9.638V9.638Z" fill="black"/>
<path d="M21.2049 17.349H10.0249C9.94694 17.3458 9.86909 17.3583 9.79608 17.3859C9.72306 17.4135 9.65639 17.4556 9.60006 17.5097C9.54372 17.5637 9.4989 17.6286 9.46828 17.7004C9.43766 17.7722 9.42187 17.8494 9.42188 17.9275C9.42187 18.0056 9.43766 18.0828 9.46828 18.1546C9.4989 18.2264 9.54372 18.2913 9.60006 18.3453C9.65639 18.3994 9.72306 18.4415 9.79608 18.4691C9.86909 18.4967 9.94694 18.5092 10.0249 18.506H21.2049C21.3542 18.4998 21.4953 18.4361 21.5987 18.3283C21.7021 18.2205 21.7599 18.0769 21.7599 17.9275C21.7599 17.7781 21.7021 17.6345 21.5987 17.5267C21.4953 17.4189 21.3542 17.3552 21.2049 17.349V17.349Z" fill="black"/>
<path d="M16.194 21.205H10.025C9.87173 21.205 9.72471 21.2659 9.61631 21.3743C9.50792 21.4827 9.44702 21.6297 9.44702 21.783C9.44702 21.9363 9.50792 22.0833 9.61631 22.1917C9.72471 22.3001 9.87173 22.361 10.025 22.361H16.194C16.3473 22.361 16.4943 22.3001 16.6027 22.1917C16.7111 22.0833 16.772 21.9363 16.772 21.783C16.772 21.6297 16.7111 21.4827 16.6027 21.3743C16.4943 21.2659 16.3473 21.205 16.194 21.205V21.205Z" fill="black"/>
<path d="M21.2049 13.494H10.0249C9.94694 13.4908 9.86909 13.5033 9.79608 13.5309C9.72306 13.5585 9.65639 13.6006 9.60006 13.6547C9.54372 13.7087 9.4989 13.7736 9.46828 13.8454C9.43766 13.9172 9.42187 13.9944 9.42188 14.0725C9.42187 14.1506 9.43766 14.2278 9.46828 14.2996C9.4989 14.3714 9.54372 14.4363 9.60006 14.4903C9.65639 14.5444 9.72306 14.5865 9.79608 14.6141C9.86909 14.6417 9.94694 14.6542 10.0249 14.651H21.2049C21.3542 14.6448 21.4953 14.5811 21.5987 14.4733C21.7021 14.3655 21.7599 14.2219 21.7599 14.0725C21.7599 13.9231 21.7021 13.7795 21.5987 13.6717C21.4953 13.5639 21.3542 13.5002 21.2049 13.494V13.494Z" fill="black"/>
</svg>
