<svg width="15" height="16" viewBox="0 0 15 16" fill="none" xmlns="http://www.w3.org/2000/svg">
<path d="M2.13959 15.5H8.93879C8.9855 15.5005 9.03185 15.4917 9.07509 15.474C9.11833 15.4564 9.15758 15.4302 9.1905 15.3971L14.9113 9.68284C14.9403 9.65198 14.9636 9.61618 14.98 9.57713C14.9879 9.56049 14.9946 9.5433 15 9.5257C15 9.50856 15 9.48856 15 9.47141C15 9.45427 15 9.43713 15 9.41999V2.62857C14.9993 2.06722 14.7769 1.52883 14.3811 1.13029C13.9853 0.731759 13.4481 0.505267 12.8862 0.5H2.10526C1.54715 0.500756 1.0121 0.722549 0.617455 1.11675C0.222806 1.51094 0.000758684 2.04537 1.91221e-06 2.60285V13.3571C-0.000373973 13.6382 0.05467 13.9165 0.161991 14.1763C0.269312 14.4361 0.426808 14.6722 0.625487 14.8712C0.824166 15.0701 1.06014 15.2281 1.31993 15.336C1.57972 15.4439 1.85824 15.4996 2.13959 15.5ZM9.29062 14.28V10.5657C9.29062 10.4625 9.31096 10.3603 9.3505 10.265C9.39003 10.1697 9.44797 10.0831 9.52101 10.0101C9.59406 9.93715 9.68077 9.87928 9.77621 9.83979C9.87164 9.80031 9.97393 9.77998 10.0772 9.77998H13.7958L9.29062 14.28ZM0.709384 2.60285C0.71014 2.23481 0.856845 1.88206 1.11739 1.62182C1.37793 1.36158 1.73108 1.21504 2.09954 1.21428H12.8862C13.263 1.21427 13.6246 1.36281 13.8924 1.62764C14.1602 1.89247 14.3126 2.25217 14.3164 2.62857V9.07141H10.083C9.68638 9.07216 9.30614 9.22926 9.02493 9.50855C8.74371 9.78784 8.58425 10.1667 8.58124 10.5628V14.7857H2.13959C1.76028 14.7857 1.3965 14.6352 1.12828 14.3673C0.860066 14.0994 0.709384 13.736 0.709384 13.3571V2.60285Z" fill="#23366F"/>
<path d="M3.21888 4.06292H11.8001C11.8949 4.06292 11.9859 4.02529 12.0529 3.95831C12.12 3.89134 12.1577 3.8005 12.1577 3.70578C12.1577 3.61106 12.12 3.52021 12.0529 3.45324C11.9859 3.38626 11.8949 3.34863 11.8001 3.34863H3.21888C3.12405 3.34863 3.03311 3.38626 2.96605 3.45324C2.899 3.52021 2.86133 3.61106 2.86133 3.70578C2.86133 3.8005 2.899 3.89134 2.96605 3.95831C3.03311 4.02529 3.12405 4.06292 3.21888 4.06292Z" fill="#23366F"/>
<path d="M3.21888 6.91741H11.8001C11.8949 6.91741 11.9859 6.87978 12.0529 6.81281C12.12 6.74583 12.1577 6.65499 12.1577 6.56027C12.1577 6.46555 12.12 6.37471 12.0529 6.30773C11.9859 6.24075 11.8949 6.20313 11.8001 6.20312H3.21888C3.12405 6.20313 3.03311 6.24075 2.96605 6.30773C2.899 6.37471 2.86133 6.46555 2.86133 6.56027C2.86133 6.65499 2.899 6.74583 2.96605 6.81281C3.03311 6.87978 3.12405 6.91741 3.21888 6.91741Z" fill="#23366F"/>
<path d="M3.21888 9.77678H6.07929C6.17412 9.77678 6.26506 9.73916 6.33212 9.67218C6.39917 9.6052 6.43684 9.51436 6.43684 9.41964C6.43684 9.32492 6.39917 9.23408 6.33212 9.1671C6.26506 9.10013 6.17412 9.0625 6.07929 9.0625H3.21888C3.12405 9.0625 3.03311 9.10013 2.96605 9.1671C2.899 9.23408 2.86133 9.32492 2.86133 9.41964C2.86133 9.51436 2.899 9.6052 2.96605 9.67218C3.03311 9.73916 3.12405 9.77678 3.21888 9.77678Z" fill="#23366F"/>
</svg>
