<svg width="32" height="30" viewBox="0 0 32 30" fill="none" xmlns="http://www.w3.org/2000/svg">
<path d="M8.85279 25H17.9184C17.9807 25.0007 18.0425 24.989 18.1001 24.9654C18.1578 24.9418 18.2101 24.907 18.254 24.8628L25.8818 17.2438C25.9205 17.2026 25.9515 17.1549 25.9733 17.1028C25.9838 17.0807 25.9928 17.0577 26 17.0343C26 17.0114 26 16.9847 26 16.9619C26 16.939 26 16.9162 26 16.8933V7.83809C25.999 7.08963 25.7025 6.37177 25.1748 5.84039C24.6471 5.30901 23.9308 5.00702 23.1815 5H8.80702C8.06286 5.00101 7.34947 5.29673 6.82327 5.82233C6.29707 6.34793 6.00101 7.0605 6 7.8038V22.1428C5.9995 22.5175 6.07289 22.8887 6.21599 23.235C6.35908 23.5814 6.56908 23.8962 6.83398 24.1616C7.09889 24.4269 7.41352 24.6375 7.7599 24.7813C8.10629 24.9252 8.47765 24.9995 8.85279 25ZM18.3875 23.3733V18.4209C18.3875 18.2834 18.4146 18.1471 18.4673 18.02C18.52 17.8929 18.5973 17.7774 18.6947 17.6802C18.7921 17.5829 18.9077 17.5057 19.0349 17.4531C19.1622 17.4004 19.2986 17.3733 19.4363 17.3733H24.3944L18.3875 23.3733ZM6.94585 7.8038C6.94685 7.31309 7.14246 6.84275 7.48985 6.49576C7.83724 6.14877 8.30811 5.95339 8.79939 5.95238H23.1815C23.684 5.95235 24.1662 6.15042 24.5233 6.50352C24.8803 6.85662 25.0835 7.33623 25.0885 7.83809V16.4286H19.4439C18.9152 16.4295 18.4082 16.639 18.0332 17.0114C17.6583 17.3838 17.4457 17.889 17.4416 18.4171V24.0476H8.85279C8.34703 24.0476 7.862 23.8469 7.50438 23.4897C7.14675 23.1325 6.94585 22.648 6.94585 22.1428V7.8038Z" fill="#D3DAD9"/>
<path d="M10.2912 9.75047H21.7328C21.8593 9.75047 21.9805 9.70031 22.0699 9.611C22.1593 9.5217 22.2096 9.40058 22.2096 9.27429C22.2096 9.14799 22.1593 9.02687 22.0699 8.93757C21.9805 8.84827 21.8593 8.7981 21.7328 8.7981H10.2912C10.1648 8.7981 10.0435 8.84827 9.95409 8.93757C9.86468 9.02687 9.81445 9.14799 9.81445 9.27429C9.81445 9.40058 9.86468 9.5217 9.95409 9.611C10.0435 9.70031 10.1648 9.75047 10.2912 9.75047Z" fill="#D3DAD9"/>
<path d="M10.2912 13.5561H21.7328C21.8593 13.5561 21.9805 13.506 22.0699 13.4167C22.1593 13.3274 22.2096 13.2062 22.2096 13.0799C22.2096 12.9537 22.1593 12.8325 22.0699 12.7432C21.9805 12.6539 21.8593 12.6038 21.7328 12.6038H10.2912C10.1648 12.6038 10.0435 12.6539 9.95409 12.7432C9.86468 12.8325 9.81445 12.9537 9.81445 13.0799C9.81445 13.2062 9.86468 13.3274 9.95409 13.4167C10.0435 13.506 10.1648 13.5561 10.2912 13.5561Z" fill="#D3DAD9"/>
<path d="M10.2912 17.3694H14.1051C14.2315 17.3694 14.3528 17.3192 14.4422 17.2299C14.5316 17.1406 14.5818 17.0195 14.5818 16.8932C14.5818 16.7669 14.5316 16.6458 14.4422 16.5565C14.3528 16.4672 14.2315 16.417 14.1051 16.417H10.2912C10.1648 16.417 10.0435 16.4672 9.95409 16.5565C9.86468 16.6458 9.81445 16.7669 9.81445 16.8932C9.81445 17.0195 9.86468 17.1406 9.95409 17.2299C10.0435 17.3192 10.1648 17.3694 10.2912 17.3694Z" fill="#D3DAD9"/>
<rect x="0.125" y="0.125" width="31.75" height="29.75" rx="7.875" stroke="#E6E6E6" stroke-width="0.25"/>
</svg>
