<svg width="27" height="27" viewBox="0 0 27 27" fill="none" xmlns="http://www.w3.org/2000/svg">
<path d="M13.2088 15.4144C13.2432 15.4513 13.2847 15.4808 13.3309 15.501C13.377 15.5213 13.4268 15.5319 13.4772 15.5322H13.523C13.5734 15.5319 13.6232 15.5213 13.6694 15.501C13.7155 15.4808 13.757 15.4513 13.7914 15.4144L16.2459 12.9599C16.3158 12.8821 16.3533 12.7806 16.3507 12.6761C16.3481 12.5716 16.3055 12.472 16.2318 12.3979C16.1581 12.3238 16.0588 12.2807 15.9543 12.2774C15.8498 12.2742 15.7481 12.3111 15.6699 12.3806L13.9092 14.1413V6.94132C13.9092 6.83282 13.8661 6.72877 13.7894 6.65205C13.7127 6.57533 13.6086 6.53223 13.5001 6.53223C13.3916 6.53223 13.2876 6.57533 13.2108 6.65205C13.1341 6.72877 13.091 6.83282 13.091 6.94132V14.1413L11.3303 12.3806C11.2522 12.3111 11.1504 12.2742 11.0459 12.2774C10.9414 12.2807 10.8421 12.3238 10.7684 12.3979C10.6947 12.472 10.6522 12.5716 10.6495 12.6761C10.6469 12.7806 10.6844 12.8821 10.7543 12.9599L13.2088 15.4144Z" fill="#23366F"/>
<path d="M7.93645 18.8179H19.0637C19.8663 18.817 20.6358 18.4978 21.2034 17.9302C21.7709 17.3627 22.0901 16.5932 22.091 15.7906V10.227C22.091 10.1185 22.0479 10.0144 21.9712 9.93769C21.8945 9.86097 21.7904 9.81787 21.6819 9.81787C21.5734 9.81787 21.4694 9.86097 21.3926 9.93769C21.3159 10.0144 21.2728 10.1185 21.2728 10.227V15.7906C21.272 16.3762 21.0389 16.9376 20.6248 17.3517C20.2107 17.7658 19.6493 17.9988 19.0637 17.9997H7.93645C7.35083 17.9988 6.78944 17.7658 6.37535 17.3517C5.96125 16.9376 5.72823 16.3762 5.72736 15.7906V10.227C5.72736 10.1185 5.68426 10.0144 5.60754 9.93769C5.53082 9.86097 5.42677 9.81787 5.31827 9.81787C5.20977 9.81787 5.10572 9.86097 5.029 9.93769C4.95228 10.0144 4.90918 10.1185 4.90918 10.227V15.7906C4.91005 16.5932 5.22927 17.3627 5.7968 17.9302C6.36434 18.4978 7.13384 18.817 7.93645 18.8179Z" fill="#23366F"/>
</svg>
