<svg width="11" height="12" viewBox="0 0 11 12" fill="none" xmlns="http://www.w3.org/2000/svg">
<path d="M9.95204 1.59035H9.02432V0.578319C9.02434 0.260226 8.78576 0 8.49433 0H1.73518C1.44362 0 1.20508 0.260226 1.20508 0.578319V9.83131C1.20508 10.1494 1.44362 10.4096 1.7352 10.4096H2.66292V11.4217C2.66292 11.7398 2.90135 12 3.19305 12H7.69893C7.99037 12 8.4028 11.8216 8.61498 11.6037L10.0959 10.0831C10.3083 9.86518 10.4819 9.42652 10.4819 9.10845L10.4822 2.16871C10.4822 1.8506 10.2436 1.59035 9.95204 1.59035ZM2.66288 2.16869V9.97589H1.73518C1.66336 9.97589 1.60267 9.90968 1.60267 9.83133V0.578319C1.60267 0.499968 1.66336 0.433757 1.73518 0.433757H8.49435C8.56604 0.433757 8.62686 0.499968 8.62686 0.578319V1.59037H3.193C2.90131 1.59037 2.66288 1.8506 2.66288 2.16869ZM9.82337 9.76725L8.34247 11.2878C8.31214 11.3189 8.27263 11.3494 8.22902 11.3784V10.0482C8.22902 9.94885 8.26573 9.85948 8.3263 9.79299C8.3874 9.72692 8.4693 9.68675 8.56035 9.68675H9.88632C9.86576 9.71722 9.8447 9.74527 9.82337 9.76725ZM10.0843 9.10841C10.0843 9.15134 10.0771 9.20108 10.0663 9.25297H8.56033C8.15812 9.25383 7.83222 9.60936 7.83141 10.0482V11.5487C7.7841 11.5591 7.73851 11.5662 7.69889 11.5662H3.193V11.5662C3.12103 11.5662 3.06049 11.5 3.06049 11.4217V2.16867C3.06049 2.09032 3.12105 2.02411 3.193 2.02411H9.95202C10.0238 2.02411 10.0845 2.09032 10.0845 2.16867L10.0843 9.10841Z" fill="#5495CF"/>
<path d="M8.49527 3.6145H4.65192C4.54205 3.6145 4.45312 3.71151 4.45312 3.83137C4.45312 3.95123 4.54207 4.04823 4.65192 4.04823H8.49527C8.60502 4.04823 8.69407 3.95123 8.69407 3.83137C8.69407 3.71151 8.60502 3.6145 8.49527 3.6145Z" fill="#5495CF"/>
<path d="M8.49527 6.5061H4.65192C4.54205 6.5061 4.45312 6.60311 4.45312 6.72297C4.45312 6.84283 4.54207 6.93984 4.65192 6.93984H8.49527C8.60502 6.93984 8.69407 6.84283 8.69407 6.72297C8.69407 6.60309 8.60502 6.5061 8.49527 6.5061Z" fill="#5495CF"/>
<path d="M6.77238 7.9519H4.65192C4.54205 7.9519 4.45312 8.04891 4.45312 8.16877C4.45312 8.28863 4.54205 8.38564 4.65192 8.38564H6.77238C6.88212 8.38564 6.97105 8.28863 6.97105 8.16877C6.97105 8.04891 6.88212 7.9519 6.77238 7.9519Z" fill="#5495CF"/>
<path d="M8.49527 5.0603H4.65192C4.54205 5.0603 4.45312 5.15731 4.45312 5.27717C4.45312 5.39703 4.54207 5.49404 4.65192 5.49404H8.49527C8.60502 5.49404 8.69407 5.39703 8.69407 5.27717C8.69407 5.15731 8.60502 5.0603 8.49527 5.0603Z" fill="#5495CF"/>
</svg>
