<svg width="21" height="18" viewBox="0 0 21 18" fill="none" xmlns="http://www.w3.org/2000/svg">
<path d="M20.4928 8.37433H7.4917C7.39195 7.89986 7.13203 7.47413 6.75558 7.16859C6.37912 6.86305 5.90903 6.69629 5.42418 6.69629C4.93933 6.69629 4.46924 6.86305 4.09278 7.16859C3.71633 7.47413 3.45641 7.89986 3.35666 8.37433H0.403533C0.293388 8.38394 0.190847 8.43449 0.116144 8.516C0.0414402 8.59751 0 8.70405 0 8.81462C0 8.92518 0.0414402 9.03173 0.116144 9.11324C0.190847 9.19474 0.293388 9.24529 0.403533 9.25491H3.35666C3.45641 9.72938 3.71633 10.1551 4.09278 10.4606C4.46924 10.7662 4.93933 10.9329 5.42418 10.9329C5.90903 10.9329 6.37912 10.7662 6.75558 10.4606C7.13203 10.1551 7.39195 9.72938 7.4917 9.25491H20.4928C20.603 9.24529 20.7055 9.19474 20.7802 9.11324C20.8549 9.03173 20.8963 8.92518 20.8963 8.81462C20.8963 8.70405 20.8549 8.59751 20.7802 8.516C20.7055 8.43449 20.603 8.38394 20.4928 8.37433ZM5.42585 10.0484C5.1815 10.0484 4.94263 9.97597 4.73945 9.84022C4.53628 9.70446 4.37792 9.5115 4.28441 9.28575C4.1909 9.05999 4.16643 8.81157 4.2141 8.57191C4.26177 8.33225 4.37944 8.11211 4.55223 7.93932C4.72502 7.76653 4.94516 7.64886 5.18482 7.60119C5.42448 7.55352 5.6729 7.57799 5.89866 7.6715C6.12441 7.76501 6.31737 7.92337 6.45313 8.12654C6.58888 8.32972 6.66135 8.56859 6.66135 8.81294C6.66135 8.97519 6.62939 9.13585 6.5673 9.28575C6.50521 9.43564 6.4142 9.57184 6.29948 9.68657C6.18475 9.80129 6.04855 9.8923 5.89866 9.95439C5.74876 10.0165 5.5881 10.0484 5.42585 10.0484Z" fill="#23366F"/>
<path d="M20.5196 1.67804H17.5363C17.4366 1.20357 17.1767 0.777841 16.8002 0.472301C16.4238 0.166761 15.9537 0 15.4688 0C14.984 0 14.5139 0.166761 14.1374 0.472301C13.761 0.777841 13.5011 1.20357 13.4013 1.67804H0.403533C0.293388 1.68765 0.190847 1.7382 0.116144 1.81971C0.0414402 1.90122 0 2.00777 0 2.11833C0 2.22889 0.0414402 2.33544 0.116144 2.41695C0.190847 2.49846 0.293388 2.54901 0.403533 2.55862H13.4013C13.5011 3.03309 13.761 3.45882 14.1374 3.76436C14.5139 4.0699 14.984 4.23666 15.4688 4.23666C15.9537 4.23666 16.4238 4.0699 16.8002 3.76436C17.1767 3.45882 17.4366 3.03309 17.5363 2.55862H20.5196C20.5807 2.56395 20.6421 2.55652 20.7002 2.53682C20.7582 2.51711 20.8115 2.48555 20.8567 2.44415C20.9018 2.40274 20.9379 2.3524 20.9626 2.29631C20.9873 2.24022 21 2.17961 21 2.11833C21 2.05705 20.9873 1.99644 20.9626 1.94035C20.9379 1.88426 20.9018 1.83391 20.8567 1.79251C20.8115 1.7511 20.7582 1.71955 20.7002 1.69984C20.6421 1.68013 20.5807 1.67271 20.5196 1.67804ZM15.4705 3.35215C15.2261 3.35215 14.9873 3.27969 14.7841 3.14393C14.5809 3.00817 14.4226 2.81521 14.3291 2.58946C14.2355 2.3637 14.2111 2.11528 14.2587 1.87562C14.3064 1.63596 14.4241 1.41582 14.5969 1.24303C14.7697 1.07024 14.9898 0.952575 15.2295 0.904903C15.4691 0.857232 15.7175 0.881698 15.9433 0.97521C16.1691 1.06872 16.362 1.22708 16.4978 1.43025C16.6335 1.63343 16.706 1.8723 16.706 2.11665C16.706 2.44433 16.5758 2.75858 16.3441 2.99028C16.1124 3.22198 15.7982 3.35215 15.4705 3.35215Z" fill="#23366F"/>
<path d="M20.4928 15.0706H14.1881C14.0884 14.5961 13.8285 14.1704 13.452 13.8649C13.0755 13.5593 12.6055 13.3926 12.1206 13.3926C11.6358 13.3926 11.1657 13.5593 10.7892 13.8649C10.4128 14.1704 10.1528 14.5961 10.0531 15.0706H0.403533C0.293388 15.0802 0.190847 15.1308 0.116144 15.2123C0.0414402 15.2938 0 15.4003 0 15.5109C0 15.6215 0.0414402 15.728 0.116144 15.8095C0.190847 15.891 0.293388 15.9416 0.403533 15.9512H10.0531C10.1528 16.4257 10.4128 16.8514 10.7892 17.1569C11.1657 17.4625 11.6358 17.6292 12.1206 17.6292C12.6055 17.6292 13.0755 17.4625 13.452 17.1569C13.8285 16.8514 14.0884 16.4257 14.1881 15.9512H20.4928C20.603 15.9416 20.7055 15.891 20.7802 15.8095C20.8549 15.728 20.8963 15.6215 20.8963 15.5109C20.8963 15.4003 20.8549 15.2938 20.7802 15.2123C20.7055 15.1308 20.603 15.0802 20.4928 15.0706ZM12.1223 16.7447C11.8779 16.7447 11.6391 16.6723 11.4359 16.5365C11.2327 16.4007 11.0743 16.2078 10.9808 15.982C10.8873 15.7563 10.8629 15.5079 10.9105 15.2682C10.9582 15.0285 11.0759 14.8084 11.2487 14.6356C11.4214 14.4628 11.6416 14.3452 11.8813 14.2975C12.1209 14.2498 12.3693 14.2743 12.5951 14.3678C12.8208 14.4613 13.0138 14.6197 13.1496 14.8228C13.2853 15.026 13.3578 15.2649 13.3578 15.5092C13.3578 15.8369 13.2276 16.1512 12.9959 16.3829C12.7642 16.6146 12.45 16.7447 12.1223 16.7447Z" fill="#23366F"/>
</svg>
