<svg width="29" height="20" viewBox="0 0 29 20" fill="none" xmlns="http://www.w3.org/2000/svg">
<path d="M13.272 16.0609C13.2721 15.9924 13.2952 15.9258 13.3374 15.8718L18.0356 10.0003L13.3374 4.12154C13.3126 4.0897 13.2943 4.05329 13.2835 4.01437C13.2728 3.97546 13.2698 3.93481 13.2747 3.89474C13.2797 3.85467 13.2925 3.81596 13.3124 3.78084C13.3323 3.74572 13.3589 3.71486 13.3908 3.69002C13.4226 3.66519 13.459 3.64687 13.4979 3.63612C13.5368 3.62536 13.5775 3.62237 13.6176 3.62732C13.6576 3.63227 13.6963 3.64507 13.7315 3.66498C13.7666 3.68489 13.7974 3.71152 13.8223 3.74336L18.6708 9.80396C18.7132 9.85784 18.7363 9.92445 18.7363 9.99306C18.7363 10.0617 18.7132 10.1283 18.6708 10.1821L13.8223 16.2428C13.7832 16.2921 13.7296 16.3281 13.6691 16.3457C13.6086 16.3632 13.5441 16.3615 13.4847 16.3407C13.4252 16.3199 13.3737 16.2811 13.3373 16.2296C13.3009 16.1782 13.2815 16.1167 13.2817 16.0537L13.272 16.0609Z" fill="#23366F"/>
</svg>
