<svg width="32" height="32" viewBox="0 0 32 32" fill="none" xmlns="http://www.w3.org/2000/svg">
<g clip-path="url(#clip0)">
<path d="M13.9643 17.277C13.9425 17.223 13.9103 17.1739 13.8694 17.1324C13.8285 17.091 13.7797 17.058 13.726 17.0355C13.6718 17.0132 13.6139 17.0012 13.5553 17H7.07039C6.9525 17 6.83944 17.0468 6.75608 17.13C6.67272 17.2132 6.62589 17.3261 6.62589 17.4439C6.62589 17.5616 6.67272 17.6745 6.75608 17.7577C6.83944 17.8409 6.9525 17.8877 7.07039 17.8877H12.4885L6.13029 24.2437C6.089 24.2846 6.05623 24.3333 6.03387 24.3869C6.01151 24.4405 6 24.498 6 24.5561C6 24.6142 6.01151 24.6717 6.03387 24.7254C6.05623 24.779 6.089 24.8277 6.13029 24.8686C6.1708 24.9106 6.21943 24.9438 6.27323 24.9664C6.32703 24.989 6.38487 25.0004 6.44322 25C6.50206 25.0001 6.56033 24.9885 6.61466 24.966C6.66899 24.9434 6.71829 24.9103 6.75971 24.8686L13.1108 18.5162V23.9263C13.1108 24.0441 13.1577 24.157 13.241 24.2402C13.3244 24.3234 13.4374 24.3702 13.5553 24.3702C13.6732 24.3702 13.7863 24.3234 13.8697 24.2402C13.953 24.157 13.9998 24.0441 13.9998 23.9263V17.451C14.0015 17.391 13.9894 17.3315 13.9643 17.277Z" fill="#5495CF"/>
<path d="M23.9133 14.1243H18.5078L24.8512 7.7744C24.8963 7.73435 24.9327 7.68553 24.9582 7.63092C24.9838 7.57632 24.9979 7.51707 24.9998 7.45682C25.0016 7.39656 24.9912 7.33656 24.969 7.28049C24.9469 7.22441 24.9135 7.17344 24.871 7.13069C24.8285 7.08795 24.7776 7.05432 24.7217 7.03187C24.6657 7.00942 24.6057 6.99863 24.5454 7.00014C24.4851 7.00165 24.4257 7.01545 24.3709 7.04067C24.3162 7.0659 24.2671 7.10204 24.2268 7.14686L17.8869 13.4896V8.0877C17.8869 7.97017 17.8402 7.85744 17.757 7.77433C17.6739 7.69122 17.5611 7.64453 17.4435 7.64453C17.3259 7.64453 17.2131 7.69122 17.1299 7.77433C17.0467 7.85744 17 7.97017 17 8.0877V14.5533C17 14.6711 17.0466 14.7842 17.1297 14.8679C17.2127 14.9516 17.3255 14.9991 17.4435 15H23.9133C24.0309 15 24.1437 14.9533 24.2268 14.8702C24.31 14.7871 24.3567 14.6744 24.3567 14.5568C24.3567 14.4393 24.31 14.3266 24.2268 14.2434C24.1437 14.1603 24.0309 14.1136 23.9133 14.1136V14.1243Z" fill="#5495CF"/>
</g>
<defs>
<clipPath id="clip0">
<rect width="32" height="32" fill="white"/>
</clipPath>
</defs>
</svg>
