<svg width="16" height="12" viewBox="0 0 16 12" fill="none" xmlns="http://www.w3.org/2000/svg">
<path d="M2.62305 11.5828C2.67931 11.5828 2.71681 11.5641 2.75431 11.5266L13.1047 1.17618C13.1797 1.10118 13.1797 0.988677 13.1047 0.913674C13.0297 0.838671 12.9172 0.838671 12.8422 0.913674L2.4918 11.2641C2.4168 11.3391 2.4168 11.4516 2.4918 11.5266C2.5293 11.5641 2.58555 11.5828 2.62305 11.5828Z" fill="#ECEEEF" stroke="#ECEEEF" stroke-width="0.2"/>
<path d="M7.60753 3.78224C7.90754 3.78224 8.20755 3.83849 8.48881 3.951C8.58257 3.9885 8.69507 3.93225 8.73257 3.83849C8.77007 3.74474 8.71382 3.63224 8.62007 3.59473C8.28255 3.46348 7.94504 3.40723 7.60753 3.40723C6.05122 3.40723 4.79492 4.66352 4.79492 6.21983C4.79492 6.55735 4.85117 6.91361 4.98243 7.23237C5.01993 7.30737 5.07618 7.34488 5.15119 7.34488C5.16994 7.34488 5.18869 7.34488 5.22619 7.32613C5.31994 7.28862 5.37619 7.17612 5.33869 7.08237C5.22619 6.81986 5.16994 6.51984 5.16994 6.21983C5.16994 4.86978 6.25748 3.78224 7.60753 3.78224Z" fill="#ECEEEF" stroke="#ECEEEF" stroke-width="0.2"/>
<path d="M7.60714 8.65647C7.40088 8.65647 7.19462 8.63772 6.98837 8.58147C6.89461 8.56272 6.78211 8.61897 6.76336 8.71272C6.74461 8.80648 6.80086 8.91898 6.89461 8.93773C7.13837 8.99398 7.36338 9.03148 7.60714 9.03148C9.16345 9.03148 10.4197 7.77519 10.4197 6.21888C10.4197 5.99387 10.3822 5.75011 10.326 5.50635C10.3072 5.4126 10.1947 5.3376 10.101 5.3751C10.0072 5.39385 9.93223 5.50635 9.96973 5.60011C10.026 5.80636 10.0447 6.01262 10.0447 6.21888C10.0447 7.56893 8.95719 8.65647 7.60714 8.65647Z" fill="#ECEEEF" stroke="#ECEEEF" stroke-width="0.2"/>
<path d="M0.107422 6.29697V6.31572C0.107422 6.37197 0.126173 6.40947 0.163674 6.44697C1.28872 7.53451 2.33876 8.35954 3.40755 8.97832C3.44505 8.99707 3.4638 8.99707 3.5013 8.99707C3.55755 8.99707 3.63256 8.95957 3.67006 8.90332C3.72631 8.80956 3.68881 8.69706 3.59505 8.6408C2.62002 8.07828 1.58873 7.272 0.557439 6.27822C3.98882 2.95934 6.68892 1.9468 9.55778 2.86559C9.65153 2.90309 9.76404 2.84684 9.80154 2.75308C9.83904 2.65933 9.78279 2.54682 9.68903 2.50932C6.67017 1.55304 3.74506 2.65933 0.182425 6.14696C0.126173 6.20321 0.107422 6.25946 0.107422 6.29697Z" fill="#ECEEEF" stroke="#ECEEEF" stroke-width="0.2"/>
<path d="M15.1059 6.33194V6.31319C15.1059 6.25694 15.0872 6.21943 15.0497 6.18193C13.9621 5.11314 12.9683 4.30686 11.9933 3.66934C11.8995 3.61309 11.787 3.63184 11.7308 3.72559C11.6745 3.81934 11.6933 3.93185 11.787 3.9881C12.7058 4.56937 13.6433 5.33815 14.6746 6.33194C11.5433 9.3133 8.76816 10.3633 5.91805 9.65082C5.8243 9.63206 5.7118 9.68832 5.69305 9.78207C5.6743 9.87582 5.73055 9.98833 5.8243 10.0071C6.42432 10.1571 7.02435 10.2321 7.62437 10.2321C10.0245 10.2321 12.4246 8.99454 15.0497 6.44444C15.0872 6.42569 15.1059 6.36944 15.1059 6.33194Z" fill="#ECEEEF" stroke="#ECEEEF" stroke-width="0.2"/>
</svg>
