<svg width="32" height="33" viewBox="0 0 32 33" fill="none" xmlns="http://www.w3.org/2000/svg">
<path d="M31.1389 13.9191L18.0829 0.863141C17.8095 0.589502 17.4847 0.37243 17.1273 0.224329C16.7699 0.0762282 16.3868 0 15.9999 0C15.6131 0 15.23 0.0762282 14.8726 0.224329C14.5152 0.37243 14.1904 0.589502 13.9169 0.863141L0.869943 13.9101L0.856943 13.9231C0.454362 14.3279 0.178104 14.841 0.0617826 15.3999C-0.0545386 15.9588 -0.00590779 16.5394 0.201758 17.0712C0.409423 17.603 0.767171 18.0629 1.23147 18.3951C1.69577 18.7273 2.2466 18.9173 2.81694 18.9421C2.84694 18.9421 2.87794 18.9421 2.90794 18.9421H3.42794V28.5531C3.429 29.4673 3.79261 30.3437 4.43901 30.9901C5.0854 31.6365 5.9618 32.0001 6.87594 32.0011H11.9829C12.2317 32.0011 12.4703 31.9023 12.6462 31.7264C12.8221 31.5505 12.9209 31.3119 12.9209 31.0631V23.5321C12.9225 23.1158 13.0889 22.717 13.3837 22.423C13.6784 22.129 14.0776 21.9637 14.4939 21.9631H17.5059C17.923 21.9634 18.323 22.1292 18.6179 22.4242C18.9129 22.7191 19.0787 23.119 19.0789 23.5361V31.0631C19.0789 31.3119 19.1778 31.5505 19.3537 31.7264C19.5296 31.9023 19.7682 32.0011 20.0169 32.0011H25.1239C26.0381 32.0001 26.9145 31.6365 27.5609 30.9901C28.2073 30.3437 28.5709 29.4673 28.5719 28.5531V18.9471H29.0539C29.6363 18.9468 30.2055 18.7739 30.6897 18.4503C31.1739 18.1267 31.5514 17.6669 31.7745 17.129C31.9976 16.591 32.0563 15.999 31.9431 15.4278C31.83 14.8565 31.5502 14.3315 31.1389 13.9191V13.9191ZM29.8109 16.7631C29.7118 16.8629 29.5938 16.9421 29.4639 16.9959C29.3339 17.0498 29.1946 17.0774 29.0539 17.0771H27.6389C27.5159 17.077 27.394 17.1012 27.2802 17.1482C27.1665 17.1952 27.0631 17.2643 26.9761 17.3513C26.8891 17.4383 26.82 17.5417 26.773 17.6554C26.726 17.7692 26.7018 17.8911 26.7019 18.0141V28.5531C26.7014 28.9702 26.5355 29.37 26.2406 29.6648C25.9458 29.9597 25.546 30.1256 25.1289 30.1261H20.9589V23.5321C20.9579 22.618 20.5943 21.7416 19.9479 21.0952C19.3015 20.4488 18.4251 20.0852 17.5109 20.0841H14.4939C13.5798 20.0852 12.7034 20.4488 12.057 21.0952C11.4106 21.7416 11.047 22.618 11.0459 23.5321V30.1261H6.87594C6.45892 30.1256 6.05913 29.9597 5.76425 29.6648C5.46937 29.37 5.30347 28.9702 5.30294 28.5531V18.0091C5.30307 17.8861 5.27893 17.7642 5.23189 17.6504C5.18484 17.5367 5.11583 17.4333 5.0288 17.3463C4.94176 17.2593 4.83841 17.1902 4.72467 17.1432C4.61093 17.0962 4.48903 17.072 4.36594 17.0721H2.96594H2.92194C2.71183 17.068 2.50759 17.0021 2.33469 16.8827C2.16179 16.7632 2.02791 16.5955 1.94973 16.4004C1.87155 16.2053 1.85255 15.9915 1.89509 15.7857C1.93763 15.5799 2.03983 15.3912 2.18894 15.2431V15.2431L15.2389 2.18914C15.3382 2.08954 15.4562 2.01052 15.5861 1.95661C15.716 1.90269 15.8553 1.87493 15.9959 1.87493C16.1366 1.87493 16.2759 1.90269 16.4058 1.95661C16.5357 2.01052 16.6536 2.08954 16.7529 2.18914L29.8029 15.2391L29.8089 15.2451C30.0091 15.4461 30.1214 15.7181 30.1214 16.0016C30.1214 16.2852 30.0091 16.5572 29.8089 16.7581L29.8109 16.7631Z" fill="#23366F"/>
</svg>
