<svg width="25" height="24" viewBox="0 0 25 24" fill="none" xmlns="http://www.w3.org/2000/svg">
<g clip-path="url(#clip0)">
<path d="M23.9332 10.392C23.9325 10.3914 23.932 10.3907 23.9314 10.3902L14.1413 0.600404C13.724 0.182923 13.1692 -0.046875 12.579 -0.046875C11.9889 -0.046875 11.4341 0.182923 11.0166 0.600404L1.23159 10.3852C1.2283 10.3885 1.22482 10.392 1.22171 10.3953C0.36477 11.2572 0.366235 12.6555 1.22592 13.5152C1.61868 13.9082 2.13723 14.1356 2.69186 14.1596C2.71457 14.1618 2.73727 14.1629 2.76016 14.1629H3.15018V21.3674C3.15018 22.7932 4.31033 23.9532 5.73618 23.9532H9.56639C9.95475 23.9532 10.2695 23.6382 10.2695 23.25V17.6016C10.2695 16.951 10.7989 16.4218 11.4494 16.4218H13.7086C14.3592 16.4218 14.8884 16.951 14.8884 17.6016V23.25C14.8884 23.6382 15.2031 23.9532 15.5915 23.9532H19.4217C20.8477 23.9532 22.0077 22.7932 22.0077 21.3674V14.1629H22.3695C22.9595 14.1629 23.5143 13.9331 23.932 13.5154C24.7926 12.6544 24.7929 11.2535 23.9332 10.392ZM22.9375 12.5211C22.7857 12.6729 22.5839 12.7566 22.3695 12.7566H21.3046C20.9162 12.7566 20.6014 13.0714 20.6014 13.4597V21.3674C20.6014 22.0177 20.0723 22.5469 19.4217 22.5469H16.2946V17.6016C16.2946 16.1758 15.1346 15.0156 13.7086 15.0156H11.4494C10.0234 15.0156 8.86326 16.1758 8.86326 17.6016V22.5469H5.73618C5.08579 22.5469 4.55643 22.0177 4.55643 21.3674V13.4597C4.55643 13.0714 4.24167 12.7566 3.8533 12.7566H2.80667C2.79568 12.7559 2.78488 12.7553 2.77371 12.7552C2.56424 12.7515 2.36777 12.6684 2.22055 12.521C1.90744 12.2079 1.90744 11.6983 2.22055 11.385C2.22073 11.385 2.22073 11.3848 2.22091 11.3846L2.22146 11.3841L12.0112 1.59467C12.1628 1.44287 12.3644 1.35938 12.579 1.35938C12.7934 1.35938 12.995 1.44287 13.1468 1.59467L22.9344 11.382C22.9359 11.3835 22.9375 11.385 22.939 11.3864C23.2504 11.7001 23.2499 12.2086 22.9375 12.5211Z" fill="#23366F" fill-opacity="0.8"/>
</g>
<defs>
<clipPath id="clip0">
<rect width="24" height="24" fill="white" transform="translate(0.533203)"/>
</clipPath>
</defs>
</svg>
