<svg width="14" height="14" viewBox="0 0 14 14" fill="none" xmlns="http://www.w3.org/2000/svg">
<path d="M12.7272 4.72033V2.89851C12.7267 2.46759 12.5552 2.05449 12.2505 1.74978C11.9458 1.44508 11.5327 1.27364 11.1018 1.27306H8.55123C8.55123 1.27306 8.55123 1.25561 8.5316 1.24906L7.1876 0.112332C7.13603 0.0688014 7.07072 0.0449219 7.00323 0.0449219C6.93575 0.0449219 6.87044 0.0688014 6.81887 0.112332L5.4356 1.27306H2.8785C2.45279 1.27364 2.04468 1.44301 1.74366 1.74403C1.44263 2.04506 1.27326 2.45317 1.27268 2.87888V4.72033C0.936833 4.89457 0.655855 5.1585 0.460965 5.4828C0.266075 5.8071 0.164902 6.17909 0.168685 6.55743V11.7938C0.154593 12.3182 0.349041 12.8267 0.709381 13.2079C1.06972 13.5891 1.56654 13.8118 2.09087 13.8272H11.9091C12.4334 13.8118 12.9302 13.5891 13.2905 13.2079C13.6509 12.8267 13.8453 12.3182 13.8312 11.7938V6.55743C13.8353 6.17904 13.7342 5.80695 13.5393 5.4826C13.3444 5.15826 13.0632 4.89437 12.7272 4.72033ZM7.00214 0.705787L7.67196 1.27306H6.32578L7.00214 0.705787ZM1.81814 2.88761C1.81872 2.60656 1.93062 2.33718 2.12935 2.13845C2.32808 1.93972 2.59745 1.82782 2.8785 1.82724H11.1018C11.3892 1.82723 11.6651 1.94066 11.8693 2.1429C12.0736 2.34513 12.1898 2.61981 12.1927 2.90724V5.50361L7.98832 8.88979H6.00941L1.81814 5.50579V2.88761ZM0.740321 11.7938V6.55743C0.741887 6.22447 0.852213 5.90115 1.0545 5.6367L1.35123 5.8767L5.45087 9.17561L1.03705 12.7014C0.842691 12.4389 0.738588 12.1204 0.740321 11.7938ZM11.9091 13.2534H2.09087C1.87379 13.2523 1.66057 13.196 1.47123 13.0898L6.00941 9.46361H7.99051L12.5287 13.0898C12.3393 13.196 12.1261 13.2523 11.9091 13.2534ZM13.2596 11.7938C13.2613 12.1204 13.1572 12.4389 12.9629 12.7014L8.54905 9.17561L12.5549 5.93997C12.6014 5.92013 12.6415 5.88763 12.6705 5.84615L12.9432 5.62797C13.1486 5.89512 13.2598 6.22267 13.2596 6.55961V11.7938Z" fill="#5495CF"/>
<path d="M3.72781 3.99467H10.2733C10.3456 3.99467 10.415 3.96594 10.4661 3.91479C10.5173 3.86365 10.546 3.79428 10.546 3.72195C10.546 3.64961 10.5173 3.58025 10.4661 3.5291C10.415 3.47795 10.3456 3.44922 10.2733 3.44922H3.72781C3.65547 3.44922 3.5861 3.47795 3.53496 3.5291C3.48381 3.58025 3.45508 3.64961 3.45508 3.72195C3.45508 3.79428 3.48381 3.86365 3.53496 3.91479C3.5861 3.96594 3.65547 3.99467 3.72781 3.99467Z" fill="#5495CF"/>
<path d="M10.546 5.90072C10.5437 5.82991 10.514 5.76276 10.4631 5.71349C10.4122 5.66422 10.3441 5.63668 10.2733 5.63672H3.72781C3.65547 5.63672 3.5861 5.66545 3.53496 5.7166C3.48381 5.76774 3.45508 5.83711 3.45508 5.90945C3.45508 5.98178 3.48381 6.05115 3.53496 6.10229C3.5861 6.15344 3.65547 6.18217 3.72781 6.18217H10.2733C10.3098 6.18219 10.346 6.17486 10.3797 6.16061C10.4134 6.14636 10.4438 6.12549 10.4693 6.09923C10.4947 6.07298 10.5146 6.04187 10.5278 6.00777C10.541 5.97367 10.5472 5.93726 10.546 5.90072Z" fill="#5495CF"/>
</svg>
