<svg width="308" height="112" viewBox="0 0 308 112" fill="none" xmlns="http://www.w3.org/2000/svg">
<g opacity="0.16" clip-path="url(#clip0)">
<path d="M28.0358 26.3384L10 12.2578V111.639H641.254V32.4986L623.218 20.9324L605.182 50.8787L587.146 47.0317L569.11 69.46L551.075 60.6597L533.039 87.1864L515.003 72.6533L496.967 99.0794L478.931 76.1986L460.895 84.1189L442.86 39.5389L424.824 32.6746L406.788 48.3392L388.752 53.6194L370.716 25.4583L352.681 39.5389L334.645 46.3277L316.609 35.1387L298.573 69.46L280.537 58.8996L262.501 84.4206L244.466 46.5791L226.43 74.7402L208.394 96.7411L190.358 54.4994L172.322 62.4197L154.287 36.0187L136.251 46.5791L118.215 22.8182L100.179 58.8996L82.1433 78.2604L64.1075 37.7788L46.0716 48.3392L28.0358 26.3384Z" fill="#5CBBEB"/>
</g>
<g clip-path="url(#clip1)">
<path d="M10 12.2578L28.0358 26.3384L46.0716 48.3392L64.1075 37.7788L82.1433 78.2603L100.179 58.8996L118.215 22.8182L136.251 46.5791L154.287 36.0187L172.322 62.4197L190.358 54.4994L208.394 96.7411L226.43 74.7402L244.466 46.5791L262.501 84.4206L280.537 58.8996L298.573 69.46L316.609 35.1387L334.645 46.3277L352.681 39.5389L370.716 25.4583L388.752 53.6194L406.788 48.3392L424.824 32.6746L442.86 39.5389L460.895 84.1189L478.931 76.1986L496.967 99.0794L515.003 72.6533L533.039 87.1864L551.075 60.6597L569.11 69.46L587.146 47.0317L605.182 50.8787L623.218 20.9324L641.254 32.4986" stroke="#5CBBEB" stroke-width="0.751492"/>
</g>
<rect x="24.636" y="22.5969" width="6.75149" height="6.75149" rx="3.37575" fill="#5CBBEB" stroke="white" stroke-width="0.751492"/>
<rect x="42.6721" y="44.5764" width="6.75149" height="6.75149" rx="3.37575" fill="#5CBBEB" stroke="white" stroke-width="0.751492"/>
<rect x="60.7082" y="34.1096" width="6.75149" height="6.75149" rx="3.37575" fill="#5CBBEB" stroke="white" stroke-width="0.751492"/>
<rect x="78.7434" y="74.5793" width="6.75149" height="6.75149" rx="3.37575" fill="#5CBBEB" stroke="white" stroke-width="0.751492"/>
<rect x="6.60082" y="8.2932" width="6.75149" height="6.75149" rx="3.37575" fill="#5CBBEB" stroke="white" stroke-width="0.751492"/>
<rect x="114.816" y="19.1086" width="6.75149" height="6.75149" rx="3.37575" fill="#5CBBEB" stroke="white" stroke-width="0.751492"/>
<rect x="132.851" y="43.1809" width="6.75149" height="6.75149" rx="3.37575" fill="#5CBBEB" stroke="white" stroke-width="0.751492"/>
<rect x="150.887" y="32.7141" width="6.75149" height="6.75149" rx="3.37575" fill="#5CBBEB" stroke="white" stroke-width="0.751492"/>
<rect x="168.923" y="58.8801" width="6.75149" height="6.75149" rx="3.37575" fill="#5CBBEB" stroke="white" stroke-width="0.751492"/>
<rect x="96.7795" y="55.3909" width="6.75149" height="6.75149" rx="3.37575" fill="#5CBBEB" stroke="white" stroke-width="0.751492"/>
<rect x="204.994" y="93.0696" width="6.75149" height="6.75149" rx="3.37575" fill="#5CBBEB" stroke="white" stroke-width="0.751492"/>
<rect x="223.031" y="71.0901" width="6.75149" height="6.75149" rx="3.37575" fill="#5CBBEB" stroke="white" stroke-width="0.751492"/>
<rect x="241.066" y="43.1809" width="6.75149" height="6.75149" rx="3.37575" fill="#5CBBEB" stroke="white" stroke-width="0.751492"/>
<rect x="259.102" y="80.8586" width="6.75149" height="6.75149" rx="3.37575" fill="#5CBBEB" stroke="white" stroke-width="0.751492"/>
<rect x="277.138" y="55.3909" width="6.75149" height="6.75149" rx="3.37575" fill="#5CBBEB" stroke="white" stroke-width="0.751492"/>
<rect x="186.958" y="51.2043" width="6.75149" height="6.75149" rx="3.37575" fill="#5CBBEB" stroke="white" stroke-width="0.751492"/>
<defs>
<clipPath id="clip0">
<rect width="271" height="99.3809" fill="white" transform="translate(10 12.2578)"/>
</clipPath>
<clipPath id="clip1">
<rect width="271" height="86.8216" fill="white" transform="translate(10 12.2578)"/>
</clipPath>
</defs>
</svg>
