<svg width="30" height="25" viewBox="0 0 30 25" fill="none" xmlns="http://www.w3.org/2000/svg">
<g opacity="1">
<path d="M25.778 4.64101H20.3363C20.1667 3.35742 19.5316 2.17874 18.5493 1.32481C17.567 0.470877 16.3046 0 14.9976 0C13.6906 0 12.4283 0.470877 11.446 1.32481C10.4637 2.17874 9.82848 3.35742 9.65891 4.64101H4.22202C3.06786 4.6782 1.97563 5.16697 1.18461 6.00025C0.393592 6.83354 -0.0317214 7.9434 0.00184621 9.08668V20.5543C0.00184621 23.0025 1.91793 25 4.22202 25H25.778C28.106 25 29.9982 23.0025 29.9982 20.5543V9.08668C30.0317 7.9434 29.6064 6.83354 28.8154 6.00025C28.0244 5.16697 26.9321 4.6782 25.778 4.64101ZM15 1.17747C15.9902 1.17943 16.9478 1.52817 17.7035 2.16201C18.4591 2.79585 18.9641 3.67395 19.1292 4.64101H10.866C11.0312 3.67315 11.5369 2.79442 12.2936 2.16048C13.0502 1.52654 14.009 1.17831 15 1.17747ZM28.7431 20.5543C28.7756 21.3672 28.482 22.1598 27.9264 22.759C27.3709 23.3581 26.5985 23.7152 25.778 23.7522H4.22202C3.40153 23.7152 2.62914 23.3581 2.07357 22.759C1.518 22.1598 1.22439 21.3672 1.25688 20.5543V9.08668C1.22439 8.2738 1.518 7.48122 2.07357 6.88204C2.62914 6.28287 3.40153 5.92581 4.22202 5.88884H25.778C26.5985 5.92581 27.3709 6.28287 27.9264 6.88204C28.482 7.48122 28.7756 8.2738 28.7431 9.08668V20.5543Z" fill="#5495CF"/>
<path d="M19.4362 14.2393H15.604V10.4436C15.604 10.2857 15.5407 10.1342 15.4279 10.0225C15.3152 9.91088 15.1623 9.84814 15.0028 9.84814C14.8434 9.84814 14.6905 9.91088 14.5777 10.0225C14.465 10.1342 14.4016 10.2857 14.4016 10.4436V14.2393H10.5695C10.4107 14.2393 10.2584 14.3017 10.1461 14.413C10.0338 14.5242 9.9707 14.675 9.9707 14.8323C9.9707 14.9896 10.0338 15.1405 10.1461 15.2517C10.2584 15.3629 10.4107 15.4254 10.5695 15.4254H14.4016V19.2211C14.4016 19.3784 14.4647 19.5292 14.577 19.6404C14.6893 19.7516 14.8416 19.8141 15.0004 19.8141C15.1592 19.8141 15.3115 19.7516 15.4238 19.6404C15.5361 19.5292 15.5992 19.3784 15.5992 19.2211V15.4254H19.4314C19.5902 15.4254 19.7425 15.3629 19.8548 15.2517C19.9671 15.1405 20.0301 14.9896 20.0301 14.8323C20.0301 14.675 19.9671 14.5242 19.8548 14.413C19.7425 14.3017 19.5902 14.2393 19.4314 14.2393H19.4362Z" fill="#5495CF"/>
</g>
</svg>
