<svg width="60" height="64" viewBox="0 0 60 64" fill="none" xmlns="http://www.w3.org/2000/svg">
<path fill-rule="evenodd" clip-rule="evenodd" d="M0 11.7695C0 5.69441 4.92487 0.769531 11 0.769531H44.6354C50.7105 0.769531 55.6354 5.6944 55.6354 11.7695V24.79C55.6354 25.3423 55.1877 25.79 54.6354 25.79C54.0831 25.79 53.6354 25.3423 53.6354 24.79V11.7695C53.6354 6.79897 49.6059 2.76953 44.6354 2.76953H11C6.02944 2.76953 2 6.79897 2 11.7695V52.9993C2 57.9699 6.02944 61.9993 11 61.9993H30.8177C31.37 61.9993 31.8177 62.447 31.8177 62.9993C31.8177 63.5516 31.37 63.9993 30.8177 63.9993H11C4.92487 63.9993 0 59.0744 0 52.9993V11.7695ZM9.73031 18.3823C9.73031 17.83 10.178 17.3823 10.7303 17.3823H44.9051C45.4574 17.3823 45.9051 17.83 45.9051 18.3823C45.9051 18.9345 45.4574 19.3823 44.9051 19.3823H10.7303C10.178 19.3823 9.73031 18.9345 9.73031 18.3823ZM9.73031 32.3844C9.73031 31.8321 10.178 31.3844 10.7303 31.3844H23.3085C23.8608 31.3844 24.3085 31.8321 24.3085 32.3844C24.3085 32.9367 23.8608 33.3844 23.3085 33.3844H10.7303C10.178 33.3844 9.73031 32.9367 9.73031 32.3844ZM9.73031 46.3866C9.73031 45.8343 10.178 45.3866 10.7303 45.3866H23.3085C23.8608 45.3866 24.3085 45.8343 24.3085 46.3866C24.3085 46.9389 23.8608 47.3866 23.3085 47.3866H10.7303C10.178 47.3866 9.73031 46.9389 9.73031 46.3866Z" fill="#23366F"/>
<path fill-rule="evenodd" clip-rule="evenodd" d="M43.9648 29.0042C47.5289 28.9228 51.0206 30.0214 53.9077 32.1311C56.7946 34.2406 58.9183 37.2448 59.9573 40.6846C60.117 41.2133 59.8179 41.7713 59.2892 41.931C58.7605 42.0907 58.2024 41.7916 58.0427 41.2629C57.1286 38.2365 55.2613 35.5972 52.7277 33.7459C50.1943 31.8947 47.1331 30.9323 44.0105 31.0037C40.8878 31.0751 37.8725 32.1763 35.4242 34.1415C32.9757 36.1069 31.2282 38.829 30.4503 41.8942C29.6723 44.9596 29.9071 48.198 31.1185 51.1153C32.3299 54.0326 34.4506 56.4674 37.1554 58.0505C39.86 59.6335 43.0013 60.2789 46.101 59.8894C49.2008 59.4999 52.0913 58.0967 54.3315 55.8912C54.725 55.5038 55.3582 55.5087 55.7456 55.9023C56.1331 56.2959 56.1281 56.929 55.7346 57.3165C53.1833 59.8282 49.888 61.4293 46.3503 61.8738C42.8126 62.3183 39.2287 61.5814 36.1452 59.7766C33.0618 57.9719 30.6487 55.199 29.2714 51.8823C27.8943 48.5657 27.6276 44.8857 28.5117 41.4022C29.3959 37.9187 31.3829 34.8208 34.1723 32.5818C36.9619 30.3427 40.4006 29.0857 43.9648 29.0042ZM43.0738 39.2808C43.6261 39.2808 44.0738 39.7285 44.0738 40.2808V47.137H49.1655C49.7178 47.137 50.1655 47.5847 50.1655 48.137C50.1655 48.6893 49.7178 49.137 49.1655 49.137H43.0738C42.5216 49.137 42.0738 48.6893 42.0738 48.137V40.2808C42.0738 39.7285 42.5216 39.2808 43.0738 39.2808Z" fill="#23366F"/>
<path fill-rule="evenodd" clip-rule="evenodd" d="M56.5285 55.2079C57.055 55.3386 57.3812 55.8653 57.2637 56.3949L56.3173 60.6619C56.1978 61.2011 55.6637 61.5412 55.1245 61.4216C54.5854 61.302 54.2452 60.768 54.3648 60.2288L55.1001 56.9138L51.414 55.9982C50.878 55.8651 50.5514 55.3226 50.6846 54.7866C50.8177 54.2506 51.3601 53.9241 51.8961 54.0572L56.5285 55.2079Z" fill="#23366F"/>
</svg>
