<svg width="25" height="24" viewBox="0 0 25 24" fill="none" xmlns="http://www.w3.org/2000/svg">
<g clip-path="url(#clip0)">
<g clip-path="url(#clip1)">
<path d="M21.82 14.4764H21.2846V11.6263C21.2846 10.5621 20.4188 9.69622 19.3545 9.69622H18.7077L20.5943 6.12287C20.7907 5.75077 20.8304 5.32448 20.7058 4.92256C20.5811 4.52018 20.3068 4.1905 19.9334 3.99423L12.6786 0.181113C11.9092 -0.223333 10.9533 0.0725013 10.5477 0.840469L5.87214 9.69622H4.70737C3.64314 9.69622 2.77734 10.5621 2.77734 11.6263V22.0699C2.77734 23.1341 3.64314 24 4.70737 24H19.3546C20.4188 24 21.2847 23.1341 21.2847 22.0699V19.2198H21.8201C22.079 19.2198 22.2888 19.0099 22.2888 18.7511V14.9452C22.2888 14.6863 22.0789 14.4764 21.82 14.4764ZM11.3768 1.2782C11.5414 0.966472 11.9297 0.84661 12.2424 1.01096L19.4973 4.82408C19.6487 4.90363 19.7599 5.03718 19.8104 5.20007C19.8607 5.36245 19.8447 5.53472 19.7653 5.68514L17.6476 9.69622H16.3893L17.5854 7.4308C17.6435 7.32069 17.6554 7.19206 17.6185 7.07314C17.5817 6.95426 17.4991 6.85493 17.3889 6.79699C17.0818 6.6356 16.8562 6.36456 16.7537 6.0339C16.6515 5.70403 16.684 5.3541 16.8453 5.04857C16.9035 4.93846 16.9154 4.80983 16.8785 4.6909C16.8417 4.57203 16.759 4.4727 16.6489 4.41476L14.1887 3.12173C13.9599 3.0015 13.6768 3.08911 13.556 3.31781C13.2223 3.94998 12.435 4.19318 11.8011 3.86008C11.5723 3.73984 11.2892 3.8275 11.1684 4.05616L8.19062 9.69617H6.93229L11.3768 1.2782ZM15.8582 6.31145C15.9877 6.72921 16.231 7.09175 16.5599 7.36503L15.3291 9.69622H9.25077L11.802 4.86416C12.6463 5.10074 13.5607 4.81817 14.1229 4.14635L15.8405 5.04913C15.7245 5.45929 15.729 5.89463 15.8582 6.31145ZM20.3471 22.0699C20.3471 22.6172 19.9019 23.0625 19.3546 23.0625H4.70737C4.16009 23.0625 3.71486 22.6172 3.71486 22.0699V11.6263C3.71486 11.079 4.16009 10.6337 4.70737 10.6337H19.3546C19.9019 10.6337 20.3471 11.079 20.3471 11.6263V14.4764H18.5168C17.2091 14.4764 16.1451 15.5403 16.1451 16.8481C16.1451 18.1559 17.209 19.2199 18.5168 19.2199H20.3471V22.0699ZM21.3513 18.2823H18.5168C17.7259 18.2823 17.0826 17.6389 17.0826 16.8481C17.0826 16.0573 17.7259 15.4139 18.5168 15.4139H21.3513V18.2823Z" fill="#23366F"/>
</g>
</g>
<defs>
<clipPath id="clip0">
<rect width="24" height="24" fill="white" transform="translate(0.533203)"/>
</clipPath>
<clipPath id="clip1">
<rect width="24" height="24" fill="white" transform="translate(0.533203)"/>
</clipPath>
</defs>
</svg>
