<svg width="27" height="32" viewBox="0 0 27 32" fill="none" xmlns="http://www.w3.org/2000/svg">
<path d="M25.391 19.3H24.677V15.5C24.6757 14.8188 24.4047 14.1658 23.9233 13.6838C23.4419 13.2019 22.7892 12.9301 22.108 12.928H21.246L23.761 8.164C23.8897 7.91984 23.9689 7.65272 23.9943 7.3779C24.0196 7.10308 23.9906 6.82596 23.9088 6.56239C23.8269 6.29881 23.694 6.05395 23.5174 5.8418C23.3409 5.62965 23.1243 5.45437 22.88 5.326L13.202 0.241999C12.7085 -0.0170501 12.1324 -0.0699983 11.6 0.0947468C11.0675 0.259492 10.622 0.628507 10.361 1.121L4.127 12.928H2.574C1.89192 12.9288 1.23798 13.2 0.755489 13.6821C0.273 14.1642 0.00132293 14.8179 0 15.5V29.427C0.000794436 30.1093 0.27227 30.7635 0.754845 31.2459C1.23742 31.7282 1.89167 31.9995 2.574 32H22.108C22.7903 31.9995 23.4446 31.7282 23.9272 31.2459C24.4097 30.7635 24.6812 30.1093 24.682 29.427V25.627H25.396C25.5612 25.6257 25.7192 25.559 25.8354 25.4415C25.9516 25.324 26.0165 25.1652 26.016 25V19.927C26.016 19.7612 25.9502 19.6023 25.8329 19.4851C25.7157 19.3678 25.5568 19.302 25.391 19.302V19.3ZM11.466 1.7C11.5726 1.50029 11.7538 1.3508 11.9702 1.28412C12.1865 1.21744 12.4205 1.23896 12.621 1.344L22.294 6.428C22.3929 6.47983 22.4806 6.55066 22.5522 6.63645C22.6237 6.72223 22.6775 6.82129 22.7107 6.92793C22.7439 7.03457 22.7557 7.1467 22.7454 7.25791C22.7352 7.36912 22.7031 7.47721 22.651 7.576L19.827 12.924H18.15L19.744 9.904C19.7825 9.83142 19.8063 9.75194 19.8141 9.67013C19.8218 9.58832 19.8133 9.50579 19.789 9.42728C19.7648 9.34876 19.7253 9.27581 19.6728 9.21261C19.6202 9.14941 19.5557 9.09721 19.483 9.059C19.2821 8.95366 19.104 8.80974 18.9588 8.63546C18.8135 8.46119 18.7041 8.25999 18.6368 8.04338C18.5695 7.82677 18.5455 7.599 18.5663 7.37312C18.5871 7.14724 18.6522 6.92767 18.758 6.727C18.8352 6.58018 18.851 6.40872 18.8018 6.25029C18.7527 6.09186 18.6427 5.95939 18.496 5.882L15.216 4.158C15.0693 4.08112 14.8981 4.06553 14.7399 4.11464C14.5817 4.16375 14.4494 4.27355 14.372 4.42C14.1568 4.82536 13.7897 5.12899 13.3512 5.26448C12.9127 5.39997 12.4384 5.35629 12.032 5.143C11.9595 5.10478 11.8802 5.08122 11.7986 5.07365C11.717 5.06609 11.6347 5.07467 11.5564 5.09891C11.4782 5.12314 11.4054 5.16256 11.3424 5.21491C11.2793 5.26726 11.2272 5.33151 11.189 5.404L7.218 12.928H5.54L11.466 1.7ZM17.442 8.411C17.6104 8.96032 17.9353 9.44859 18.377 9.816L16.736 12.924H8.636L12.036 6.482C12.5902 6.63635 13.1771 6.62811 13.7267 6.45825C14.2763 6.2884 14.7655 5.9641 15.136 5.524L17.426 6.724C17.2657 7.27708 17.2713 7.86505 17.442 8.415V8.411ZM23.427 29.423C23.4275 29.7737 23.289 30.1103 23.0417 30.3591C22.7945 30.6078 22.4587 30.7484 22.108 30.75H2.574C2.22311 30.7497 1.88665 30.6103 1.63844 30.3623C1.39022 30.1142 1.25053 29.7779 1.25 29.427V15.5C1.25053 15.149 1.39019 14.8126 1.63837 14.5644C1.88656 14.3162 2.22302 14.1765 2.574 14.176H22.108C22.4581 14.1778 22.7933 14.3181 23.0404 14.5661C23.2875 14.8142 23.4265 15.1499 23.427 15.5V19.3H20.986C20.5708 19.3 20.1596 19.3818 19.776 19.5407C19.3923 19.6996 19.0437 19.9325 18.7501 20.2261C18.4565 20.5197 18.2236 20.8683 18.0647 21.252C17.9058 21.6356 17.824 22.0468 17.824 22.462C17.824 22.8772 17.9058 23.2884 18.0647 23.672C18.2236 24.0557 18.4565 24.4043 18.7501 24.6979C19.0437 24.9915 19.3923 25.2244 19.776 25.3833C20.1596 25.5422 20.5708 25.624 20.986 25.624H23.427V29.423ZM24.766 24.372H20.986C20.4789 24.372 19.9926 24.1706 19.634 23.812C19.2754 23.4534 19.074 22.9671 19.074 22.46C19.074 21.9529 19.2754 21.4666 19.634 21.108C19.9926 20.7494 20.4789 20.548 20.986 20.548H24.766V24.372Z" fill="#23366F"/>
</svg>
