<svg width="24" height="24" viewBox="0 0 24 24" fill="none" xmlns="http://www.w3.org/2000/svg">
<path d="M22.0168 1.17155C20.6161 -0.229058 18.3454 -0.229058 16.9448 1.17155L2.72642 15.3899C2.62898 15.4874 2.55862 15.6081 2.52189 15.7408L0.652129 22.491C0.575234 22.7678 0.653374 23.0641 0.856352 23.2674C1.05964 23.4704 1.35601 23.5485 1.63277 23.472L8.38302 21.6019C8.51564 21.5652 8.63643 21.4948 8.73387 21.3974L22.9519 7.17868C24.3504 5.77714 24.3504 3.50828 22.9519 2.10674L22.0168 1.17155ZM4.46294 15.9079L16.0996 4.271L19.8525 8.0239L8.21553 19.6608L4.46294 15.9079ZM3.71329 17.4122L6.71157 20.4108L2.56423 21.5599L3.71329 17.4122ZM21.825 6.05172L20.9798 6.89694L17.2265 3.14373L18.0721 2.29851C18.8501 1.52053 20.1115 1.52053 20.8895 2.29851L21.825 3.2337C22.6017 4.01261 22.6017 5.27312 21.825 6.05172V6.05172Z" fill="#23366F"/>
</svg>
