<svg width="136" height="135" viewBox="0 0 136 135" fill="none" xmlns="http://www.w3.org/2000/svg">
<path fill-rule="evenodd" clip-rule="evenodd" d="M67.5005 12.1151L67.5005 -0.000253677C48.913 -0.000253677 32.0852 7.6885 19.9043 19.9036L28.3376 28.3369C38.3603 18.3143 52.2064 12.1151 67.5005 12.1151Z" fill="#48778C"/>
<path fill-rule="evenodd" clip-rule="evenodd" d="M12.1151 67.5005L-0.000249863 67.5005C-0.000249863 48.913 7.6885 32.0852 19.9036 19.9043L28.3369 28.3376C18.3143 38.3603 12.1151 52.2064 12.1151 67.5005Z" fill="#CFD8DC"/>
<path fill-rule="evenodd" clip-rule="evenodd" d="M12.1151 67.4995L-0.000249863 67.4995C-0.000249863 86.087 7.6885 102.915 19.9036 115.096L28.3369 106.662C18.3143 96.6397 12.1151 82.7936 12.1151 67.4995Z" fill="#CFD8DC"/>
<path fill-rule="evenodd" clip-rule="evenodd" d="M67.5005 122.885L67.5005 135C48.913 135 32.0852 127.312 19.9043 115.096L28.3376 106.663C38.3603 116.686 52.2064 122.885 67.5005 122.885Z" fill="#CFD8DC"/>
<path fill-rule="evenodd" clip-rule="evenodd" d="M67.4995 122.885L67.4995 135C86.087 135 102.915 127.312 115.096 115.096L106.662 106.663C96.6397 116.686 82.7936 122.885 67.4995 122.885Z" fill="#CFD8DC"/>
<path fill-rule="evenodd" clip-rule="evenodd" d="M122.885 67.4995L135 67.4995C135 86.087 127.311 102.915 115.096 115.096L106.663 106.662C116.686 96.6397 122.885 82.7936 122.885 67.4995Z" fill="#8280C6"/>
<path fill-rule="evenodd" clip-rule="evenodd" d="M122.885 67.5005L135 67.5005C135 48.913 127.311 32.0852 115.096 19.9043L106.663 28.3376C116.686 38.3603 122.885 52.2064 122.885 67.5005Z" fill="#ECEDED"/>
<path fill-rule="evenodd" clip-rule="evenodd" d="M67.4995 12.1151L67.4995 -0.000253677C86.087 -0.000253677 102.915 7.6885 115.096 19.9036L106.662 28.3369C96.6397 18.3143 82.7936 12.1151 67.4995 12.1151Z" fill="#5CBBEB"/>
<path d="M40.4723 76.1455V61.2418H50.9303V63.38H42.8857V67.8257H50.0411V69.9427H42.8857V76.1455H40.4723ZM55.5948 76.4842C54.381 76.4842 53.4354 76.0961 52.758 75.3199C52.0806 74.5295 51.7418 73.4499 51.7418 72.0809V65.3911H54.0917V71.8692C54.0917 72.7301 54.2752 73.3793 54.6421 73.8168C55.0232 74.2543 55.5807 74.4731 56.3146 74.4731C56.8368 74.4731 57.2884 74.339 57.6694 74.0708C58.0646 73.8027 58.3681 73.4216 58.5798 72.9277C58.8056 72.4337 58.9185 71.8621 58.9185 71.2129V65.3911H61.2895V76.1455H58.9185V74.7271C58.5656 75.2775 58.107 75.708 57.5424 76.0185C56.9779 76.329 56.3287 76.4842 55.5948 76.4842ZM63.9591 76.1455V65.3911H66.309V66.8307C66.6618 66.2662 67.1205 65.8287 67.685 65.5182C68.2495 65.2077 68.8988 65.0524 69.6326 65.0524C70.8464 65.0524 71.792 65.4476 72.4694 66.2379C73.1469 67.0283 73.4856 68.108 73.4856 69.477V76.1455H71.1357V69.6675C71.1357 68.8207 70.9522 68.1785 70.5853 67.741C70.2183 67.2894 69.6609 67.0636 68.9129 67.0636C68.4048 67.0636 67.9532 67.1977 67.558 67.4658C67.1769 67.734 66.8735 68.1221 66.6477 68.6302C66.4219 69.1241 66.309 69.6957 66.309 70.3449V76.1455H63.9591ZM80.2621 76.4842C79.2883 76.4842 78.4274 76.2443 77.6794 75.7644C76.9314 75.2705 76.3457 74.593 75.9223 73.7321C75.513 72.8712 75.3084 71.8903 75.3084 70.7895C75.3084 69.6887 75.513 68.7078 75.9223 67.8469C76.3457 66.9718 76.9314 66.2873 77.6794 65.7934C78.4274 65.2994 79.2883 65.0524 80.2621 65.0524C80.9678 65.0524 81.617 65.2077 82.2098 65.5182C82.8166 65.8287 83.3247 66.2662 83.734 66.8307V60.7973H86.0627V76.1455H83.734V74.7271C83.3247 75.2775 82.8166 75.708 82.2098 76.0185C81.617 76.329 80.9678 76.4842 80.2621 76.4842ZM80.749 74.4731C81.3559 74.4731 81.8781 74.3249 82.3156 74.0285C82.7673 73.7321 83.113 73.3087 83.353 72.7583C83.607 72.1938 83.734 71.5375 83.734 70.7895C83.734 69.6322 83.4659 68.7219 82.9296 68.0586C82.3932 67.3952 81.6664 67.0636 80.749 67.0636C79.8176 67.0636 79.0766 67.3952 78.5262 68.0586C77.9899 68.7219 77.7217 69.6322 77.7217 70.7895C77.7217 71.5375 77.8417 72.1938 78.0816 72.7583C78.3357 73.3087 78.6885 73.7321 79.1401 74.0285C79.6059 74.3249 80.1422 74.4731 80.749 74.4731ZM92.6959 76.4842C91.2845 76.4842 90.1625 76.1526 89.3298 75.4892C88.5113 74.8118 88.0526 73.9156 87.9538 72.8006H90.3037C90.3883 73.3793 90.6353 73.838 91.0446 74.1767C91.468 74.5013 92.0255 74.6636 92.717 74.6636C93.3804 74.6636 93.9026 74.5225 94.2836 74.2402C94.6788 73.9438 94.8764 73.5769 94.8764 73.1394C94.8764 72.7865 94.7423 72.5254 94.4742 72.3561C94.206 72.1726 93.705 71.9962 92.9711 71.8268C92.8441 71.7986 92.71 71.7704 92.5689 71.7421C92.4418 71.7139 92.3078 71.6857 92.1666 71.6575C91.2916 71.4599 90.5789 71.2411 90.0285 71.0012C89.4921 70.7472 89.0758 70.4155 88.7794 70.0062C88.483 69.5969 88.3349 69.0677 88.3349 68.4185C88.3349 67.741 88.5113 67.1483 88.8641 66.6402C89.2169 66.1321 89.718 65.744 90.3672 65.4758C91.0164 65.1936 91.7715 65.0524 92.6324 65.0524C93.8885 65.0524 94.8905 65.3559 95.6385 65.9627C96.3865 66.5555 96.8311 67.4023 96.9722 68.5031H94.6647C94.5941 67.9951 94.3824 67.5999 94.0296 67.3176C93.6909 67.0212 93.2251 66.873 92.6324 66.873C92.0537 66.873 91.5809 67.0001 91.214 67.2541C90.8611 67.5081 90.6847 67.8328 90.6847 68.2279C90.6847 68.5949 90.84 68.863 91.1505 69.0324C91.4751 69.2017 92.0537 69.3782 92.8864 69.5616C92.9429 69.5758 92.9993 69.5899 93.0558 69.604C93.1122 69.604 93.1616 69.611 93.204 69.6251C94.1637 69.8227 94.9258 70.0415 95.4903 70.2814C96.0548 70.5213 96.4924 70.853 96.8029 71.2764C97.1133 71.6998 97.2686 72.2573 97.2686 72.9488C97.2686 73.6545 97.0851 74.2755 96.7182 74.8118C96.3512 75.334 95.822 75.7433 95.1304 76.0397C94.4389 76.336 93.6274 76.4842 92.6959 76.4842Z" fill="#717272"/>
</svg>
