<svg width="28" height="154" viewBox="0 0 28 154" fill="none" xmlns="http://www.w3.org/2000/svg">
<g filter="url(#filter0_d)">
<path d="M1 5C1 2.23858 3.23858 0 6 0H27V150L14 134.423L1 150V5Z" fill="#19BAB6"/>
</g>
<path d="M17.16 101.529C17.16 102.216 17.0033 102.812 16.69 103.319C16.37 103.826 15.9333 104.216 15.38 104.489C14.8267 104.756 14.1933 104.889 13.48 104.889C12.78 104.889 12.1533 104.756 11.6 104.489C11.04 104.216 10.6 103.826 10.28 103.319C9.96 102.812 9.8 102.212 9.8 101.519C9.8 101.006 9.89667 100.546 10.09 100.139C10.2833 99.7256 10.5633 99.3856 10.93 99.1189C11.29 98.8456 11.7233 98.6623 12.23 98.5689L12.23 99.3989C11.6767 99.5256 11.26 99.7689 10.98 100.129C10.6933 100.489 10.55 100.952 10.55 101.519C10.55 102.046 10.6767 102.499 10.93 102.879C11.1833 103.259 11.5333 103.552 11.98 103.759C12.4267 103.959 12.9267 104.059 13.48 104.059C14.0667 104.059 14.58 103.959 15.02 103.759C15.46 103.559 15.8033 103.269 16.05 102.889C16.29 102.509 16.41 102.052 16.41 101.519C16.41 100.826 16.22 100.289 15.84 99.9089C15.46 99.5223 14.9067 99.3056 14.18 99.2589L14.18 101.509L13.45 101.509L13.45 98.4389L13.76 98.4389C14.5067 98.4389 15.1333 98.5656 15.64 98.8189C16.1467 99.0656 16.5267 99.4223 16.78 99.8889C17.0333 100.356 17.16 100.902 17.16 101.529ZM17.16 94.5585C17.16 95.0585 17.0467 95.4951 16.82 95.8685C16.5867 96.2418 16.2667 96.5285 15.86 96.7285C15.4533 96.9285 14.99 97.0285 14.47 97.0285C13.9633 97.0285 13.51 96.9318 13.11 96.7385C12.7033 96.5385 12.3833 96.2518 12.15 95.8785C11.9167 95.5051 11.8 95.0718 11.8 94.5785C11.8 94.1051 11.91 93.7018 12.13 93.3685C12.35 93.0285 12.6567 92.7685 13.05 92.5885C13.4367 92.4085 13.8867 92.3185 14.4 92.3185C14.4867 92.3185 14.5633 92.3218 14.63 92.3285L14.63 96.2485C15.2367 96.2285 15.7 96.0685 16.02 95.7685C16.3333 95.4685 16.49 95.0618 16.49 94.5485C16.49 94.1618 16.4 93.8518 16.22 93.6185C16.04 93.3851 15.7833 93.2185 15.45 93.1185L15.45 92.3685C15.99 92.4818 16.41 92.7351 16.71 93.1285C17.01 93.5151 17.16 93.9918 17.16 94.5585ZM14.03 93.1085C13.5433 93.1218 13.1633 93.2618 12.89 93.5285C12.6167 93.7951 12.48 94.1451 12.48 94.5785C12.48 95.0385 12.6167 95.4118 12.89 95.6985C13.1633 95.9851 13.5433 96.1585 14.03 96.2185L14.03 93.1085ZM17 90.6514L11.96 90.6514L11.96 89.8714L12.72 89.8714C12.4333 89.6914 12.21 89.4614 12.05 89.1814C11.8833 88.8947 11.8 88.5647 11.8 88.1914C11.8 87.6247 11.98 87.178 12.34 86.8514C12.7 86.5247 13.1967 86.3614 13.83 86.3614L17 86.3614L17 87.1914L13.94 87.1914C13.46 87.1914 13.1 87.2914 12.86 87.4914C12.6133 87.6847 12.49 87.9847 12.49 88.3914C12.49 88.678 12.5667 88.9347 12.72 89.1614C12.8667 89.3814 13.08 89.5547 13.36 89.6814C13.64 89.808 13.9633 89.8714 14.33 89.8714L17 89.8714L17 90.6514ZM17.16 82.3378C17.16 82.8378 17.0467 83.2744 16.82 83.6478C16.5867 84.0211 16.2667 84.3078 15.86 84.5078C15.4533 84.7078 14.99 84.8078 14.47 84.8078C13.9633 84.8078 13.51 84.7111 13.11 84.5178C12.7033 84.3178 12.3833 84.0311 12.15 83.6578C11.9167 83.2844 11.8 82.8511 11.8 82.3578C11.8 81.8844 11.91 81.4811 12.13 81.1478C12.35 80.8078 12.6567 80.5478 13.05 80.3678C13.4367 80.1878 13.8867 80.0978 14.4 80.0978C14.4867 80.0978 14.5633 80.1011 14.63 80.1078L14.63 84.0278C15.2367 84.0078 15.7 83.8478 16.02 83.5478C16.3333 83.2478 16.49 82.8411 16.49 82.3278C16.49 81.9411 16.4 81.6311 16.22 81.3978C16.04 81.1644 15.7833 80.9978 15.45 80.8978L15.45 80.1478C15.99 80.2611 16.41 80.5144 16.71 80.9078C17.01 81.2944 17.16 81.7711 17.16 82.3378ZM14.03 80.8878C13.5433 80.9011 13.1633 81.0411 12.89 81.3078C12.6167 81.5744 12.48 81.9244 12.48 82.3578C12.48 82.8178 12.6167 83.1911 12.89 83.4778C13.1633 83.7644 13.5433 83.9378 14.03 83.9978L14.03 80.8878ZM17 78.4307L11.96 78.4307L11.96 77.6507L12.73 77.6507C12.49 77.524 12.3033 77.3607 12.17 77.1607C12.03 76.9607 11.96 76.7207 11.96 76.4407L11.96 76.0107L12.7 76.0107L12.7 76.4407C12.7 76.8073 12.83 77.1007 13.09 77.3207C13.35 77.5407 13.7 77.6507 14.14 77.6507L17 77.6507L17 78.4307ZM17.14 73.2689C17.14 73.8089 17.0067 74.2289 16.74 74.5289C16.4667 74.8289 16.12 74.9789 15.7 74.9789C15.24 74.9789 14.89 74.8289 14.65 74.5289C14.41 74.2223 14.25 73.8289 14.17 73.3489C14.09 72.8623 14.05 72.2789 14.05 71.5989L13.56 71.5989C13.2467 71.5989 12.99 71.7089 12.79 71.9289C12.59 72.1489 12.49 72.4556 12.49 72.8489C12.49 73.2223 12.5833 73.5156 12.77 73.7289C12.95 73.9423 13.2 74.0623 13.52 74.0889L13.52 74.8789C13.1533 74.8523 12.84 74.7489 12.58 74.5689C12.32 74.3823 12.1267 74.1389 12 73.8389C11.8667 73.5323 11.8 73.1923 11.8 72.8189C11.8 72.4056 11.8733 72.0489 12.02 71.7489C12.1667 71.4489 12.3733 71.2189 12.64 71.0589C12.9 70.8989 13.2067 70.8189 13.56 70.8189L17 70.8189L17 71.5989L16.12 71.5989C16.4333 71.7589 16.6833 71.9823 16.87 72.2689C17.05 72.5489 17.14 72.8823 17.14 73.2689ZM16.48 73.1089C16.48 72.8023 16.4067 72.5356 16.26 72.3089C16.1133 72.0823 15.91 71.9089 15.65 71.7889C15.39 71.6623 15.1033 71.5989 14.79 71.5989L14.61 71.5989C14.61 72.1323 14.6333 72.5823 14.68 72.9489C14.7267 73.3089 14.8267 73.6056 14.98 73.8389C15.1267 74.0723 15.3467 74.1889 15.64 74.1889C15.9067 74.1889 16.1133 74.0889 16.26 73.8889C16.4067 73.6889 16.48 73.4289 16.48 73.1089ZM17 68.8857L9.75 68.8857L9.75 68.1057L17 68.1057L17 68.8857ZM17 61.4473L10.69 61.4473L10.69 63.7973L9.96 63.7973L9.96 58.2873L10.69 58.2873L10.69 60.6373L17 60.6373L17 61.4473ZM17.14 56.5326C17.14 57.0726 17.0067 57.4926 16.74 57.7926C16.4667 58.0926 16.12 58.2426 15.7 58.2426C15.24 58.2426 14.89 58.0926 14.65 57.7926C14.41 57.486 14.25 57.0926 14.17 56.6126C14.09 56.126 14.05 55.5426 14.05 54.8626L13.56 54.8626C13.2467 54.8626 12.99 54.9726 12.79 55.1926C12.59 55.4126 12.49 55.7193 12.49 56.1126C12.49 56.486 12.5833 56.7793 12.77 56.9926C12.95 57.206 13.2 57.326 13.52 57.3526L13.52 58.1426C13.1533 58.116 12.84 58.0126 12.58 57.8326C12.32 57.646 12.1267 57.4026 12 57.1026C11.8667 56.796 11.8 56.456 11.8 56.0826C11.8 55.6693 11.8733 55.3126 12.02 55.0126C12.1667 54.7126 12.3733 54.4826 12.64 54.3226C12.9 54.1626 13.2067 54.0826 13.56 54.0826L17 54.0826L17 54.8626L16.12 54.8626C16.4333 55.0226 16.6833 55.246 16.87 55.5326C17.05 55.8126 17.14 56.146 17.14 56.5326ZM16.48 56.3726C16.48 56.066 16.4067 55.7993 16.26 55.5726C16.1133 55.346 15.91 55.1726 15.65 55.0526C15.39 54.926 15.1033 54.8626 14.79 54.8626L14.61 54.8626C14.61 55.396 14.6333 55.846 14.68 56.2126C14.7267 56.5726 14.8267 56.8693 14.98 57.1026C15.1267 57.336 15.3467 57.4526 15.64 57.4526C15.9067 57.4526 16.1133 57.3526 16.26 57.1526C16.4067 56.9526 16.48 56.6926 16.48 56.3726ZM17 52.1494L9.75 52.1494L9.75 51.3694L14.18 51.3694L11.96 49.0994L11.96 48.0894L14.06 50.2294L17 48.0294L17 48.9694L14.6 50.7694L15.18 51.3694L17 51.3694L17 52.1494ZM17.14 45.3178C17.14 45.8578 17.0067 46.2778 16.74 46.5778C16.4667 46.8778 16.12 47.0278 15.7 47.0278C15.24 47.0278 14.89 46.8778 14.65 46.5778C14.41 46.2711 14.25 45.8778 14.17 45.3978C14.09 44.9111 14.05 44.3278 14.05 43.6478L13.56 43.6478C13.2467 43.6478 12.99 43.7578 12.79 43.9778C12.59 44.1978 12.49 44.5044 12.49 44.8978C12.49 45.2711 12.5833 45.5644 12.77 45.7778C12.95 45.9911 13.2 46.1111 13.52 46.1378L13.52 46.9278C13.1533 46.9011 12.84 46.7978 12.58 46.6178C12.32 46.4311 12.1267 46.1878 12 45.8878C11.8667 45.5811 11.8 45.2411 11.8 44.8678C11.8 44.4544 11.8733 44.0978 12.02 43.7978C12.1667 43.4978 12.3733 43.2678 12.64 43.1078C12.9 42.9478 13.2067 42.8678 13.56 42.8678L17 42.8678L17 43.6478L16.12 43.6478C16.4333 43.8078 16.6833 44.0311 16.87 44.3178C17.05 44.5978 17.14 44.9311 17.14 45.3178ZM16.48 45.1578C16.48 44.8511 16.4067 44.5844 16.26 44.3578C16.1133 44.1311 15.91 43.9578 15.65 43.8378C15.39 43.7111 15.1033 43.6478 14.79 43.6478L14.61 43.6478C14.61 44.1811 14.6333 44.6311 14.68 44.9978C14.7267 45.3578 14.8267 45.6544 14.98 45.8878C15.1267 46.1211 15.3467 46.2378 15.64 46.2378C15.9067 46.2378 16.1133 46.1378 16.26 45.9378C16.4067 45.7378 16.48 45.4778 16.48 45.1578ZM17 40.5843L12.64 40.5843L12.64 41.6443L11.96 41.6443L11.96 40.5843L11.04 40.5843C10.6533 40.5843 10.3433 40.4777 10.11 40.2643C9.87 40.0443 9.75 39.7077 9.75 39.2543L9.75 38.5543L10.44 38.5543L10.44 39.1643C10.44 39.3777 10.49 39.5377 10.59 39.6443C10.69 39.7443 10.85 39.7943 11.07 39.7943L11.96 39.7943L11.96 38.5443L12.64 38.5443L12.64 39.7943L17 39.7943L17 40.5843ZM17.16 35.57C17.16 36.1367 16.98 36.5767 16.62 36.89C16.26 37.2034 15.7667 37.36 15.14 37.36L11.96 37.36L11.96 36.58L15.03 36.58C15.51 36.58 15.87 36.48 16.11 36.28C16.35 36.08 16.47 35.7767 16.47 35.37C16.47 35.0834 16.3967 34.83 16.25 34.61C16.0967 34.3834 15.8833 34.21 15.61 34.09C15.33 33.9634 15.0033 33.9 14.63 33.9L11.96 33.9L11.96 33.11L17 33.11L17 33.9L16.24 33.9C16.5267 34.0734 16.7533 34.3034 16.92 34.59C17.08 34.87 17.16 35.1967 17.16 35.57ZM17 31.1064L9.75 31.1064L9.75 30.3264L17 30.3264L17 31.1064Z" fill="#ECEEEF"/>
<defs>
<filter id="filter0_d" x="0" y="0" width="28" height="154" filterUnits="userSpaceOnUse" color-interpolation-filters="sRGB">
<feFlood flood-opacity="0" result="BackgroundImageFix"/>
<feColorMatrix in="SourceAlpha" type="matrix" values="0 0 0 0 0 0 0 0 0 0 0 0 0 0 0 0 0 0 127 0" result="hardAlpha"/>
<feOffset dy="3"/>
<feGaussianBlur stdDeviation="0.5"/>
<feColorMatrix type="matrix" values="0 0 0 0 0 0 0 0 0 0 0 0 0 0 0 0 0 0 0.25 0"/>
<feBlend mode="normal" in2="BackgroundImageFix" result="effect1_dropShadow"/>
<feBlend mode="normal" in="SourceGraphic" in2="effect1_dropShadow" result="shape"/>
</filter>
</defs>
</svg>
