<svg width="28" height="154" viewBox="0 0 28 154" fill="none" xmlns="http://www.w3.org/2000/svg">
<g filter="url(#filter0_d)">
<path d="M1 5C1 2.23858 3.23858 0 6 0H27V150L14 134.423L1 150V5Z" fill="#5495CF"/>
</g>
<path d="M17.16 108.445C17.16 109.132 17.0033 109.728 16.69 110.235C16.37 110.742 15.9333 111.132 15.38 111.405C14.8267 111.672 14.1933 111.805 13.48 111.805C12.78 111.805 12.1533 111.672 11.6 111.405C11.04 111.132 10.6 110.742 10.28 110.235C9.96 109.728 9.8 109.128 9.8 108.435C9.8 107.922 9.89667 107.462 10.09 107.055C10.2833 106.642 10.5633 106.302 10.93 106.035C11.29 105.762 11.7233 105.578 12.23 105.485L12.23 106.315C11.6767 106.442 11.26 106.685 10.98 107.045C10.6933 107.405 10.55 107.868 10.55 108.435C10.55 108.962 10.6767 109.415 10.93 109.795C11.1833 110.175 11.5333 110.468 11.98 110.675C12.4267 110.875 12.9267 110.975 13.48 110.975C14.0667 110.975 14.58 110.875 15.02 110.675C15.46 110.475 15.8033 110.185 16.05 109.805C16.29 109.425 16.41 108.968 16.41 108.435C16.41 107.742 16.22 107.205 15.84 106.825C15.46 106.438 14.9067 106.222 14.18 106.175L14.18 108.425L13.45 108.425L13.45 105.355L13.76 105.355C14.5067 105.355 15.1333 105.482 15.64 105.735C16.1467 105.982 16.5267 106.338 16.78 106.805C17.0333 107.272 17.16 107.818 17.16 108.445ZM17.16 101.474C17.16 101.974 17.0467 102.411 16.82 102.784C16.5867 103.158 16.2667 103.444 15.86 103.644C15.4533 103.844 14.99 103.944 14.47 103.944C13.9633 103.944 13.51 103.848 13.11 103.654C12.7033 103.454 12.3833 103.168 12.15 102.794C11.9167 102.421 11.8 101.988 11.8 101.494C11.8 101.021 11.91 100.618 12.13 100.284C12.35 99.9445 12.6567 99.6845 13.05 99.5045C13.4367 99.3245 13.8867 99.2345 14.4 99.2345C14.4867 99.2345 14.5633 99.2378 14.63 99.2445L14.63 103.164C15.2367 103.144 15.7 102.984 16.02 102.684C16.3333 102.384 16.49 101.978 16.49 101.464C16.49 101.078 16.4 100.768 16.22 100.534C16.04 100.301 15.7833 100.134 15.45 100.034L15.45 99.2845C15.99 99.3978 16.41 99.6512 16.71 100.044C17.01 100.431 17.16 100.908 17.16 101.474ZM14.03 100.024C13.5433 100.038 13.1633 100.178 12.89 100.444C12.6167 100.711 12.48 101.061 12.48 101.494C12.48 101.954 12.6167 102.328 12.89 102.614C13.1633 102.901 13.5433 103.074 14.03 103.134L14.03 100.024ZM17 97.5674L11.96 97.5674L11.96 96.7874L12.72 96.7874C12.4333 96.6074 12.21 96.3774 12.05 96.0974C11.8833 95.8107 11.8 95.4807 11.8 95.1074C11.8 94.5407 11.98 94.094 12.34 93.7674C12.7 93.4407 13.1967 93.2774 13.83 93.2774L17 93.2774L17 94.1074L13.94 94.1074C13.46 94.1074 13.1 94.2074 12.86 94.4074C12.6133 94.6007 12.49 94.9007 12.49 95.3074C12.49 95.594 12.5667 95.8507 12.72 96.0774C12.8667 96.2974 13.08 96.4707 13.36 96.5974C13.64 96.724 13.9633 96.7874 14.33 96.7874L17 96.7874L17 97.5674ZM17.16 89.2538C17.16 89.7538 17.0467 90.1905 16.82 90.5638C16.5867 90.9371 16.2667 91.2238 15.86 91.4238C15.4533 91.6238 14.99 91.7238 14.47 91.7238C13.9633 91.7238 13.51 91.6271 13.11 91.4338C12.7033 91.2338 12.3833 90.9471 12.15 90.5738C11.9167 90.2005 11.8 89.7671 11.8 89.2738C11.8 88.8005 11.91 88.3971 12.13 88.0638C12.35 87.7238 12.6567 87.4638 13.05 87.2838C13.4367 87.1038 13.8867 87.0138 14.4 87.0138C14.4867 87.0138 14.5633 87.0171 14.63 87.0238L14.63 90.9438C15.2367 90.9238 15.7 90.7638 16.02 90.4638C16.3333 90.1638 16.49 89.7571 16.49 89.2438C16.49 88.8571 16.4 88.5471 16.22 88.3138C16.04 88.0805 15.7833 87.9138 15.45 87.8138L15.45 87.0638C15.99 87.1771 16.41 87.4305 16.71 87.8238C17.01 88.2105 17.16 88.6871 17.16 89.2538ZM14.03 87.8038C13.5433 87.8171 13.1633 87.9571 12.89 88.2238C12.6167 88.4905 12.48 88.8405 12.48 89.2738C12.48 89.7338 12.6167 90.1071 12.89 90.3938C13.1633 90.6805 13.5433 90.8538 14.03 90.9138L14.03 87.8038ZM17 85.3467L11.96 85.3467L11.96 84.5667L12.73 84.5667C12.49 84.44 12.3033 84.2767 12.17 84.0767C12.03 83.8767 11.96 83.6367 11.96 83.3567L11.96 82.9267L12.7 82.9267L12.7 83.3567C12.7 83.7233 12.83 84.0167 13.09 84.2367C13.35 84.4567 13.7 84.5667 14.14 84.5667L17 84.5667L17 85.3467ZM17.14 80.185C17.14 80.725 17.0067 81.145 16.74 81.445C16.4667 81.745 16.12 81.895 15.7 81.895C15.24 81.895 14.89 81.745 14.65 81.445C14.41 81.1383 14.25 80.745 14.17 80.265C14.09 79.7783 14.05 79.195 14.05 78.515L13.56 78.515C13.2467 78.515 12.99 78.625 12.79 78.845C12.59 79.065 12.49 79.3716 12.49 79.765C12.49 80.1383 12.5833 80.4316 12.77 80.645C12.95 80.8583 13.2 80.9783 13.52 81.005L13.52 81.795C13.1533 81.7683 12.84 81.665 12.58 81.485C12.32 81.2983 12.1267 81.055 12 80.755C11.8667 80.4483 11.8 80.1083 11.8 79.735C11.8 79.3216 11.8733 78.965 12.02 78.665C12.1667 78.365 12.3733 78.135 12.64 77.975C12.9 77.815 13.2067 77.735 13.56 77.735L17 77.735L17 78.515L16.12 78.515C16.4333 78.675 16.6833 78.8983 16.87 79.185C17.05 79.465 17.14 79.7983 17.14 80.185ZM16.48 80.025C16.48 79.7183 16.4067 79.4516 16.26 79.225C16.1133 78.9983 15.91 78.825 15.65 78.705C15.39 78.5783 15.1033 78.515 14.79 78.515L14.61 78.515C14.61 79.0483 14.6333 79.4983 14.68 79.865C14.7267 80.225 14.8267 80.5216 14.98 80.755C15.1267 80.9883 15.3467 81.105 15.64 81.105C15.9067 81.105 16.1133 81.005 16.26 80.805C16.4067 80.605 16.48 80.345 16.48 80.025ZM17 75.8018L9.75 75.8018L9.75 75.0218L17 75.0218L17 75.8018ZM17 69.9433L9.96 69.9433L9.96 69.1333L17 69.1333L17 69.9433ZM17 66.9678L11.96 66.9678L11.96 66.1878L12.72 66.1878C12.4333 66.0078 12.21 65.7778 12.05 65.4978C11.8833 65.2111 11.8 64.8811 11.8 64.5078C11.8 63.9411 11.98 63.4944 12.34 63.1678C12.7 62.8411 13.1967 62.6778 13.83 62.6778L17 62.6778L17 63.5078L13.94 63.5078C13.46 63.5078 13.1 63.6078 12.86 63.8078C12.6133 64.0011 12.49 64.3011 12.49 64.7078C12.49 64.9944 12.5667 65.2511 12.72 65.4778C12.8667 65.6978 13.08 65.8711 13.36 65.9978C13.64 66.1244 13.9633 66.1878 14.33 66.1878L17 66.1878L17 66.9678ZM17.16 59.0142C17.16 59.6608 17.0033 60.1708 16.69 60.5442C16.37 60.9175 15.9533 61.1308 15.44 61.1842L15.44 60.3642C15.7733 60.3242 16.0367 60.1908 16.23 59.9642C16.4167 59.7308 16.51 59.4142 16.51 59.0142C16.51 58.6208 16.4267 58.3142 16.26 58.0942C16.0867 57.8742 15.87 57.7642 15.61 57.7642C15.4033 57.7642 15.2467 57.8342 15.14 57.9742C15.0333 58.1075 14.9333 58.3608 14.84 58.7342C14.8267 58.8008 14.8133 58.8708 14.8 58.9442C14.78 59.0108 14.7633 59.0842 14.75 59.1642C14.6633 59.5775 14.5633 59.9142 14.45 60.1742C14.3367 60.4342 14.19 60.6342 14.01 60.7742C13.8233 60.9142 13.5833 60.9842 13.29 60.9842C12.99 60.9842 12.7267 60.9042 12.5 60.7442C12.2733 60.5775 12.1 60.3508 11.98 60.0642C11.86 59.7708 11.8 59.4375 11.8 59.0642C11.8 58.4908 11.9367 58.0375 12.21 57.7042C12.4833 57.3708 12.87 57.1708 13.37 57.1042L13.37 57.8942C13.0767 57.9342 12.85 58.0542 12.69 58.2542C12.53 58.4542 12.45 58.7242 12.45 59.0642C12.45 59.4042 12.5267 59.6775 12.68 59.8842C12.8267 60.0842 13.0133 60.1842 13.24 60.1842C13.4467 60.1842 13.6033 60.0975 13.71 59.9242C13.81 59.7508 13.91 59.4475 14.01 59.0142C14.0167 58.9875 14.0233 58.9608 14.03 58.9342C14.03 58.9008 14.0333 58.8708 14.04 58.8442C14.1333 58.3908 14.2367 58.0342 14.35 57.7742C14.4633 57.5075 14.6167 57.3075 14.81 57.1742C15.0033 57.0342 15.26 56.9642 15.58 56.9642C15.88 56.9642 16.15 57.0475 16.39 57.2142C16.63 57.3742 16.82 57.6108 16.96 57.9242C17.0933 58.2308 17.16 58.5942 17.16 59.0142ZM17.16 53.5739C17.16 54.1406 16.98 54.5806 16.62 54.8939C16.26 55.2073 15.7667 55.3639 15.14 55.3639L11.96 55.3639L11.96 54.5839L15.03 54.5839C15.51 54.5839 15.87 54.4839 16.11 54.2839C16.35 54.0839 16.47 53.7806 16.47 53.3739C16.47 53.0873 16.3967 52.8339 16.25 52.6139C16.0967 52.3873 15.8833 52.2139 15.61 52.0939C15.33 51.9673 15.0033 51.9039 14.63 51.9039L11.96 51.9039L11.96 51.1139L17 51.1139L17 51.9039L16.24 51.9039C16.5267 52.0773 16.7533 52.3073 16.92 52.5939C17.08 52.8739 17.16 53.2006 17.16 53.5739ZM17 49.1104L11.96 49.1104L11.96 48.3304L12.73 48.3304C12.49 48.2037 12.3033 48.0404 12.17 47.8404C12.03 47.6404 11.96 47.4004 11.96 47.1204L11.96 46.6904L12.7 46.6904L12.7 47.1204C12.7 47.487 12.83 47.7804 13.09 48.0004C13.35 48.2204 13.7 48.3304 14.14 48.3304L17 48.3304L17 49.1104ZM17.14 43.9486C17.14 44.4886 17.0067 44.9086 16.74 45.2086C16.4667 45.5086 16.12 45.6586 15.7 45.6586C15.24 45.6586 14.89 45.5086 14.65 45.2086C14.41 44.902 14.25 44.5086 14.17 44.0286C14.09 43.542 14.05 42.9586 14.05 42.2786L13.56 42.2786C13.2467 42.2786 12.99 42.3886 12.79 42.6086C12.59 42.8286 12.49 43.1353 12.49 43.5286C12.49 43.902 12.5833 44.1953 12.77 44.4086C12.95 44.622 13.2 44.742 13.52 44.7686L13.52 45.5586C13.1533 45.532 12.84 45.4286 12.58 45.2486C12.32 45.062 12.1267 44.8186 12 44.5186C11.8667 44.212 11.8 43.872 11.8 43.4986C11.8 43.0853 11.8733 42.7286 12.02 42.4286C12.1667 42.1286 12.3733 41.8986 12.64 41.7386C12.9 41.5786 13.2067 41.4986 13.56 41.4986L17 41.4986L17 42.2786L16.12 42.2786C16.4333 42.4386 16.6833 42.662 16.87 42.9486C17.05 43.2286 17.14 43.562 17.14 43.9486ZM16.48 43.7886C16.48 43.482 16.4067 43.2153 16.26 42.9886C16.1133 42.762 15.91 42.5886 15.65 42.4686C15.39 42.342 15.1033 42.2786 14.79 42.2786L14.61 42.2786C14.61 42.812 14.6333 43.262 14.68 43.6286C14.7267 43.9886 14.8267 44.2853 14.98 44.5186C15.1267 44.752 15.3467 44.8686 15.64 44.8686C15.9067 44.8686 16.1133 44.7686 16.26 44.5686C16.4067 44.3686 16.48 44.1086 16.48 43.7886ZM17 39.5654L11.96 39.5654L11.96 38.7854L12.72 38.7854C12.4333 38.6054 12.21 38.3754 12.05 38.0954C11.8833 37.8088 11.8 37.4788 11.8 37.1054C11.8 36.5388 11.98 36.0921 12.34 35.7654C12.7 35.4388 13.1967 35.2754 13.83 35.2754L17 35.2754L17 36.1054L13.94 36.1054C13.46 36.1054 13.1 36.2054 12.86 36.4054C12.6133 36.5988 12.49 36.8988 12.49 37.3054C12.49 37.5921 12.5667 37.8488 12.72 38.0754C12.8667 38.2954 13.08 38.4688 13.36 38.5954C13.64 38.7221 13.9633 38.7854 14.33 38.7854L17 38.7854L17 39.5654ZM17.16 31.2718C17.16 31.7518 17.0467 32.1785 16.82 32.5518C16.5867 32.9252 16.27 33.2152 15.87 33.4218C15.4633 33.6218 15.0033 33.7218 14.49 33.7218C13.9767 33.7218 13.5167 33.6218 13.11 33.4218C12.7033 33.2218 12.3833 32.9385 12.15 32.5718C11.9167 32.1985 11.8 31.7685 11.8 31.2818C11.8 30.8818 11.88 30.5252 12.04 30.2118C12.2 29.8985 12.4233 29.6452 12.71 29.4518C12.9967 29.2518 13.33 29.1285 13.71 29.0818L13.71 29.8918C13.3367 29.9518 13.0433 30.1018 12.83 30.3418C12.61 30.5818 12.5 30.8952 12.5 31.2818C12.5 31.6152 12.5867 31.9052 12.76 32.1518C12.9333 32.3985 13.17 32.5885 13.47 32.7218C13.77 32.8485 14.1067 32.9118 14.48 32.9118C14.86 32.9118 15.2 32.8485 15.5 32.7218C15.7933 32.5885 16.0267 32.3985 16.2 32.1518C16.3733 31.9052 16.46 31.6118 16.46 31.2718C16.46 30.8985 16.3567 30.5918 16.15 30.3518C15.9433 30.1118 15.6733 29.9585 15.34 29.8918L15.34 29.0818C15.7 29.1285 16.0167 29.2485 16.29 29.4418C16.5633 29.6352 16.7767 29.8885 16.93 30.2018C17.0833 30.5152 17.16 30.8718 17.16 31.2718ZM17.16 25.3221C17.16 25.8221 17.0467 26.2588 16.82 26.6321C16.5867 27.0055 16.2667 27.2921 15.86 27.4921C15.4533 27.6921 14.99 27.7921 14.47 27.7921C13.9633 27.7921 13.51 27.6955 13.11 27.5021C12.7033 27.3021 12.3833 27.0155 12.15 26.6421C11.9167 26.2688 11.8 25.8355 11.8 25.3421C11.8 24.8688 11.91 24.4655 12.13 24.1321C12.35 23.7921 12.6567 23.5321 13.05 23.3521C13.4367 23.1721 13.8867 23.0821 14.4 23.0821C14.4867 23.0821 14.5633 23.0855 14.63 23.0921L14.63 27.0121C15.2367 26.9921 15.7 26.8321 16.02 26.5321C16.3333 26.2321 16.49 25.8255 16.49 25.3121C16.49 24.9255 16.4 24.6155 16.22 24.3821C16.04 24.1488 15.7833 23.9821 15.45 23.8821L15.45 23.1321C15.99 23.2455 16.41 23.4988 16.71 23.8921C17.01 24.2788 17.16 24.7555 17.16 25.3221ZM14.03 23.8721C13.5433 23.8855 13.1633 24.0255 12.89 24.2921C12.6167 24.5588 12.48 24.9088 12.48 25.3421C12.48 25.8021 12.6167 26.1755 12.89 26.4621C13.1633 26.7488 13.5433 26.9221 14.03 26.9821L14.03 23.8721Z" fill="#ECEEEF"/>
<defs>
<filter id="filter0_d" x="0" y="0" width="28" height="154" filterUnits="userSpaceOnUse" color-interpolation-filters="sRGB">
<feFlood flood-opacity="0" result="BackgroundImageFix"/>
<feColorMatrix in="SourceAlpha" type="matrix" values="0 0 0 0 0 0 0 0 0 0 0 0 0 0 0 0 0 0 127 0" result="hardAlpha"/>
<feOffset dy="3"/>
<feGaussianBlur stdDeviation="0.5"/>
<feColorMatrix type="matrix" values="0 0 0 0 0 0 0 0 0 0 0 0 0 0 0 0 0 0 0.25 0"/>
<feBlend mode="normal" in2="BackgroundImageFix" result="effect1_dropShadow"/>
<feBlend mode="normal" in="SourceGraphic" in2="effect1_dropShadow" result="shape"/>
</filter>
</defs>
</svg>
