<?xml version="1.0" encoding="utf-8"?>
<!-- Generator: Adobe Illustrator 24.0.1, SVG Export Plug-In . SVG Version: 6.00 Build 0)  -->
<svg version="1.1" id="Layer_1" xmlns="http://www.w3.org/2000/svg" xmlns:xlink="http://www.w3.org/1999/xlink" x="0px" y="0px"
	 viewBox="0 0 28 32" style="enable-background:new 0 0 28 32;" xml:space="preserve">
<g>
	<path d="M14,32c-0.1,0-0.1,0-0.2,0c-0.1,0-13.2-3.6-13.2-15.7V5.3c0-0.3,0.2-0.5,0.4-0.6L13.8,0C13.9,0,14.1,0,14.2,0l12.7,4.7
		c0.3,0.1,0.4,0.3,0.4,0.6v10.9c0,12.1-13,15.7-13.2,15.7C14.1,32,14.1,32,14,32L14,32z M2,5.8v10.4c0,10.5,10.5,14,12,14.4
		c1.5-0.4,12-3.9,12-14.4V5.8L14,1.4L2,5.8z"/>
</g>
<g>
	<path d="M12.5,21c-0.1,0-0.2,0-0.3-0.1l-3.5-3l0.7-0.8l3.1,2.7l7.2-7.2l0.7,0.7l-7.5,7.5C12.8,21,12.6,21,12.5,21z"/>
</g>
</svg>
