<svg width="28" height="154" viewBox="0 0 28 154" fill="none" xmlns="http://www.w3.org/2000/svg">
<g filter="url(#filter0_d)">
<path d="M1 5C1 2.23858 3.23858 0 6 0H27V150L14 134.423L1 150V5Z" fill="#19BAB6"/>
</g>
<path d="M17 101.006L9.96 101.006L9.96 96.3058L10.69 96.3058L10.69 100.196L13.18 100.196L13.18 96.7158L13.9 96.7158L13.9 100.196L17 100.196L17 101.006ZM17.14 93.7396C17.14 94.2796 17.0067 94.6996 16.74 94.9996C16.4667 95.2996 16.12 95.4496 15.7 95.4496C15.24 95.4496 14.89 95.2996 14.65 94.9996C14.41 94.693 14.25 94.2996 14.17 93.8196C14.09 93.333 14.05 92.7496 14.05 92.0696L13.56 92.0696C13.2467 92.0696 12.99 92.1796 12.79 92.3996C12.59 92.6196 12.49 92.9263 12.49 93.3196C12.49 93.693 12.5833 93.9863 12.77 94.1996C12.95 94.413 13.2 94.533 13.52 94.5596L13.52 95.3496C13.1533 95.323 12.84 95.2196 12.58 95.0396C12.32 94.853 12.1267 94.6096 12 94.3096C11.8667 94.003 11.8 93.663 11.8 93.2896C11.8 92.8763 11.8733 92.5196 12.02 92.2196C12.1667 91.9196 12.3733 91.6896 12.64 91.5296C12.9 91.3696 13.2067 91.2896 13.56 91.2896L17 91.2896L17 92.0696L16.12 92.0696C16.4333 92.2296 16.6833 92.453 16.87 92.7396C17.05 93.0196 17.14 93.353 17.14 93.7396ZM16.48 93.5796C16.48 93.273 16.4067 93.0063 16.26 92.7796C16.1133 92.553 15.91 92.3796 15.65 92.2596C15.39 92.133 15.1033 92.0696 14.79 92.0696L14.61 92.0696C14.61 92.603 14.6333 93.053 14.68 93.4196C14.7267 93.7796 14.8267 94.0763 14.98 94.3096C15.1267 94.543 15.3467 94.6596 15.64 94.6596C15.9067 94.6596 16.1133 94.5596 16.26 94.3596C16.4067 94.1596 16.48 93.8996 16.48 93.5796ZM17 89.3564L11.96 89.3564L11.96 88.5764L12.64 88.5764C12.38 88.4298 12.1767 88.2364 12.03 87.9964C11.8767 87.7498 11.8 87.4664 11.8 87.1464C11.8 86.7798 11.8833 86.4731 12.05 86.2264C12.2167 85.9798 12.4567 85.7998 12.77 85.6864C12.47 85.5398 12.2333 85.3364 12.06 85.0764C11.8867 84.8098 11.8 84.4998 11.8 84.1464C11.8 83.6464 11.9433 83.2598 12.23 82.9864C12.51 82.7131 12.93 82.5764 13.49 82.5764L17 82.5764L17 83.3664L13.66 83.3664C13.2667 83.3664 12.9733 83.4498 12.78 83.6164C12.5867 83.7764 12.49 84.0231 12.49 84.3564C12.49 84.5964 12.5533 84.8098 12.68 84.9964C12.8 85.1764 12.9767 85.3198 13.21 85.4264C13.4433 85.5264 13.73 85.5764 14.07 85.5764L17 85.5764L17 86.3664L13.66 86.3664C13.2667 86.3664 12.9733 86.4498 12.78 86.6164C12.5867 86.7764 12.49 87.0198 12.49 87.3464C12.49 87.5864 12.5533 87.7998 12.68 87.9864C12.8 88.1664 12.9767 88.3098 13.21 88.4164C13.4433 88.5231 13.73 88.5764 14.07 88.5764L17 88.5764L17 89.3564ZM17 80.6733L11.96 80.6733L11.96 79.8833L17 79.8833L17 80.6733ZM11.14 80.2733C11.14 80.4333 11.0867 80.57 10.98 80.6833C10.8667 80.79 10.73 80.8433 10.57 80.8433C10.41 80.8433 10.2767 80.79 10.17 80.6833C10.0567 80.57 10 80.4333 10 80.2733C10 80.1133 10.0567 79.98 10.17 79.8733C10.2767 79.76 10.41 79.7033 10.57 79.7033C10.73 79.7033 10.8667 79.76 10.98 79.8733C11.0867 79.98 11.14 80.1133 11.14 80.2733ZM17 77.8975L9.75 77.8975L9.75 77.1175L17 77.1175L17 77.8975ZM18.9 75.2621L18.2 75.2621L18.2 74.7121C18.2 74.5254 18.1633 74.3787 18.09 74.2721C18.0167 74.1654 17.89 74.0787 17.71 74.0121L16.99 73.7221L11.96 75.7821L11.96 74.9621L16.04 73.3321L11.96 71.7221L11.96 70.9021L17.88 73.2921C18.2333 73.4387 18.49 73.6221 18.65 73.8421C18.8167 74.0621 18.9 74.3521 18.9 74.7121L18.9 75.2621ZM17 64.9004L10.69 64.9004L10.69 67.2504L9.96 67.2504L9.96 61.7404L10.69 61.7404L10.69 64.0904L17 64.0904L17 64.9004ZM17.14 59.9857C17.14 60.5257 17.0067 60.9457 16.74 61.2457C16.4667 61.5457 16.12 61.6957 15.7 61.6957C15.24 61.6957 14.89 61.5457 14.65 61.2457C14.41 60.9391 14.25 60.5457 14.17 60.0657C14.09 59.5791 14.05 58.9957 14.05 58.3157L13.56 58.3157C13.2467 58.3157 12.99 58.4257 12.79 58.6457C12.59 58.8657 12.49 59.1724 12.49 59.5657C12.49 59.9391 12.5833 60.2324 12.77 60.4457C12.95 60.6591 13.2 60.7791 13.52 60.8057L13.52 61.5957C13.1533 61.5691 12.84 61.4657 12.58 61.2857C12.32 61.0991 12.1267 60.8557 12 60.5557C11.8667 60.2491 11.8 59.9091 11.8 59.5357C11.8 59.1224 11.8733 58.7657 12.02 58.4657C12.1667 58.1657 12.3733 57.9357 12.64 57.7757C12.9 57.6157 13.2067 57.5357 13.56 57.5357L17 57.5357L17 58.3157L16.12 58.3157C16.4333 58.4757 16.6833 58.6991 16.87 58.9857C17.05 59.2657 17.14 59.5991 17.14 59.9857ZM16.48 59.8257C16.48 59.5191 16.4067 59.2524 16.26 59.0257C16.1133 58.7991 15.91 58.6257 15.65 58.5057C15.39 58.3791 15.1033 58.3157 14.79 58.3157L14.61 58.3157C14.61 58.8491 14.6333 59.2991 14.68 59.6657C14.7267 60.0257 14.8267 60.3224 14.98 60.5557C15.1267 60.7891 15.3467 60.9057 15.64 60.9057C15.9067 60.9057 16.1133 60.8057 16.26 60.6057C16.4067 60.4057 16.48 60.1457 16.48 59.8257ZM17 55.6025L9.75 55.6025L9.75 54.8225L14.18 54.8225L11.96 52.5525L11.96 51.5425L14.06 53.6825L17 51.4825L17 52.4225L14.6 54.2225L15.18 54.8225L17 54.8225L17 55.6025ZM17.14 48.7709C17.14 49.3109 17.0067 49.7309 16.74 50.0309C16.4667 50.3309 16.12 50.4809 15.7 50.4809C15.24 50.4809 14.89 50.3309 14.65 50.0309C14.41 49.7242 14.25 49.3309 14.17 48.8509C14.09 48.3642 14.05 47.7809 14.05 47.1009L13.56 47.1009C13.2467 47.1009 12.99 47.2109 12.79 47.4309C12.59 47.6509 12.49 47.9576 12.49 48.3509C12.49 48.7242 12.5833 49.0176 12.77 49.2309C12.95 49.4442 13.2 49.5642 13.52 49.5909L13.52 50.3809C13.1533 50.3542 12.84 50.2509 12.58 50.0709C12.32 49.8842 12.1267 49.6409 12 49.3409C11.8667 49.0342 11.8 48.6942 11.8 48.3209C11.8 47.9076 11.8733 47.5509 12.02 47.2509C12.1667 46.9509 12.3733 46.7209 12.64 46.5609C12.9 46.4009 13.2067 46.3209 13.56 46.3209L17 46.3209L17 47.1009L16.12 47.1009C16.4333 47.2609 16.6833 47.4842 16.87 47.7709C17.05 48.0509 17.14 48.3842 17.14 48.7709ZM16.48 48.6109C16.48 48.3042 16.4067 48.0376 16.26 47.8109C16.1133 47.5842 15.91 47.4109 15.65 47.2909C15.39 47.1642 15.1033 47.1009 14.79 47.1009L14.61 47.1009C14.61 47.6342 14.6333 48.0842 14.68 48.4509C14.7267 48.8109 14.8267 49.1076 14.98 49.3409C15.1267 49.5742 15.3467 49.6909 15.64 49.6909C15.9067 49.6909 16.1133 49.5909 16.26 49.3909C16.4067 49.1909 16.48 48.9309 16.48 48.6109ZM17 44.0375L12.64 44.0375L12.64 45.0975L11.96 45.0975L11.96 44.0375L11.04 44.0375C10.6533 44.0375 10.3433 43.9308 10.11 43.7175C9.87 43.4975 9.75 43.1608 9.75 42.7075L9.75 42.0075L10.44 42.0075L10.44 42.6175C10.44 42.8308 10.49 42.9908 10.59 43.0975C10.69 43.1975 10.85 43.2475 11.07 43.2475L11.96 43.2475L11.96 41.9975L12.64 41.9975L12.64 43.2475L17 43.2475L17 44.0375ZM17.16 39.0232C17.16 39.5898 16.98 40.0298 16.62 40.3432C16.26 40.6565 15.7667 40.8132 15.14 40.8132L11.96 40.8132L11.96 40.0332L15.03 40.0332C15.51 40.0332 15.87 39.9332 16.11 39.7332C16.35 39.5332 16.47 39.2298 16.47 38.8232C16.47 38.5365 16.3967 38.2832 16.25 38.0632C16.0967 37.8365 15.8833 37.6632 15.61 37.5432C15.33 37.4165 15.0033 37.3532 14.63 37.3532L11.96 37.3532L11.96 36.5632L17 36.5632L17 37.3532L16.24 37.3532C16.5267 37.5265 16.7533 37.7565 16.92 38.0432C17.08 38.3232 17.16 38.6498 17.16 39.0232ZM17 34.5596L9.75 34.5596L9.75 33.7796L17 33.7796L17 34.5596Z" fill="#ECEEEF"/>
<defs>
<filter id="filter0_d" x="0" y="0" width="28" height="154" filterUnits="userSpaceOnUse" color-interpolation-filters="sRGB">
<feFlood flood-opacity="0" result="BackgroundImageFix"/>
<feColorMatrix in="SourceAlpha" type="matrix" values="0 0 0 0 0 0 0 0 0 0 0 0 0 0 0 0 0 0 127 0" result="hardAlpha"/>
<feOffset dy="3"/>
<feGaussianBlur stdDeviation="0.5"/>
<feColorMatrix type="matrix" values="0 0 0 0 0 0 0 0 0 0 0 0 0 0 0 0 0 0 0.25 0"/>
<feBlend mode="normal" in2="BackgroundImageFix" result="effect1_dropShadow"/>
<feBlend mode="normal" in="SourceGraphic" in2="effect1_dropShadow" result="shape"/>
</filter>
</defs>
</svg>
