<svg width="27" height="124" viewBox="0 0 27 124" fill="none" xmlns="http://www.w3.org/2000/svg">
<g filter="url(#filter0_d)">
<path d="M0 5C0 2.23858 2.23858 0 5 0H26V120L13 107.538L0 120V5Z" fill="#5495CF"/>
</g>
<path d="M16.16 94.945C16.16 95.6316 16.0033 96.2283 15.69 96.735C15.37 97.2416 14.9333 97.6316 14.38 97.905C13.8267 98.1716 13.1933 98.305 12.48 98.305C11.78 98.305 11.1533 98.1716 10.6 97.905C10.04 97.6316 9.6 97.2416 9.28 96.735C8.96 96.2283 8.8 95.6283 8.8 94.935C8.8 94.4216 8.89667 93.9616 9.09 93.555C9.28333 93.1416 9.56333 92.8016 9.93 92.535C10.29 92.2616 10.7233 92.0783 11.23 91.985L11.23 92.815C10.6767 92.9416 10.26 93.185 9.98 93.545C9.69333 93.905 9.55 94.3683 9.55 94.935C9.55 95.4616 9.67667 95.915 9.93 96.295C10.1833 96.675 10.5333 96.9683 10.98 97.175C11.4267 97.375 11.9267 97.475 12.48 97.475C13.0667 97.475 13.58 97.375 14.02 97.175C14.46 96.975 14.8033 96.685 15.05 96.305C15.29 95.925 15.41 95.4683 15.41 94.935C15.41 94.2416 15.22 93.705 14.84 93.325C14.46 92.9383 13.9067 92.7216 13.18 92.675L13.18 94.925L12.45 94.925L12.45 91.855L12.76 91.855C13.5067 91.855 14.1333 91.9816 14.64 92.235C15.1467 92.4816 15.5267 92.8383 15.78 93.305C16.0333 93.7716 16.16 94.3183 16.16 94.945ZM16.16 87.9745C16.16 88.4745 16.0467 88.9112 15.82 89.2845C15.5867 89.6578 15.2667 89.9445 14.86 90.1445C14.4533 90.3445 13.99 90.4445 13.47 90.4445C12.9633 90.4445 12.51 90.3478 12.11 90.1545C11.7033 89.9545 11.3833 89.6678 11.15 89.2945C10.9167 88.9212 10.8 88.4878 10.8 87.9945C10.8 87.5212 10.91 87.1178 11.13 86.7845C11.35 86.4445 11.6567 86.1845 12.05 86.0045C12.4367 85.8245 12.8867 85.7345 13.4 85.7345C13.4867 85.7345 13.5633 85.7378 13.63 85.7445L13.63 89.6645C14.2367 89.6445 14.7 89.4845 15.02 89.1845C15.3333 88.8845 15.49 88.4778 15.49 87.9645C15.49 87.5778 15.4 87.2678 15.22 87.0345C15.04 86.8012 14.7833 86.6345 14.45 86.5345L14.45 85.7845C14.99 85.8978 15.41 86.1512 15.71 86.5445C16.01 86.9312 16.16 87.4078 16.16 87.9745ZM13.03 86.5245C12.5433 86.5378 12.1633 86.6778 11.89 86.9445C11.6167 87.2112 11.48 87.5612 11.48 87.9945C11.48 88.4545 11.6167 88.8278 11.89 89.1145C12.1633 89.4012 12.5433 89.5745 13.03 89.6345L13.03 86.5245ZM16 84.0674L10.96 84.0674L10.96 83.2874L11.72 83.2874C11.4333 83.1074 11.21 82.8774 11.05 82.5974C10.8833 82.3107 10.8 81.9807 10.8 81.6074C10.8 81.0407 10.98 80.594 11.34 80.2674C11.7 79.9407 12.1967 79.7774 12.83 79.7774L16 79.7774L16 80.6074L12.94 80.6074C12.46 80.6074 12.1 80.7074 11.86 80.9074C11.6133 81.1007 11.49 81.4007 11.49 81.8074C11.49 82.094 11.5667 82.3507 11.72 82.5774C11.8667 82.7974 12.08 82.9707 12.36 83.0974C12.64 83.224 12.9633 83.2874 13.33 83.2874L16 83.2874L16 84.0674ZM16.16 75.7538C16.16 76.2538 16.0467 76.6905 15.82 77.0638C15.5867 77.4371 15.2667 77.7238 14.86 77.9238C14.4533 78.1238 13.99 78.2238 13.47 78.2238C12.9633 78.2238 12.51 78.1271 12.11 77.9338C11.7033 77.7338 11.3833 77.4471 11.15 77.0738C10.9167 76.7005 10.8 76.2671 10.8 75.7738C10.8 75.3005 10.91 74.8971 11.13 74.5638C11.35 74.2238 11.6567 73.9638 12.05 73.7838C12.4367 73.6038 12.8867 73.5138 13.4 73.5138C13.4867 73.5138 13.5633 73.5171 13.63 73.5238L13.63 77.4438C14.2367 77.4238 14.7 77.2638 15.02 76.9638C15.3333 76.6638 15.49 76.2571 15.49 75.7438C15.49 75.3571 15.4 75.0471 15.22 74.8138C15.04 74.5805 14.7833 74.4138 14.45 74.3138L14.45 73.5638C14.99 73.6771 15.41 73.9305 15.71 74.3238C16.01 74.7105 16.16 75.1871 16.16 75.7538ZM13.03 74.3038C12.5433 74.3171 12.1633 74.4571 11.89 74.7238C11.6167 74.9905 11.48 75.3405 11.48 75.7738C11.48 76.2338 11.6167 76.6071 11.89 76.8938C12.1633 77.1805 12.5433 77.3538 13.03 77.4138L13.03 74.3038ZM16 71.8467L10.96 71.8467L10.96 71.0667L11.73 71.0667C11.49 70.94 11.3033 70.7767 11.17 70.5767C11.03 70.3767 10.96 70.1367 10.96 69.8567L10.96 69.4267L11.7 69.4267L11.7 69.8567C11.7 70.2233 11.83 70.5167 12.09 70.7367C12.35 70.9567 12.7 71.0667 13.14 71.0667L16 71.0667L16 71.8467ZM16.14 66.685C16.14 67.225 16.0067 67.645 15.74 67.945C15.4667 68.245 15.12 68.395 14.7 68.395C14.24 68.395 13.89 68.245 13.65 67.945C13.41 67.6383 13.25 67.245 13.17 66.765C13.09 66.2783 13.05 65.695 13.05 65.015L12.56 65.015C12.2467 65.015 11.99 65.125 11.79 65.345C11.59 65.565 11.49 65.8716 11.49 66.265C11.49 66.6383 11.5833 66.9316 11.77 67.145C11.95 67.3583 12.2 67.4783 12.52 67.505L12.52 68.295C12.1533 68.2683 11.84 68.165 11.58 67.985C11.32 67.7983 11.1267 67.555 11 67.255C10.8667 66.9483 10.8 66.6083 10.8 66.235C10.8 65.8216 10.8733 65.465 11.02 65.165C11.1667 64.865 11.3733 64.635 11.64 64.475C11.9 64.315 12.2067 64.235 12.56 64.235L16 64.235L16 65.015L15.12 65.015C15.4333 65.175 15.6833 65.3983 15.87 65.685C16.05 65.965 16.14 66.2983 16.14 66.685ZM15.48 66.525C15.48 66.2183 15.4067 65.9516 15.26 65.725C15.1133 65.4983 14.91 65.325 14.65 65.205C14.39 65.0783 14.1033 65.015 13.79 65.015L13.61 65.015C13.61 65.5483 13.6333 65.9983 13.68 66.365C13.7267 66.725 13.8267 67.0216 13.98 67.255C14.1267 67.4883 14.3467 67.605 14.64 67.605C14.9067 67.605 15.1133 67.505 15.26 67.305C15.4067 67.105 15.48 66.845 15.48 66.525ZM16 62.3018L8.75 62.3018L8.75 61.5218L16 61.5218L16 62.3018ZM16 56.4433L8.96 56.4433L8.96 55.6333L16 55.6333L16 56.4433ZM16 53.4678L10.96 53.4678L10.96 52.6878L11.72 52.6878C11.4333 52.5078 11.21 52.2778 11.05 51.9978C10.8833 51.7111 10.8 51.3811 10.8 51.0078C10.8 50.4411 10.98 49.9944 11.34 49.6678C11.7 49.3411 12.1967 49.1778 12.83 49.1778L16 49.1778L16 50.0078L12.94 50.0078C12.46 50.0078 12.1 50.1078 11.86 50.3078C11.6133 50.5011 11.49 50.8011 11.49 51.2078C11.49 51.4944 11.5667 51.7511 11.72 51.9778C11.8667 52.1978 12.08 52.3711 12.36 52.4978C12.64 52.6244 12.9633 52.6878 13.33 52.6878L16 52.6878L16 53.4678ZM16.16 45.5142C16.16 46.1608 16.0033 46.6708 15.69 47.0442C15.37 47.4175 14.9533 47.6308 14.44 47.6842L14.44 46.8642C14.7733 46.8242 15.0367 46.6908 15.23 46.4642C15.4167 46.2308 15.51 45.9142 15.51 45.5142C15.51 45.1208 15.4267 44.8142 15.26 44.5942C15.0867 44.3742 14.87 44.2642 14.61 44.2642C14.4033 44.2642 14.2467 44.3342 14.14 44.4742C14.0333 44.6075 13.9333 44.8608 13.84 45.2342C13.8267 45.3008 13.8133 45.3708 13.8 45.4442C13.78 45.5108 13.7633 45.5842 13.75 45.6642C13.6633 46.0775 13.5633 46.4142 13.45 46.6742C13.3367 46.9342 13.19 47.1342 13.01 47.2742C12.8233 47.4142 12.5833 47.4842 12.29 47.4842C11.99 47.4842 11.7267 47.4042 11.5 47.2442C11.2733 47.0775 11.1 46.8508 10.98 46.5642C10.86 46.2708 10.8 45.9375 10.8 45.5642C10.8 44.9908 10.9367 44.5375 11.21 44.2042C11.4833 43.8708 11.87 43.6708 12.37 43.6042L12.37 44.3942C12.0767 44.4342 11.85 44.5542 11.69 44.7542C11.53 44.9542 11.45 45.2242 11.45 45.5642C11.45 45.9042 11.5267 46.1775 11.68 46.3842C11.8267 46.5842 12.0133 46.6842 12.24 46.6842C12.4467 46.6842 12.6033 46.5975 12.71 46.4242C12.81 46.2508 12.91 45.9475 13.01 45.5142C13.0167 45.4875 13.0233 45.4608 13.03 45.4342C13.03 45.4008 13.0333 45.3708 13.04 45.3442C13.1333 44.8908 13.2367 44.5342 13.35 44.2742C13.4633 44.0075 13.6167 43.8075 13.81 43.6742C14.0033 43.5342 14.26 43.4642 14.58 43.4642C14.88 43.4642 15.15 43.5475 15.39 43.7142C15.63 43.8742 15.82 44.1108 15.96 44.4242C16.0933 44.7308 16.16 45.0942 16.16 45.5142ZM16.16 40.0739C16.16 40.6406 15.98 41.0806 15.62 41.3939C15.26 41.7073 14.7667 41.8639 14.14 41.8639L10.96 41.8639L10.96 41.0839L14.03 41.0839C14.51 41.0839 14.87 40.9839 15.11 40.7839C15.35 40.5839 15.47 40.2806 15.47 39.8739C15.47 39.5873 15.3967 39.3339 15.25 39.1139C15.0967 38.8873 14.8833 38.7139 14.61 38.5939C14.33 38.4673 14.0033 38.4039 13.63 38.4039L10.96 38.4039L10.96 37.6139L16 37.6139L16 38.4039L15.24 38.4039C15.5267 38.5773 15.7533 38.8073 15.92 39.0939C16.08 39.3739 16.16 39.7006 16.16 40.0739ZM16 35.6104L10.96 35.6104L10.96 34.8304L11.73 34.8304C11.49 34.7037 11.3033 34.5404 11.17 34.3404C11.03 34.1404 10.96 33.9004 10.96 33.6204L10.96 33.1904L11.7 33.1904L11.7 33.6204C11.7 33.987 11.83 34.2804 12.09 34.5004C12.35 34.7204 12.7 34.8304 13.14 34.8304L16 34.8304L16 35.6104ZM16.14 30.4486C16.14 30.9886 16.0067 31.4086 15.74 31.7086C15.4667 32.0086 15.12 32.1586 14.7 32.1586C14.24 32.1586 13.89 32.0086 13.65 31.7086C13.41 31.402 13.25 31.0086 13.17 30.5286C13.09 30.042 13.05 29.4586 13.05 28.7786L12.56 28.7786C12.2467 28.7786 11.99 28.8886 11.79 29.1086C11.59 29.3286 11.49 29.6353 11.49 30.0286C11.49 30.402 11.5833 30.6953 11.77 30.9086C11.95 31.122 12.2 31.242 12.52 31.2686L12.52 32.0586C12.1533 32.032 11.84 31.9286 11.58 31.7486C11.32 31.562 11.1267 31.3186 11 31.0186C10.8667 30.712 10.8 30.372 10.8 29.9986C10.8 29.5853 10.8733 29.2286 11.02 28.9286C11.1667 28.6286 11.3733 28.3986 11.64 28.2386C11.9 28.0786 12.2067 27.9986 12.56 27.9986L16 27.9986L16 28.7786L15.12 28.7786C15.4333 28.9386 15.6833 29.162 15.87 29.4486C16.05 29.7286 16.14 30.062 16.14 30.4486ZM15.48 30.2886C15.48 29.982 15.4067 29.7153 15.26 29.4886C15.1133 29.262 14.91 29.0886 14.65 28.9686C14.39 28.842 14.1033 28.7786 13.79 28.7786L13.61 28.7786C13.61 29.312 13.6333 29.762 13.68 30.1286C13.7267 30.4886 13.8267 30.7853 13.98 31.0186C14.1267 31.252 14.3467 31.3686 14.64 31.3686C14.9067 31.3686 15.1133 31.2686 15.26 31.0686C15.4067 30.8686 15.48 30.6086 15.48 30.2886ZM16 26.0654L10.96 26.0654L10.96 25.2854L11.72 25.2854C11.4333 25.1054 11.21 24.8754 11.05 24.5954C10.8833 24.3088 10.8 23.9788 10.8 23.6054C10.8 23.0388 10.98 22.5921 11.34 22.2654C11.7 21.9388 12.1967 21.7754 12.83 21.7754L16 21.7754L16 22.6054L12.94 22.6054C12.46 22.6054 12.1 22.7054 11.86 22.9054C11.6133 23.0988 11.49 23.3988 11.49 23.8054C11.49 24.0921 11.5667 24.3488 11.72 24.5754C11.8667 24.7954 12.08 24.9688 12.36 25.0954C12.64 25.2221 12.9633 25.2854 13.33 25.2854L16 25.2854L16 26.0654ZM16.16 17.7718C16.16 18.2518 16.0467 18.6785 15.82 19.0518C15.5867 19.4252 15.27 19.7152 14.87 19.9218C14.4633 20.1218 14.0033 20.2218 13.49 20.2218C12.9767 20.2218 12.5167 20.1218 12.11 19.9218C11.7033 19.7218 11.3833 19.4385 11.15 19.0718C10.9167 18.6985 10.8 18.2685 10.8 17.7818C10.8 17.3818 10.88 17.0252 11.04 16.7118C11.2 16.3985 11.4233 16.1452 11.71 15.9518C11.9967 15.7518 12.33 15.6285 12.71 15.5818L12.71 16.3918C12.3367 16.4518 12.0433 16.6018 11.83 16.8418C11.61 17.0818 11.5 17.3952 11.5 17.7818C11.5 18.1152 11.5867 18.4052 11.76 18.6518C11.9333 18.8985 12.17 19.0885 12.47 19.2218C12.77 19.3485 13.1067 19.4118 13.48 19.4118C13.86 19.4118 14.2 19.3485 14.5 19.2218C14.7933 19.0885 15.0267 18.8985 15.2 18.6518C15.3733 18.4052 15.46 18.1118 15.46 17.7718C15.46 17.3985 15.3567 17.0918 15.15 16.8518C14.9433 16.6118 14.6733 16.4585 14.34 16.3918L14.34 15.5818C14.7 15.6285 15.0167 15.7485 15.29 15.9418C15.5633 16.1352 15.7767 16.3885 15.93 16.7018C16.0833 17.0152 16.16 17.3718 16.16 17.7718ZM16.16 11.8221C16.16 12.3221 16.0467 12.7588 15.82 13.1321C15.5867 13.5055 15.2667 13.7921 14.86 13.9921C14.4533 14.1921 13.99 14.2921 13.47 14.2921C12.9633 14.2921 12.51 14.1955 12.11 14.0021C11.7033 13.8021 11.3833 13.5155 11.15 13.1421C10.9167 12.7688 10.8 12.3355 10.8 11.8421C10.8 11.3688 10.91 10.9655 11.13 10.6321C11.35 10.2921 11.6567 10.0321 12.05 9.85215C12.4367 9.67215 12.8867 9.58215 13.4 9.58215C13.4867 9.58215 13.5633 9.58548 13.63 9.59215L13.63 13.5121C14.2367 13.4921 14.7 13.3321 15.02 13.0321C15.3333 12.7321 15.49 12.3255 15.49 11.8121C15.49 11.4255 15.4 11.1155 15.22 10.8821C15.04 10.6488 14.7833 10.4821 14.45 10.3821L14.45 9.63215C14.99 9.74548 15.41 9.99881 15.71 10.3921C16.01 10.7788 16.16 11.2555 16.16 11.8221ZM13.03 10.3721C12.5433 10.3855 12.1633 10.5255 11.89 10.7921C11.6167 11.0588 11.48 11.4088 11.48 11.8421C11.48 12.3021 11.6167 12.6755 11.89 12.9621C12.1633 13.2488 12.5433 13.4221 13.03 13.4821L13.03 10.3721Z" fill="#ECEEEF"/>
<defs>
<filter id="filter0_d" x="-1" y="0" width="28" height="124" filterUnits="userSpaceOnUse" color-interpolation-filters="sRGB">
<feFlood flood-opacity="0" result="BackgroundImageFix"/>
<feColorMatrix in="SourceAlpha" type="matrix" values="0 0 0 0 0 0 0 0 0 0 0 0 0 0 0 0 0 0 127 0"/>
<feOffset dy="3"/>
<feGaussianBlur stdDeviation="0.5"/>
<feColorMatrix type="matrix" values="0 0 0 0 0 0 0 0 0 0 0 0 0 0 0 0 0 0 0.25 0"/>
<feBlend mode="normal" in2="BackgroundImageFix" result="effect1_dropShadow"/>
<feBlend mode="normal" in="SourceGraphic" in2="effect1_dropShadow" result="shape"/>
</filter>
</defs>
</svg>
