<svg width="28" height="154" viewBox="0 0 28 154" fill="none" xmlns="http://www.w3.org/2000/svg">
<g filter="url(#filter0_d)">
<path d="M1 5C1 2.23858 3.23858 0 6 0H27V150L14 134.423L1 150V5Z" fill="#5495CF"/>
</g>
<path d="M17 101.421L9.96 101.421L9.96 100.611L16.27 100.611L16.27 96.8609L17 96.8609L17 101.421ZM17 95.4087L11.96 95.4087L11.96 94.6187L17 94.6187L17 95.4087ZM11.14 95.0087C11.14 95.1687 11.0867 95.3053 10.98 95.4187C10.8667 95.5253 10.73 95.5787 10.57 95.5787C10.41 95.5787 10.2767 95.5253 10.17 95.4187C10.0567 95.3053 10 95.1687 10 95.0087C10 94.8487 10.0567 94.7153 10.17 94.6087C10.2767 94.4953 10.41 94.4387 10.57 94.4387C10.73 94.4387 10.8667 94.4953 10.98 94.6087C11.0867 94.7153 11.14 94.8487 11.14 95.0087ZM17 92.2728L12.64 92.2728L12.64 93.3328L11.96 93.3328L11.96 92.2728L11.04 92.2728C10.6533 92.2728 10.3433 92.1661 10.11 91.9528C9.87 91.7328 9.75 91.3961 9.75 90.9428L9.75 90.2428L10.44 90.2428L10.44 90.8528C10.44 91.0661 10.49 91.2261 10.59 91.3328C10.69 91.4328 10.85 91.4828 11.07 91.4828L11.96 91.4828L11.96 90.2328L12.64 90.2328L12.64 91.4828L17 91.4828L17 92.2728ZM17.16 86.8876C17.16 87.3876 17.0467 87.8242 16.82 88.1976C16.5867 88.5709 16.2667 88.8576 15.86 89.0576C15.4533 89.2576 14.99 89.3576 14.47 89.3576C13.9633 89.3576 13.51 89.2609 13.11 89.0676C12.7033 88.8676 12.3833 88.5809 12.15 88.2076C11.9167 87.8342 11.8 87.4009 11.8 86.9076C11.8 86.4342 11.91 86.0309 12.13 85.6976C12.35 85.3576 12.6567 85.0976 13.05 84.9176C13.4367 84.7376 13.8867 84.6476 14.4 84.6476C14.4867 84.6476 14.5633 84.6509 14.63 84.6576L14.63 88.5776C15.2367 88.5576 15.7 88.3976 16.02 88.0976C16.3333 87.7976 16.49 87.3909 16.49 86.8776C16.49 86.4909 16.4 86.1809 16.22 85.9476C16.04 85.7142 15.7833 85.5476 15.45 85.4476L15.45 84.6976C15.99 84.8109 16.41 85.0642 16.71 85.4576C17.01 85.8442 17.16 86.3209 17.16 86.8876ZM14.03 85.4376C13.5433 85.4509 13.1633 85.5909 12.89 85.8576C12.6167 86.1242 12.48 86.4742 12.48 86.9076C12.48 87.3676 12.6167 87.7409 12.89 88.0276C13.1633 88.3142 13.5433 88.4876 14.03 88.5476L14.03 85.4376ZM17 79.8974L9.96 79.8974L9.96 79.0874L17 79.0874L17 79.8974ZM17 76.9219L11.96 76.9219L11.96 76.1419L12.72 76.1419C12.4333 75.9619 12.21 75.7319 12.05 75.4519C11.8833 75.1652 11.8 74.8352 11.8 74.4619C11.8 73.8952 11.98 73.4485 12.34 73.1219C12.7 72.7952 13.1967 72.6319 13.83 72.6319L17 72.6319L17 73.4619L13.94 73.4619C13.46 73.4619 13.1 73.5619 12.86 73.7619C12.6133 73.9552 12.49 74.2552 12.49 74.6619C12.49 74.9485 12.5667 75.2052 12.72 75.4319C12.8667 75.6519 13.08 75.8252 13.36 75.9519C13.64 76.0785 13.9633 76.1419 14.33 76.1419L17 76.1419L17 76.9219ZM17.16 68.9683C17.16 69.6149 17.0033 70.1249 16.69 70.4983C16.37 70.8716 15.9533 71.0849 15.44 71.1383L15.44 70.3183C15.7733 70.2783 16.0367 70.1449 16.23 69.9183C16.4167 69.6849 16.51 69.3683 16.51 68.9683C16.51 68.5749 16.4267 68.2683 16.26 68.0483C16.0867 67.8283 15.87 67.7183 15.61 67.7183C15.4033 67.7183 15.2467 67.7883 15.14 67.9283C15.0333 68.0616 14.9333 68.3149 14.84 68.6883C14.8267 68.7549 14.8133 68.8249 14.8 68.8983C14.78 68.9649 14.7633 69.0383 14.75 69.1183C14.6633 69.5316 14.5633 69.8683 14.45 70.1283C14.3367 70.3883 14.19 70.5883 14.01 70.7283C13.8233 70.8683 13.5833 70.9383 13.29 70.9383C12.99 70.9383 12.7267 70.8583 12.5 70.6983C12.2733 70.5316 12.1 70.3049 11.98 70.0183C11.86 69.7249 11.8 69.3916 11.8 69.0183C11.8 68.4449 11.9367 67.9916 12.21 67.6583C12.4833 67.3249 12.87 67.1249 13.37 67.0583L13.37 67.8483C13.0767 67.8883 12.85 68.0083 12.69 68.2083C12.53 68.4083 12.45 68.6783 12.45 69.0183C12.45 69.3583 12.5267 69.6316 12.68 69.8383C12.8267 70.0383 13.0133 70.1383 13.24 70.1383C13.4467 70.1383 13.6033 70.0516 13.71 69.8783C13.81 69.7049 13.91 69.4016 14.01 68.9683C14.0167 68.9416 14.0233 68.9149 14.03 68.8883C14.03 68.8549 14.0333 68.8249 14.04 68.7983C14.1333 68.3449 14.2367 67.9883 14.35 67.7283C14.4633 67.4616 14.6167 67.2616 14.81 67.1283C15.0033 66.9883 15.26 66.9183 15.58 66.9183C15.88 66.9183 16.15 67.0016 16.39 67.1683C16.63 67.3283 16.82 67.5649 16.96 67.8783C17.0933 68.1849 17.16 68.5483 17.16 68.9683ZM17.16 63.528C17.16 64.0947 16.98 64.5347 16.62 64.848C16.26 65.1614 15.7667 65.318 15.14 65.318L11.96 65.318L11.96 64.538L15.03 64.538C15.51 64.538 15.87 64.438 16.11 64.238C16.35 64.038 16.47 63.7347 16.47 63.328C16.47 63.0414 16.3967 62.788 16.25 62.568C16.0967 62.3414 15.8833 62.168 15.61 62.048C15.33 61.9214 15.0033 61.858 14.63 61.858L11.96 61.858L11.96 61.068L17 61.068L17 61.858L16.24 61.858C16.5267 62.0314 16.7533 62.2614 16.92 62.548C17.08 62.828 17.16 63.1547 17.16 63.528ZM17 59.0645L11.96 59.0645L11.96 58.2845L12.73 58.2845C12.49 58.1578 12.3033 57.9945 12.17 57.7945C12.03 57.5945 11.96 57.3545 11.96 57.0745L11.96 56.6445L12.7 56.6445L12.7 57.0745C12.7 57.4411 12.83 57.7345 13.09 57.9545C13.35 58.1745 13.7 58.2845 14.14 58.2845L17 58.2845L17 59.0645ZM17.14 53.9027C17.14 54.4427 17.0067 54.8627 16.74 55.1627C16.4667 55.4627 16.12 55.6127 15.7 55.6127C15.24 55.6127 14.89 55.4627 14.65 55.1627C14.41 54.8561 14.25 54.4627 14.17 53.9827C14.09 53.4961 14.05 52.9127 14.05 52.2327L13.56 52.2327C13.2467 52.2327 12.99 52.3427 12.79 52.5627C12.59 52.7827 12.49 53.0894 12.49 53.4827C12.49 53.8561 12.5833 54.1494 12.77 54.3627C12.95 54.5761 13.2 54.6961 13.52 54.7227L13.52 55.5127C13.1533 55.4861 12.84 55.3827 12.58 55.2027C12.32 55.0161 12.1267 54.7727 12 54.4727C11.8667 54.1661 11.8 53.8261 11.8 53.4527C11.8 53.0394 11.8733 52.6827 12.02 52.3827C12.1667 52.0827 12.3733 51.8527 12.64 51.6927C12.9 51.5327 13.2067 51.4527 13.56 51.4527L17 51.4527L17 52.2327L16.12 52.2327C16.4333 52.3927 16.6833 52.6161 16.87 52.9027C17.05 53.1827 17.14 53.5161 17.14 53.9027ZM16.48 53.7427C16.48 53.4361 16.4067 53.1694 16.26 52.9427C16.1133 52.7161 15.91 52.5427 15.65 52.4227C15.39 52.2961 15.1033 52.2327 14.79 52.2327L14.61 52.2327C14.61 52.7661 14.6333 53.2161 14.68 53.5827C14.7267 53.9427 14.8267 54.2394 14.98 54.4727C15.1267 54.7061 15.3467 54.8227 15.64 54.8227C15.9067 54.8227 16.1133 54.7227 16.26 54.5227C16.4067 54.3227 16.48 54.0627 16.48 53.7427ZM17 49.5195L11.96 49.5195L11.96 48.7395L12.72 48.7395C12.4333 48.5595 12.21 48.3295 12.05 48.0495C11.8833 47.7629 11.8 47.4329 11.8 47.0595C11.8 46.4929 11.98 46.0462 12.34 45.7195C12.7 45.3929 13.1967 45.2295 13.83 45.2295L17 45.2295L17 46.0595L13.94 46.0595C13.46 46.0595 13.1 46.1595 12.86 46.3595C12.6133 46.5529 12.49 46.8529 12.49 47.2595C12.49 47.5462 12.5667 47.8029 12.72 48.0295C12.8667 48.2495 13.08 48.4229 13.36 48.5495C13.64 48.6762 13.9633 48.7395 14.33 48.7395L17 48.7395L17 49.5195ZM17.16 41.2259C17.16 41.7059 17.0467 42.1326 16.82 42.5059C16.5867 42.8793 16.27 43.1693 15.87 43.3759C15.4633 43.5759 15.0033 43.6759 14.49 43.6759C13.9767 43.6759 13.5167 43.5759 13.11 43.3759C12.7033 43.1759 12.3833 42.8926 12.15 42.5259C11.9167 42.1526 11.8 41.7226 11.8 41.2359C11.8 40.8359 11.88 40.4793 12.04 40.1659C12.2 39.8526 12.4233 39.5993 12.71 39.4059C12.9967 39.2059 13.33 39.0826 13.71 39.0359L13.71 39.8459C13.3367 39.9059 13.0433 40.0559 12.83 40.2959C12.61 40.5359 12.5 40.8493 12.5 41.2359C12.5 41.5693 12.5867 41.8593 12.76 42.1059C12.9333 42.3526 13.17 42.5426 13.47 42.6759C13.77 42.8026 14.1067 42.8659 14.48 42.8659C14.86 42.8659 15.2 42.8026 15.5 42.6759C15.7933 42.5426 16.0267 42.3526 16.2 42.1059C16.3733 41.8593 16.46 41.5659 16.46 41.2259C16.46 40.8526 16.3567 40.5459 16.15 40.3059C15.9433 40.0659 15.6733 39.9126 15.34 39.8459L15.34 39.0359C15.7 39.0826 16.0167 39.2026 16.29 39.3959C16.5633 39.5893 16.7767 39.8426 16.93 40.1559C17.0833 40.4693 17.16 40.8259 17.16 41.2259ZM17.16 35.2762C17.16 35.7762 17.0467 36.2129 16.82 36.5862C16.5867 36.9596 16.2667 37.2462 15.86 37.4462C15.4533 37.6462 14.99 37.7462 14.47 37.7462C13.9633 37.7462 13.51 37.6496 13.11 37.4563C12.7033 37.2563 12.3833 36.9696 12.15 36.5963C11.9167 36.2229 11.8 35.7896 11.8 35.2962C11.8 34.8229 11.91 34.4196 12.13 34.0863C12.35 33.7462 12.6567 33.4862 13.05 33.3062C13.4367 33.1262 13.8867 33.0362 14.4 33.0362C14.4867 33.0362 14.5633 33.0396 14.63 33.0462L14.63 36.9662C15.2367 36.9462 15.7 36.7862 16.02 36.4862C16.3333 36.1862 16.49 35.7796 16.49 35.2662C16.49 34.8796 16.4 34.5696 16.22 34.3362C16.04 34.1029 15.7833 33.9362 15.45 33.8362L15.45 33.0862C15.99 33.1996 16.41 33.4529 16.71 33.8462C17.01 34.2329 17.16 34.7096 17.16 35.2762ZM14.03 33.8262C13.5433 33.8396 13.1633 33.9796 12.89 34.2462C12.6167 34.5129 12.48 34.8629 12.48 35.2962C12.48 35.7562 12.6167 36.1296 12.89 36.4162C13.1633 36.7029 13.5433 36.8762 14.03 36.9362L14.03 33.8262Z" fill="#ECEEEF"/>
<defs>
<filter id="filter0_d" x="0" y="0" width="28" height="154" filterUnits="userSpaceOnUse" color-interpolation-filters="sRGB">
<feFlood flood-opacity="0" result="BackgroundImageFix"/>
<feColorMatrix in="SourceAlpha" type="matrix" values="0 0 0 0 0 0 0 0 0 0 0 0 0 0 0 0 0 0 127 0" result="hardAlpha"/>
<feOffset dy="3"/>
<feGaussianBlur stdDeviation="0.5"/>
<feColorMatrix type="matrix" values="0 0 0 0 0 0 0 0 0 0 0 0 0 0 0 0 0 0 0.25 0"/>
<feBlend mode="normal" in2="BackgroundImageFix" result="effect1_dropShadow"/>
<feBlend mode="normal" in="SourceGraphic" in2="effect1_dropShadow" result="shape"/>
</filter>
</defs>
</svg>
