<svg width="27" height="124" viewBox="0 0 27 124" fill="none" xmlns="http://www.w3.org/2000/svg">
<g filter="url(#filter0_d)">
<path d="M0 5C0 2.23858 2.23858 0 5 0H26V120L13 107.538L0 120V5Z" fill="#5495CF"/>
</g>
<path d="M16 87.9209L8.96 87.9209L8.96 87.1109L15.27 87.1109L15.27 83.3609L16 83.3609L16 87.9209ZM16 81.9087L10.96 81.9087L10.96 81.1187L16 81.1187L16 81.9087ZM10.14 81.5087C10.14 81.6687 10.0867 81.8053 9.98 81.9187C9.86667 82.0253 9.73 82.0787 9.57 82.0787C9.41 82.0787 9.27667 82.0253 9.17 81.9187C9.05667 81.8053 9 81.6687 9 81.5087C9 81.3487 9.05667 81.2153 9.17 81.1087C9.27667 80.9953 9.41 80.9387 9.57 80.9387C9.73 80.9387 9.86667 80.9953 9.98 81.1087C10.0867 81.2153 10.14 81.3487 10.14 81.5087ZM16 78.7728L11.64 78.7728L11.64 79.8328L10.96 79.8328L10.96 78.7728L10.04 78.7728C9.65333 78.7728 9.34333 78.6661 9.11 78.4528C8.87 78.2328 8.75 77.8961 8.75 77.4428L8.75 76.7428L9.44 76.7428L9.44 77.3528C9.44 77.5661 9.49 77.7261 9.59 77.8328C9.69 77.9328 9.85 77.9828 10.07 77.9828L10.96 77.9828L10.96 76.7328L11.64 76.7328L11.64 77.9828L16 77.9828L16 78.7728ZM16.16 73.3876C16.16 73.8876 16.0467 74.3242 15.82 74.6976C15.5867 75.0709 15.2667 75.3576 14.86 75.5576C14.4533 75.7576 13.99 75.8576 13.47 75.8576C12.9633 75.8576 12.51 75.7609 12.11 75.5676C11.7033 75.3676 11.3833 75.0809 11.15 74.7076C10.9167 74.3342 10.8 73.9009 10.8 73.4076C10.8 72.9342 10.91 72.5309 11.13 72.1976C11.35 71.8576 11.6567 71.5976 12.05 71.4176C12.4367 71.2376 12.8867 71.1476 13.4 71.1476C13.4867 71.1476 13.5633 71.1509 13.63 71.1576L13.63 75.0776C14.2367 75.0576 14.7 74.8976 15.02 74.5976C15.3333 74.2976 15.49 73.8909 15.49 73.3776C15.49 72.9909 15.4 72.6809 15.22 72.4476C15.04 72.2142 14.7833 72.0476 14.45 71.9476L14.45 71.1976C14.99 71.3109 15.41 71.5642 15.71 71.9576C16.01 72.3442 16.16 72.8209 16.16 73.3876ZM13.03 71.9376C12.5433 71.9509 12.1633 72.0909 11.89 72.3576C11.6167 72.6242 11.48 72.9742 11.48 73.4076C11.48 73.8676 11.6167 74.2409 11.89 74.5276C12.1633 74.8142 12.5433 74.9876 13.03 75.0476L13.03 71.9376ZM16 66.3974L8.96 66.3974L8.96 65.5874L16 65.5874L16 66.3974ZM16 63.4219L10.96 63.4219L10.96 62.6419L11.72 62.6419C11.4333 62.4619 11.21 62.2319 11.05 61.9519C10.8833 61.6652 10.8 61.3352 10.8 60.9619C10.8 60.3952 10.98 59.9485 11.34 59.6219C11.7 59.2952 12.1967 59.1319 12.83 59.1319L16 59.1319L16 59.9619L12.94 59.9619C12.46 59.9619 12.1 60.0619 11.86 60.2619C11.6133 60.4552 11.49 60.7552 11.49 61.1619C11.49 61.4485 11.5667 61.7052 11.72 61.9319C11.8667 62.1519 12.08 62.3252 12.36 62.4519C12.64 62.5785 12.9633 62.6419 13.33 62.6419L16 62.6419L16 63.4219ZM16.16 55.4683C16.16 56.1149 16.0033 56.6249 15.69 56.9983C15.37 57.3716 14.9533 57.5849 14.44 57.6383L14.44 56.8183C14.7733 56.7783 15.0367 56.6449 15.23 56.4183C15.4167 56.1849 15.51 55.8683 15.51 55.4683C15.51 55.0749 15.4267 54.7683 15.26 54.5483C15.0867 54.3283 14.87 54.2183 14.61 54.2183C14.4033 54.2183 14.2467 54.2883 14.14 54.4283C14.0333 54.5616 13.9333 54.8149 13.84 55.1883C13.8267 55.2549 13.8133 55.3249 13.8 55.3983C13.78 55.4649 13.7633 55.5383 13.75 55.6183C13.6633 56.0316 13.5633 56.3683 13.45 56.6283C13.3367 56.8883 13.19 57.0883 13.01 57.2283C12.8233 57.3683 12.5833 57.4383 12.29 57.4383C11.99 57.4383 11.7267 57.3583 11.5 57.1983C11.2733 57.0316 11.1 56.8049 10.98 56.5183C10.86 56.2249 10.8 55.8916 10.8 55.5183C10.8 54.9449 10.9367 54.4916 11.21 54.1583C11.4833 53.8249 11.87 53.6249 12.37 53.5583L12.37 54.3483C12.0767 54.3883 11.85 54.5083 11.69 54.7083C11.53 54.9083 11.45 55.1783 11.45 55.5183C11.45 55.8583 11.5267 56.1316 11.68 56.3383C11.8267 56.5383 12.0133 56.6383 12.24 56.6383C12.4467 56.6383 12.6033 56.5516 12.71 56.3783C12.81 56.2049 12.91 55.9016 13.01 55.4683C13.0167 55.4416 13.0233 55.4149 13.03 55.3883C13.03 55.3549 13.0333 55.3249 13.04 55.2983C13.1333 54.8449 13.2367 54.4883 13.35 54.2283C13.4633 53.9616 13.6167 53.7616 13.81 53.6283C14.0033 53.4883 14.26 53.4183 14.58 53.4183C14.88 53.4183 15.15 53.5016 15.39 53.6683C15.63 53.8283 15.82 54.0649 15.96 54.3783C16.0933 54.6849 16.16 55.0483 16.16 55.4683ZM16.16 50.028C16.16 50.5947 15.98 51.0347 15.62 51.348C15.26 51.6614 14.7667 51.818 14.14 51.818L10.96 51.818L10.96 51.038L14.03 51.038C14.51 51.038 14.87 50.938 15.11 50.738C15.35 50.538 15.47 50.2347 15.47 49.828C15.47 49.5414 15.3967 49.288 15.25 49.068C15.0967 48.8414 14.8833 48.668 14.61 48.548C14.33 48.4214 14.0033 48.358 13.63 48.358L10.96 48.358L10.96 47.568L16 47.568L16 48.358L15.24 48.358C15.5267 48.5314 15.7533 48.7614 15.92 49.048C16.08 49.328 16.16 49.6547 16.16 50.028ZM16 45.5645L10.96 45.5645L10.96 44.7845L11.73 44.7845C11.49 44.6578 11.3033 44.4945 11.17 44.2945C11.03 44.0945 10.96 43.8545 10.96 43.5745L10.96 43.1445L11.7 43.1445L11.7 43.5745C11.7 43.9411 11.83 44.2345 12.09 44.4545C12.35 44.6745 12.7 44.7845 13.14 44.7845L16 44.7845L16 45.5645ZM16.14 40.4027C16.14 40.9427 16.0067 41.3627 15.74 41.6627C15.4667 41.9627 15.12 42.1127 14.7 42.1127C14.24 42.1127 13.89 41.9627 13.65 41.6627C13.41 41.3561 13.25 40.9627 13.17 40.4827C13.09 39.9961 13.05 39.4127 13.05 38.7327L12.56 38.7327C12.2467 38.7327 11.99 38.8427 11.79 39.0627C11.59 39.2827 11.49 39.5894 11.49 39.9827C11.49 40.3561 11.5833 40.6494 11.77 40.8627C11.95 41.0761 12.2 41.1961 12.52 41.2227L12.52 42.0127C12.1533 41.9861 11.84 41.8827 11.58 41.7027C11.32 41.5161 11.1267 41.2727 11 40.9727C10.8667 40.6661 10.8 40.3261 10.8 39.9527C10.8 39.5394 10.8733 39.1827 11.02 38.8827C11.1667 38.5827 11.3733 38.3527 11.64 38.1927C11.9 38.0327 12.2067 37.9527 12.56 37.9527L16 37.9527L16 38.7327L15.12 38.7327C15.4333 38.8927 15.6833 39.1161 15.87 39.4027C16.05 39.6827 16.14 40.0161 16.14 40.4027ZM15.48 40.2427C15.48 39.9361 15.4067 39.6694 15.26 39.4427C15.1133 39.2161 14.91 39.0427 14.65 38.9227C14.39 38.7961 14.1033 38.7327 13.79 38.7327L13.61 38.7327C13.61 39.2661 13.6333 39.7161 13.68 40.0827C13.7267 40.4427 13.8267 40.7394 13.98 40.9727C14.1267 41.2061 14.3467 41.3227 14.64 41.3227C14.9067 41.3227 15.1133 41.2227 15.26 41.0227C15.4067 40.8227 15.48 40.5627 15.48 40.2427ZM16 36.0195L10.96 36.0195L10.96 35.2395L11.72 35.2395C11.4333 35.0595 11.21 34.8295 11.05 34.5495C10.8833 34.2629 10.8 33.9329 10.8 33.5595C10.8 32.9929 10.98 32.5462 11.34 32.2195C11.7 31.8929 12.1967 31.7295 12.83 31.7295L16 31.7295L16 32.5595L12.94 32.5595C12.46 32.5595 12.1 32.6595 11.86 32.8595C11.6133 33.0529 11.49 33.3529 11.49 33.7595C11.49 34.0462 11.5667 34.3029 11.72 34.5295C11.8667 34.7495 12.08 34.9229 12.36 35.0495C12.64 35.1762 12.9633 35.2395 13.33 35.2395L16 35.2395L16 36.0195ZM16.16 27.7259C16.16 28.2059 16.0467 28.6326 15.82 29.0059C15.5867 29.3793 15.27 29.6693 14.87 29.8759C14.4633 30.0759 14.0033 30.1759 13.49 30.1759C12.9767 30.1759 12.5167 30.0759 12.11 29.8759C11.7033 29.6759 11.3833 29.3926 11.15 29.0259C10.9167 28.6526 10.8 28.2226 10.8 27.7359C10.8 27.3359 10.88 26.9793 11.04 26.6659C11.2 26.3526 11.4233 26.0993 11.71 25.9059C11.9967 25.7059 12.33 25.5826 12.71 25.5359L12.71 26.3459C12.3367 26.4059 12.0433 26.5559 11.83 26.7959C11.61 27.0359 11.5 27.3493 11.5 27.7359C11.5 28.0693 11.5867 28.3593 11.76 28.6059C11.9333 28.8526 12.17 29.0426 12.47 29.1759C12.77 29.3026 13.1067 29.3659 13.48 29.3659C13.86 29.3659 14.2 29.3026 14.5 29.1759C14.7933 29.0426 15.0267 28.8526 15.2 28.6059C15.3733 28.3593 15.46 28.0659 15.46 27.7259C15.46 27.3526 15.3567 27.0459 15.15 26.8059C14.9433 26.5659 14.6733 26.4126 14.34 26.3459L14.34 25.5359C14.7 25.5826 15.0167 25.7026 15.29 25.8959C15.5633 26.0893 15.7767 26.3426 15.93 26.6559C16.0833 26.9693 16.16 27.3259 16.16 27.7259ZM16.16 21.7762C16.16 22.2762 16.0467 22.7129 15.82 23.0862C15.5867 23.4596 15.2667 23.7462 14.86 23.9462C14.4533 24.1462 13.99 24.2462 13.47 24.2462C12.9633 24.2462 12.51 24.1496 12.11 23.9563C11.7033 23.7563 11.3833 23.4696 11.15 23.0963C10.9167 22.7229 10.8 22.2896 10.8 21.7962C10.8 21.3229 10.91 20.9196 11.13 20.5863C11.35 20.2462 11.6567 19.9862 12.05 19.8062C12.4367 19.6262 12.8867 19.5362 13.4 19.5362C13.4867 19.5362 13.5633 19.5396 13.63 19.5462L13.63 23.4662C14.2367 23.4462 14.7 23.2862 15.02 22.9862C15.3333 22.6862 15.49 22.2796 15.49 21.7662C15.49 21.3796 15.4 21.0696 15.22 20.8362C15.04 20.6029 14.7833 20.4362 14.45 20.3362L14.45 19.5862C14.99 19.6996 15.41 19.9529 15.71 20.3462C16.01 20.7329 16.16 21.2096 16.16 21.7762ZM13.03 20.3262C12.5433 20.3396 12.1633 20.4796 11.89 20.7462C11.6167 21.0129 11.48 21.3629 11.48 21.7962C11.48 22.2562 11.6167 22.6296 11.89 22.9162C12.1633 23.2029 12.5433 23.3762 13.03 23.4362L13.03 20.3262Z" fill="#ECEEEF"/>
<defs>
<filter id="filter0_d" x="-1" y="0" width="28" height="124" filterUnits="userSpaceOnUse" color-interpolation-filters="sRGB">
<feFlood flood-opacity="0" result="BackgroundImageFix"/>
<feColorMatrix in="SourceAlpha" type="matrix" values="0 0 0 0 0 0 0 0 0 0 0 0 0 0 0 0 0 0 127 0"/>
<feOffset dy="3"/>
<feGaussianBlur stdDeviation="0.5"/>
<feColorMatrix type="matrix" values="0 0 0 0 0 0 0 0 0 0 0 0 0 0 0 0 0 0 0.25 0"/>
<feBlend mode="normal" in2="BackgroundImageFix" result="effect1_dropShadow"/>
<feBlend mode="normal" in="SourceGraphic" in2="effect1_dropShadow" result="shape"/>
</filter>
</defs>
</svg>
