<svg width="25" height="25" viewBox="0 0 25 25" fill="none" xmlns="http://www.w3.org/2000/svg">
<path d="M21.648 0H3.34872C3.00508 0 2.72656 0.278513 2.72656 0.622159V24.3779C2.72656 24.6249 2.87262 24.8485 3.09889 24.9476C3.32539 25.0468 3.58884 25.0028 3.77038 24.8353L5.93506 22.8391C6.17007 22.6208 6.53267 22.6179 6.77108 22.8323L8.1899 24.0987C8.90052 24.7342 9.97617 24.7313 10.6832 24.0919L12.0813 22.8303C12.318 22.6157 12.6787 22.6157 12.9151 22.8303L14.3135 24.0919C15.0205 24.7316 16.0962 24.7345 16.8066 24.0987L18.2256 22.8323C18.464 22.6179 18.8266 22.6208 19.0616 22.8391L21.2261 24.8353C21.4079 25.0028 21.6713 25.0468 21.8976 24.9476C22.1238 24.8485 22.2701 24.6249 22.2701 24.3779V0.622159C22.2701 0.278513 21.9914 0 21.648 0ZM21.0258 22.9577L19.9052 21.9243C19.2002 21.2701 18.1126 21.2611 17.3969 21.9037L15.9781 23.1701C15.7411 23.382 15.3826 23.381 15.1469 23.1679L13.7487 21.9063C13.0393 21.2633 11.9578 21.2633 11.2482 21.9063L9.8498 23.1681C9.61406 23.381 9.25559 23.382 9.01888 23.1703L7.59982 21.9039C6.88434 21.2611 5.79677 21.2701 5.09174 21.9243L3.97112 22.9579V1.24456H21.0258V22.9579V22.9577Z" fill="black" fill-opacity="0.5"/>
<path d="M8.33993 9.69159H16.3252C16.6688 9.69159 16.9474 9.41307 16.9474 9.06943C16.9474 8.72578 16.6688 8.44727 16.3252 8.44727H8.33993C7.99629 8.44727 7.71777 8.72578 7.71777 9.06943C7.71777 9.41307 7.99629 9.69159 8.33993 9.69159Z" fill="black" fill-opacity="0.5"/>
<path d="M8.33993 14.0178H16.3252C16.6688 14.0178 16.9474 13.7392 16.9474 13.3956C16.9474 13.052 16.6688 12.7734 16.3252 12.7734H8.33993C7.99629 12.7734 7.71777 13.052 7.71777 13.3956C7.71777 13.7392 7.99629 14.0178 8.33993 14.0178Z" fill="black" fill-opacity="0.5"/>
</svg>
