<svg width="15" height="14" viewBox="0 0 15 14" fill="none" xmlns="http://www.w3.org/2000/svg">
<g clip-path="url(#clip0)">
<path d="M7.49935 14.0001C7.47427 14.0001 7.44977 13.9972 7.42527 13.9902C7.36752 13.9756 1.66602 12.4134 1.66602 7.10452V2.33343C1.66602 2.21151 1.74185 2.10185 1.85677 2.05985L7.39843 0.0181816C7.46318 -0.00573503 7.53493 -0.00573503 7.60027 0.0181816L13.1419 2.05985C13.2569 2.10185 13.3327 2.21151 13.3327 2.33343V7.10452C13.3327 12.414 7.63118 13.9756 7.57343 13.9908C7.54893 13.9972 7.52443 14.0001 7.49935 14.0001ZM2.24935 2.53702V7.10452C2.24935 11.7023 6.82852 13.2097 7.49935 13.4057C8.17018 13.2097 12.7493 11.7023 12.7493 7.10452V2.53702L7.49935 0.602682L2.24935 2.53702Z" fill="#23366F"/>
<path d="M5.3125 7.65625L6.84375 8.96875L10.125 5.6875" stroke="#23366F" stroke-linejoin="round"/>
</g>
<defs>
<clipPath id="clip0">
<rect width="14" height="14" fill="white" transform="translate(0.5)"/>
</clipPath>
</defs>
</svg>
