<svg width="24" height="24" viewBox="0 0 24 24" fill="none" xmlns="http://www.w3.org/2000/svg">
<g clip-path="url(#clip0)">
<path d="M12 23.9998C11.957 23.9998 11.915 23.9948 11.873 23.9828C11.774 23.9578 2 21.2798 2 12.1788V3.99975C2 3.79075 2.13 3.60275 2.327 3.53075L11.827 0.03075C11.938 -0.01025 12.061 -0.01025 12.173 0.03075L21.673 3.53075C21.87 3.60275 22 3.79075 22 3.99975V12.1788C22 21.2808 12.226 23.9578 12.127 23.9838C12.085 23.9948 12.043 23.9998 12 23.9998ZM3 4.34875V12.1788C3 20.0608 10.85 22.6448 12 22.9808C13.15 22.6448 21 20.0608 21 12.1788V4.34875L12 1.03275L3 4.34875Z" fill="#5495CF"/>
<path d="M8.25 13.125L10.875 15.375L16.5 9.75" stroke="#5495CF" stroke-linejoin="round"/>
</g>
<defs>
<clipPath id="clip0">
<rect width="24" height="24" fill="white"/>
</clipPath>
</defs>
</svg>
