<svg width="27" height="32" viewBox="0 0 27 32" fill="none" xmlns="http://www.w3.org/2000/svg">
    <path d="M13.333 32C13.2759 32.0003 13.219 31.9926 13.164 31.977C13.033 31.944 2.38577e-06 28.373 2.38577e-06 16.239V5.33301C-0.000361676 5.19706 0.0409486 5.06427 0.118368 4.95252C0.195788 4.84077 0.305597 4.75543 0.433002 4.70801L13.102 0.0410053C13.2513 -0.012997 13.4147 -0.012997 13.564 0.0410053L26.233 4.70801C26.361 4.75494 26.4714 4.84007 26.5494 4.95186C26.6274 5.06365 26.6691 5.1967 26.669 5.33301V16.239C26.669 28.375 13.637 31.939 13.505 31.979C13.4488 31.9932 13.391 32.0002 13.333 32V32ZM1.333 5.80001V16.24C1.333 26.749 11.8 30.194 13.333 30.64C14.866 30.192 25.333 26.747 25.333 16.24V5.80001L13.333 1.37701L1.333 5.80001Z" fill="black" fill-opacity="0.5"/>
    <path d="M11.8331 21C11.7139 21 11.5986 20.9575 11.5081 20.88L8.00806 17.88L8.65806 17.12L11.8071 19.82L18.9791 12.647L19.6871 13.355L12.1871 20.855C12.0929 20.9483 11.9656 21.0005 11.8331 21Z" fill="black" fill-opacity="0.5"/>
</svg>
