<svg width="10" height="10" viewBox="0 0 25 24" fill="none" xmlns="http://www.w3.org/2000/svg">
<g clip-path="url(#clip0)">
<path d="M12.5332 23.9998C12.4902 23.9998 12.4482 23.9948 12.4062 23.9828C12.3072 23.9578 2.5332 21.2798 2.5332 12.1788V3.99975C2.5332 3.79075 2.6632 3.60275 2.8602 3.53075L12.3602 0.03075C12.4712 -0.01025 12.5942 -0.01025 12.7062 0.03075L22.2062 3.53075C22.4032 3.60275 22.5332 3.79075 22.5332 3.99975V12.1788C22.5332 21.2808 12.7592 23.9578 12.6602 23.9838C12.6182 23.9948 12.5762 23.9998 12.5332 23.9998ZM3.5332 4.34875V12.1788C3.5332 20.0608 11.3832 22.6448 12.5332 22.9808C13.6832 22.6448 21.5332 20.0608 21.5332 12.1788V4.34875L12.5332 1.03275L3.5332 4.34875Z" fill="white"/>
<path d="M8.7832 13.125L11.4082 15.375L17.0332 9.75" stroke="white" stroke-linejoin="round"/>
</g>
<defs>
<clipPath id="clip0">
<rect width="24" height="24" fill="white" transform="translate(0.533203)"/>
</clipPath>
</defs>
</svg>
