<svg width="32" height="32" viewBox="0 0 32 32" fill="none" xmlns="http://www.w3.org/2000/svg">
<path d="M7.05008 24.6109C7.08063 24.6867 7.12593 24.7558 7.18333 24.8141C7.24074 24.8723 7.30913 24.9186 7.38455 24.9503C7.46063 24.9817 7.54189 24.9986 7.62416 25.0002H16.7278C16.8933 25.0002 17.0521 24.9345 17.1691 24.8175C17.2861 24.7005 17.3518 24.5417 17.3518 24.3762C17.3518 24.2107 17.2861 24.052 17.1691 23.935C17.0521 23.818 16.8933 23.7522 16.7278 23.7522H9.12178L19.7358 13.1282C19.7938 13.0707 19.8398 13.0023 19.8711 12.9269C19.9025 12.8515 19.9187 12.7706 19.9187 12.6889C19.9187 12.6073 19.9025 12.5264 19.8711 12.451C19.8398 12.3756 19.7938 12.3072 19.7358 12.2496C19.6789 12.1907 19.6107 12.1439 19.5351 12.1121C19.4596 12.0804 19.3784 12.0643 19.2965 12.0649C19.2139 12.0648 19.1321 12.081 19.0558 12.1127C18.9796 12.1444 18.9104 12.191 18.8522 12.2496L8.24817 22.8686V15.2626C8.24817 15.0971 8.18243 14.9384 8.0654 14.8213C7.94838 14.7043 7.78966 14.6386 7.62416 14.6386C7.45867 14.6386 7.29995 14.7043 7.18292 14.8213C7.0659 14.9384 7.00015 15.0971 7.00015 15.2626V24.3663C6.99779 24.4505 7.01488 24.5342 7.05008 24.6109Z" fill="#5495CF"/>
<path d="M15.2818 8.23301H22.8879L13.9621 17.1738C13.8987 17.2302 13.8474 17.2989 13.8114 17.3758C13.7755 17.4527 13.7556 17.5361 13.753 17.621C13.7504 17.7058 13.7651 17.7903 13.7963 17.8692C13.8274 17.9482 13.8744 18.02 13.9342 18.0801C13.9941 18.1403 14.0656 18.1877 14.1443 18.2193C14.2231 18.2509 14.3075 18.2661 14.3924 18.264C14.4772 18.2618 14.5607 18.2424 14.6378 18.2069C14.7149 18.1714 14.784 18.1205 14.8407 18.0574L23.7615 9.12659V16.7326C23.7615 16.8981 23.8273 17.0569 23.9443 17.1739C24.0613 17.2909 24.22 17.3567 24.3855 17.3567C24.551 17.3567 24.7097 17.2909 24.8268 17.1739C24.9438 17.0569 25.0095 16.8981 25.0095 16.7326V7.62898C25.0095 7.46302 24.9439 7.30378 24.8271 7.18596C24.7102 7.06814 24.5515 7.00129 24.3855 6.99998H15.2818C15.1163 6.99998 14.9576 7.06572 14.8406 7.18274C14.7236 7.29977 14.6578 7.45849 14.6578 7.62398C14.6578 7.78948 14.7236 7.9482 14.8406 8.06522C14.9576 8.18225 15.1163 8.24799 15.2818 8.24799V8.23301Z" fill="#5495CF"/>
</svg>
