<svg width="20" height="20" viewBox="0 0 48 52" fill="none" xmlns="http://www.w3.org/2000/svg">
<path d="M47.551 14.6984L24.3718 0.119978C24.2467 0.0413544 24.1052 0 23.9612 0C23.8172 0 23.6756 0.0413544 23.5506 0.119978L0.417715 14.6984C0.290954 14.7772 0.185475 14.8915 0.112077 15.0299C0.038679 15.1682 0 15.3255 0 15.4857C0 15.6459 0.038679 15.8032 0.112077 15.9415C0.185475 16.0798 0.290954 16.1942 0.417715 16.2729L6.31186 19.9977L4.03367 27.5056C3.91759 27.8861 3.85941 28.2851 3.86149 28.6865C3.86787 29.3574 4.01281 30.018 4.28534 30.6181C4.55834 31.2336 4.97126 31.7609 5.48403 32.1489L21.7227 44.0741C22.3987 44.5567 23.1886 44.8102 23.9943 44.803C24.7994 44.8055 25.5881 44.5524 26.2659 44.0741L34.7958 37.8126V44.7228C34.0028 44.9448 33.3108 45.478 32.8497 46.222C32.3887 46.9661 32.1903 47.8698 32.292 48.7635C32.3937 49.6571 32.7883 50.4792 33.4018 51.0752C34.0153 51.6711 34.8054 52 35.6237 52C36.4419 52 37.232 51.6711 37.8455 51.0752C38.459 50.4792 38.8537 49.6571 38.9553 48.7635C39.057 47.8698 38.8587 46.9661 38.3976 46.222C37.9365 45.478 37.2445 44.9448 36.4515 44.7228L36.4184 36.6318L42.4781 32.178C43.0047 31.7886 43.4257 31.2496 43.6966 30.6181C43.9727 30.0142 44.1178 29.348 44.1205 28.6719C44.1226 28.2705 44.0644 27.8715 43.9483 27.4911L41.7099 19.9686L47.5841 16.2875C47.7106 16.2068 47.8156 16.0909 47.8886 15.9514C47.9616 15.812 48 15.6539 48 15.493C48 15.332 47.9616 15.1739 47.8886 15.0345C47.8156 14.8951 47.7106 14.7792 47.5841 14.6984H47.551ZM37.4184 48.2945C37.4197 48.6697 37.3198 49.0368 37.1314 49.3494C36.943 49.662 36.6746 49.9061 36.36 50.0507C36.0455 50.1952 35.6991 50.2338 35.3647 50.1615C35.0302 50.0892 34.7228 49.9093 34.4813 49.6445C34.2398 49.3797 34.0752 49.0421 34.0082 48.6742C33.9412 48.3064 33.9749 47.925 34.1051 47.5782C34.2352 47.2315 34.4559 46.9351 34.7392 46.7265C35.0225 46.518 35.3557 46.4066 35.6965 46.4066C35.9223 46.4057 36.1461 46.4538 36.3549 46.5482C36.5638 46.6427 36.7537 46.7816 36.9137 46.957C37.0736 47.1324 37.2006 47.3408 37.2872 47.5704C37.3738 47.7999 37.4184 48.046 37.4184 48.2945V48.2945ZM40.935 18.3358L39.7297 19.0647L35.5442 21.6888L24.4049 14.6984C24.2132 14.5798 23.9867 14.5492 23.7746 14.6133C23.5626 14.6775 23.3821 14.8312 23.2724 15.041C23.1649 15.2509 23.1373 15.4991 23.1956 15.7314C23.254 15.9636 23.3935 16.1609 23.5837 16.2802V16.2802L33.8753 22.7603L23.9016 29.0218L8.25229 19.1376L7.02048 18.3649L2.47736 15.493L23.9479 1.94229L45.4715 15.493L40.935 18.3358ZM25.3519 42.5579C24.9392 42.8202 24.4709 42.9583 23.9943 42.9583C23.5177 42.9583 23.0494 42.8202 22.6367 42.5579L6.39796 30.6181C6.12713 30.4049 5.91052 30.1188 5.76881 29.7872C5.60561 29.4375 5.5194 29.0504 5.51715 28.6573C5.5172 28.452 5.54625 28.2479 5.60324 28.0523L7.76884 20.9016L23.4844 30.8587C23.6094 30.9373 23.7509 30.9787 23.895 30.9787C24.039 30.9787 24.1805 30.9373 24.3056 30.8587L34.7495 24.2984L34.7892 35.6113L25.3519 42.5579ZM42.3721 28.0596C42.4291 28.2552 42.4582 28.4593 42.4582 28.6646C42.4518 29.0595 42.3659 29.4479 42.2066 29.8017C42.0557 30.1358 41.8272 30.42 41.5443 30.6254L36.4118 34.4085V23.2779L40.2198 20.887L42.3721 28.0596Z" fill="#19BAB6"/>
</svg>